<svg width="481" height="221" viewBox="0 0 481 221" fill="none" xmlns="http://www.w3.org/2000/svg">
<style>
  @keyframes needleSweep {
    0% { transform: rotate(-142.2deg); }
    70% { transform: rotate(3deg); }
    85% { transform: rotate(-1.5deg); }
    100% { transform: rotate(0deg); }
  }
  @keyframes arcDraw {
    0% { stroke-dashoffset: 600; }
    100% { stroke-dashoffset: 0; }
  }
  @keyframes fadeScaleIn {
    0% { opacity: 0; transform: scale(0.5) translate(-50%, -50%); }
    60% { opacity: 1; transform: scale(1.08) translate(-50%, -50%); }
    100% { opacity: 1; transform: scale(1) translate(-50%, -50%); }
  }
  @keyframes fadeUp {
    0% { opacity: 0; transform: translateY(8px); }
    100% { opacity: 1; transform: translateY(0); }
  }
  @keyframes badgePop {
    0% { opacity: 0; transform: scale(0.3); }
    70% { opacity: 1; transform: scale(1.1); }
    100% { opacity: 1; transform: scale(1); }
  }
  @keyframes pulseGlow {
    0%, 100% { filter: drop-shadow(0 0 0px rgba(39,45,66,0)); }
    50% { filter: drop-shadow(0 0 12px rgba(39,45,66,0.4)); }
  }
  @keyframes sparkle {
    0%, 100% { opacity: 1; }
    50% { opacity: 0.3; }
  }
  #gauge-needle {
    transform-origin: 240.905px 220.905px;
    animation: needleSweep 2s cubic-bezier(0.22, 1, 0.36, 1) forwards;
  }
  #gauge-arc {
    stroke-dasharray: 600;
    stroke-dashoffset: 600;
    animation: arcDraw 1.8s cubic-bezier(0.4, 0, 0.2, 1) forwards;
  }
  #gauge-score {
    opacity: 0;
    animation: fadeUp 0.6s ease-out 1.6s forwards;
  }
  #gauge-zia {
    opacity: 0;
    animation: fadeUp 0.4s ease-out 1.8s forwards;
  }
  #gauge-badge {
    transform-origin: 240.7px 178.9px;
    opacity: 0;
    animation: badgePop 0.5s cubic-bezier(0.34, 1.56, 0.64, 1) 2s forwards;
  }
  #gauge-delta {
    opacity: 0;
    animation: fadeUp 0.5s ease-out 2.3s forwards;
  }
  #gauge-dark-circle {
    animation: pulseGlow 3s ease-in-out 2.5s infinite;
  }
  #gauge-sparkle-green {
    animation: sparkle 2s ease-in-out 2.2s infinite;
  }
  #gauge-sparkle-red {
    animation: sparkle 2s ease-in-out 2.5s infinite;
  }
</style>
<g clip-path="url(#clip0_693_48744)">
<g filter="url(#filter0_d_693_48744)">
<circle cx="240.905" cy="220.905" r="194.905" fill="white"/>
</g>
<g filter="url(#filter1_d_693_48744)">
<circle cx="240.905" cy="220.905" r="184.077" fill="#F4F4F4"/>
</g>
<circle cx="239.702" cy="222.108" r="181.28" stroke="#CACACA" stroke-width="8" stroke-dasharray="1.5 3"/>
<path d="M82.544 186.801C82.0213 189.238 79.7165 189.381 77.7418 188.957C75.8513 188.552 74.1912 187.251 74.6451 185.134C75.1194 182.923 77.1047 182.58 79.0013 182.932C80.98 183.285 83.0577 184.406 82.544 186.801ZM81.7776 186.609C82.1832 184.719 80.2333 184.179 78.7996 183.872C77.4867 183.59 75.7393 183.721 75.4036 185.286C75.0342 187.008 76.6235 187.717 78.032 188.014C79.5036 188.324 81.3789 188.468 81.7776 186.609ZM93.955 152.433L87.5811 149.466L87.877 151.541L87.0687 151.165L86.7536 149.003L87.1276 148.2L94.3585 151.566L93.955 152.433ZM96.6855 147.136C95.5479 149.353 93.285 148.892 91.4882 147.97C89.7678 147.088 88.5026 145.4 89.4906 143.474C90.5228 141.463 92.5291 141.647 94.2692 142.479C96.0884 143.334 97.8035 144.956 96.6855 147.136ZM95.9953 146.751C96.8779 145.031 95.135 144.004 93.8304 143.335C92.6356 142.722 90.9143 142.394 90.1837 143.818C89.3795 145.385 90.7301 146.483 92.0133 147.135C93.3539 147.817 95.1274 148.443 95.9953 146.751ZM115.388 118.386L115.085 118.13L114.731 113.734C114.668 112.886 114.398 111.975 113.725 111.406C113.008 110.798 112.341 110.846 111.734 111.564C111.064 112.355 111.347 113.277 111.869 114.056L111.152 114.413C110.442 113.356 110.272 112.086 111.139 111.061C112.024 110.015 113.287 109.761 114.341 110.653C115.268 111.437 115.478 112.636 115.531 113.736L115.682 116.834L118.198 113.861L118.792 114.364L115.388 118.386ZM121.736 111.277C120.048 113.11 117.99 112.062 116.504 110.695C115.082 109.385 114.313 107.421 115.779 105.829C117.31 104.165 119.195 104.878 120.65 106.144C122.175 107.454 123.395 109.475 121.736 111.277ZM121.173 110.722C122.483 109.3 121.077 107.845 119.998 106.852C119.011 105.942 117.439 105.167 116.355 106.345C115.162 107.641 116.171 109.059 117.233 110.03C118.343 111.044 119.886 112.121 121.173 110.722ZM146.507 86.8083L146.945 86.1067C147.654 86.6701 148.566 86.8933 149.361 86.3519C150.173 85.7985 150.631 84.973 150.014 84.0675C149.213 82.8912 148.329 83.3694 147.38 84.0166L147.291 84.0771L146.837 83.4113L146.926 83.3508C147.765 82.7792 148.495 82.1908 147.781 81.1433C147.288 80.4198 146.568 80.3645 145.871 80.8393C145.059 81.3928 144.859 82.1009 145.131 83.0337L144.374 83.1725C143.995 81.9875 144.413 80.8838 145.43 80.1913C146.419 79.5168 147.823 79.5354 148.546 80.5963C149.027 81.3021 148.918 82.0585 148.457 82.7365C149.423 82.3707 150.249 82.6662 150.805 83.483C151.709 84.8101 150.983 86.1761 149.82 86.9685C148.817 87.652 147.419 87.6423 146.507 86.8083ZM155.782 83.1015C153.663 84.4143 151.962 82.8523 150.898 81.1357C149.88 79.4921 149.667 77.3938 151.506 76.2537C153.429 75.0626 155.052 76.2553 156.114 77.866C157.231 79.5368 157.863 81.8114 155.782 83.1015ZM155.388 82.4163C157.032 81.3977 156.069 79.6189 155.296 78.3725C154.589 77.2311 153.284 76.0623 151.923 76.9054C150.425 77.8334 151.016 79.4702 151.779 80.691C152.576 81.9665 153.772 83.4178 155.388 82.4163ZM186.272 66.3914L186.148 66.0194L187.757 59.465L188.964 59.0626L190.647 64.1123L191.682 63.7676L191.928 64.5064L190.893 64.8511L191.45 66.5225L190.564 66.818L190.007 65.1466L186.272 66.3914ZM187.141 65.2806L189.761 64.4078L188.307 60.0459L187.141 65.2806ZM196.396 65.1477C193.999 65.8315 192.79 63.8643 192.236 61.9222C191.705 60.0629 192.073 57.9862 194.155 57.3922C196.329 56.7717 197.565 58.3627 198.146 60.2022C198.764 62.1147 198.751 64.4756 196.396 65.1477ZM196.205 64.381C198.064 63.8504 197.624 61.876 197.221 60.466C196.853 59.1748 195.916 57.6937 194.377 58.133C192.683 58.6164 192.804 60.3524 193.204 61.7352C193.622 63.1799 194.376 64.9028 196.205 64.381ZM230.389 57.382L231.147 57.0298C231.405 57.9589 232.017 58.3985 232.988 58.3538C234.12 58.3016 234.678 57.4533 234.63 56.4124C234.582 55.3822 233.959 54.5722 232.897 54.6211C232.188 54.6537 231.57 54.8758 231.129 55.4607L230.721 55.4795L230.527 51.273L234.943 51.0696L234.981 51.8905L231.359 52.0573L231.47 54.4556C231.897 54.0488 232.469 53.8665 233.027 53.8408C234.551 53.7706 235.538 54.8919 235.604 56.3138C235.676 57.8858 234.579 59.0547 233.034 59.1259C231.8 59.1827 230.696 58.6637 230.389 57.382ZM240.05 58.9566C237.558 58.9684 236.925 56.7478 236.915 54.7283C236.906 52.7947 237.821 50.8943 239.985 50.884C242.246 50.8733 243.007 52.7388 243.07 54.6668C243.149 56.6752 242.5 58.9449 240.05 58.9566ZM240.073 58.1669C242.007 58.1577 242.116 56.1376 242.109 54.6714C242.102 53.3286 241.6 51.6498 240 51.6574C238.238 51.6658 237.886 53.3701 237.898 54.8095C237.911 56.3134 238.172 58.1759 240.073 58.1669ZM281.344 57.2447L280.475 57.4032C280.4 56.6528 279.837 56.1541 279.146 55.9952C277.581 55.6353 276.737 57.3647 276.45 58.6105C277.022 57.9925 277.871 57.8461 278.662 58.0278C280.106 58.36 280.925 59.667 280.584 61.1483C280.235 62.6663 278.884 63.4138 277.355 63.0623C275.099 62.5435 275.018 60.6181 275.445 58.765C275.889 56.8335 277.086 54.717 279.4 55.249C280.442 55.4885 281.155 56.1265 281.344 57.2447ZM277.496 62.3287C278.57 62.5754 279.396 61.9552 279.636 60.9083C279.872 59.8824 279.431 58.9709 278.374 58.7277C277.369 58.4966 276.423 59.0175 276.194 60.0121C275.944 61.1008 276.382 62.0723 277.496 62.3287ZM284.106 64.7809C281.704 64.1171 281.695 61.8078 282.233 59.8612C282.748 57.9975 284.144 56.4161 286.23 56.9926C288.41 57.5949 288.637 59.5968 288.175 61.4697C287.707 63.4245 286.466 65.4333 284.106 64.7809ZM284.342 64.027C286.206 64.5421 286.857 62.627 287.248 61.2136C287.606 59.9194 287.577 58.1673 286.034 57.741C284.336 57.2717 283.536 58.817 283.158 60.2059C282.762 61.6569 282.509 63.5206 284.342 64.027ZM317.278 77.9223L323.162 73.0475L319.572 71.0926L319.94 70.4181L324.487 72.8944L324.299 73.2387L318.136 78.3898L317.278 77.9223ZM323.973 81.852C321.835 80.5715 322.443 78.3437 323.481 76.6112C324.474 74.9523 326.241 73.8004 328.098 74.9126C330.038 76.0744 329.722 78.0643 328.778 79.7461C327.806 81.5054 326.074 83.1105 323.973 81.852ZM324.402 81.1885C326.061 82.182 327.2 80.5101 327.953 79.2522C328.643 78.1002 329.083 76.404 327.71 75.5816C326.198 74.6764 325.015 75.9522 324.28 77.1899C323.512 78.4829 322.771 80.2115 324.402 81.1885ZM355.796 100.632C355.446 99.9043 355.514 99.2005 356.056 98.6408C356.975 97.6914 358.416 98.0098 359.246 98.8129C360.079 99.6197 360.441 101.053 359.548 101.976C358.995 102.547 358.286 102.585 357.536 102.301C357.977 103.198 357.919 104.084 357.224 104.802C356.174 105.886 354.639 105.589 353.639 104.621C352.655 103.669 352.262 102.137 353.315 101.048C354.002 100.338 354.901 100.228 355.796 100.632ZM356.777 99.3014C356.202 99.8957 356.383 100.728 356.965 101.293C357.537 101.845 358.252 101.91 358.853 101.288C359.406 100.717 359.263 99.8838 358.719 99.3571C358.175 98.8304 357.345 98.7148 356.777 99.3014ZM354.051 101.693C353.356 102.411 353.513 103.423 354.196 104.084C354.872 104.738 355.834 104.832 356.529 104.114C357.224 103.396 357.076 102.453 356.389 101.788C355.709 101.131 354.742 100.979 354.051 101.693ZM358.519 109.566C356.804 107.757 357.989 105.775 359.454 104.386C360.857 103.055 362.869 102.421 364.358 103.992C365.914 105.633 365.075 107.464 363.713 108.83C362.303 110.263 360.204 111.343 358.519 109.566ZM359.11 109.042C360.44 110.445 361.987 109.141 363.051 108.133C364.026 107.209 364.906 105.693 363.804 104.532C362.592 103.253 361.109 104.164 360.068 105.158C358.981 106.197 357.802 107.662 359.11 109.042ZM381.045 136.314L381.748 136.83C381.193 137.488 381.162 138.313 381.57 139.015C382.403 140.45 384.15 139.79 385.246 139.153L385.269 139.14C384.438 139.12 383.749 138.607 383.333 137.891C382.592 136.614 382.973 135.132 384.306 134.358C385.663 133.57 387.111 134.033 387.907 135.403C389.148 137.54 387.545 138.887 385.854 139.869C384.163 140.85 382.056 141.403 380.899 139.411C380.319 138.412 380.246 137.237 381.045 136.314ZM384.065 137.665C384.564 138.524 385.544 138.875 386.441 138.354C387.411 137.79 387.857 136.805 387.275 135.801C386.722 134.849 385.703 134.677 384.802 135.2C383.896 135.726 383.512 136.713 384.065 137.665ZM384.393 145.743C383.234 143.537 384.913 141.952 386.702 141.013C388.414 140.114 390.522 140.051 391.528 141.967C392.579 143.97 391.273 145.504 389.591 146.448C387.845 147.443 385.531 147.912 384.393 145.743ZM385.104 145.4C386.003 147.112 387.846 146.278 389.144 145.597C390.333 144.973 391.592 143.754 390.848 142.336C390.029 140.777 388.354 141.249 387.082 141.923C385.753 142.627 384.22 143.717 385.104 145.4ZM397.058 177.34L403.831 175.454L402.258 174.069L403.117 173.83L404.76 175.268L404.998 176.122L397.314 178.261L397.058 177.34ZM398.428 183.144C397.85 180.72 399.869 179.598 401.833 179.129C403.714 178.68 405.772 179.139 406.275 181.245C406.799 183.444 405.156 184.609 403.292 185.109C401.355 185.643 398.997 185.526 398.428 183.144ZM399.203 182.987C399.651 184.867 401.643 184.514 403.069 184.174C404.375 183.862 405.896 182.991 405.525 181.435C405.116 179.721 403.376 179.766 401.977 180.105C400.516 180.459 398.761 181.137 399.203 182.987ZM399.975 190.356C399.508 187.908 401.575 186.879 403.559 186.501C405.458 186.138 407.494 186.69 407.9 188.816C408.324 191.037 406.629 192.126 404.745 192.541C402.785 192.986 400.435 192.762 399.975 190.356ZM400.756 190.235C401.118 192.134 403.124 191.871 404.565 191.596C405.883 191.344 407.442 190.544 407.142 188.971C406.811 187.241 405.071 187.207 403.659 187.482C402.182 187.77 400.399 188.367 400.756 190.235Z" fill="black"/>
<path id="gauge-arc" d="M240.905 408.794C136.584 408.794 52.0156 324.226 52.0156 219.905C52.0156 115.584 136.584 31.0156 240.905 31.0156C289.02 31.0156 332.932 49.0052 366.284 78.6251" stroke="url(#paint0_linear_693_48744)" stroke-width="8" stroke-linecap="round"/>
<path id="gauge-needle" d="M265.53 199.85L368.284 80.9865L212.634 199.85L265.53 199.85Z" fill="#AC2001"/>
<g opacity="0.5" filter="url(#filter2_d_693_48744)">
<circle cx="240.906" cy="220.905" r="93.8431" fill="white"/>
</g>
<g filter="url(#filter3_d_693_48744)">
<circle cx="240.905" cy="220.904" r="134" fill="white"/>
</g>
<g id="gauge-dark-circle" filter="url(#filter4_d_693_48744)">
<circle cx="240.905" cy="220.904" r="130" fill="#272D42"/>
</g>
<path id="gauge-score" d="M221.522 125.525H202.135V119.318H230.545V122.381L215.78 159.35H207.795L221.522 125.525ZM240.362 149.205C240.69 150.08 241.127 150.827 241.674 151.447C242.239 152.049 242.877 152.541 243.588 152.924C244.318 153.307 245.092 153.589 245.913 153.771C246.751 153.936 247.608 154.018 248.483 154.018C250.324 154.018 251.819 153.58 252.967 152.705C254.116 151.83 255.009 150.727 255.647 149.396C256.285 148.048 256.713 146.58 256.932 144.994C257.169 143.39 257.288 141.868 257.288 140.428C256.194 142.178 254.763 143.445 252.995 144.229C251.226 145.012 249.294 145.404 247.198 145.404C245.284 145.404 243.515 145.104 241.893 144.502C240.271 143.882 238.858 143.007 237.655 141.877C236.47 140.729 235.54 139.352 234.866 137.748C234.209 136.126 233.881 134.312 233.881 132.307C233.881 130.119 234.273 128.187 235.057 126.51C235.841 124.814 236.917 123.393 238.284 122.244C239.651 121.096 241.255 120.23 243.096 119.646C244.937 119.045 246.906 118.744 249.002 118.744C251.153 118.744 253.031 118.999 254.635 119.51C256.258 120.02 257.652 120.74 258.819 121.67C260.004 122.581 260.979 123.675 261.745 124.951C262.528 126.227 263.148 127.631 263.604 129.162C264.06 130.675 264.379 132.298 264.561 134.029C264.762 135.761 264.862 137.538 264.862 139.361C264.862 142.023 264.588 144.593 264.042 147.072C263.495 149.533 262.583 151.721 261.307 153.635C260.049 155.531 258.381 157.053 256.303 158.201C254.225 159.331 251.646 159.896 248.565 159.896C247.125 159.896 245.676 159.751 244.217 159.459C242.777 159.167 241.419 158.702 240.143 158.064C238.867 157.426 237.719 156.597 236.698 155.576C235.695 154.537 234.92 153.279 234.374 151.803L240.362 149.205ZM248.948 140.154C250.06 140.154 251.081 139.981 252.01 139.635C252.958 139.27 253.769 138.769 254.444 138.131C255.137 137.493 255.674 136.718 256.057 135.807C256.44 134.877 256.631 133.856 256.631 132.744C256.631 131.559 256.467 130.456 256.139 129.436C255.811 128.415 255.328 127.531 254.69 126.783C254.052 126.036 253.259 125.452 252.311 125.033C251.363 124.614 250.269 124.404 249.03 124.404C247.845 124.404 246.778 124.605 245.831 125.006C244.901 125.389 244.108 125.926 243.452 126.619C242.814 127.312 242.321 128.141 241.975 129.107C241.629 130.055 241.456 131.104 241.456 132.252C241.456 133.382 241.62 134.43 241.948 135.396C242.294 136.363 242.786 137.201 243.424 137.912C244.062 138.605 244.846 139.152 245.776 139.553C246.706 139.954 247.763 140.154 248.948 140.154Z" fill="white"/>
<g id="gauge-zia"><path d="M273.882 158.338H270.292C270.057 158.338 269.829 158.274 269.633 158.152C269.45 158.038 269.298 157.876 269.194 157.684C269.09 157.491 269.038 157.276 269.043 157.059C269.048 156.829 269.119 156.603 269.248 156.407L272.11 152.027C272.224 151.853 272.234 151.642 272.137 151.462C272.091 151.378 271.955 151.183 271.668 151.183H269.39C269.196 151.183 269.039 151.026 269.039 150.832C269.039 150.637 269.196 150.48 269.39 150.48H271.668C272.13 150.48 272.536 150.722 272.755 151.127C272.974 151.532 272.952 152.024 272.699 152.412L269.836 156.792C269.725 156.962 269.716 157.17 269.813 157.349C269.909 157.528 270.088 157.635 270.292 157.635H273.882C274.042 157.635 274.189 157.555 274.275 157.421L275.036 156.247L274.297 155.977C273.914 155.867 273.614 155.591 273.474 155.217C273.332 154.838 273.378 154.427 273.601 154.09L275.019 151.91C275.124 151.748 275.342 151.701 275.505 151.807C275.668 151.913 275.714 152.131 275.608 152.294L274.19 154.475C274.189 154.476 274.189 154.476 274.188 154.477C274.09 154.625 274.07 154.804 274.132 154.97C274.194 155.135 274.328 155.257 274.498 155.303C274.508 155.306 274.517 155.309 274.526 155.312L275.428 155.642L277.678 152.166C277.928 151.78 278.365 151.58 278.819 151.642C279.274 151.704 279.642 152.014 279.779 152.452L280.98 156.286C281.05 156.509 281.057 156.745 281.001 156.967C280.947 157.175 280.839 157.369 280.688 157.525C280.537 157.682 280.348 157.797 280.141 157.858C279.921 157.923 279.686 157.925 279.46 157.863C279.451 157.86 279.441 157.857 279.432 157.854L275.713 156.495L274.866 157.804C274.649 158.139 274.281 158.338 273.882 158.338ZM279.658 157.188C279.849 157.235 280.044 157.18 280.182 157.037C280.322 156.891 280.37 156.689 280.309 156.496L279.108 152.662C279.052 152.484 278.909 152.364 278.724 152.338C278.54 152.313 278.369 152.391 278.268 152.548L276.105 155.889L279.658 157.188Z" fill="white"/>
<path id="gauge-sparkle-green" d="M274.057 149.082C275.322 148.803 275.699 148.426 275.979 147.161C275.993 147.096 276.051 147.05 276.117 147.05C276.183 147.05 276.241 147.096 276.256 147.161C276.535 148.426 276.912 148.803 278.177 149.082C278.242 149.097 278.288 149.154 278.288 149.221C278.288 149.287 278.242 149.345 278.177 149.359C276.912 149.639 276.535 150.016 276.256 151.281C276.241 151.346 276.183 151.392 276.117 151.392C276.051 151.392 275.993 151.346 275.979 151.281C275.699 150.016 275.322 149.639 274.057 149.359C273.992 149.345 273.946 149.287 273.946 149.221C273.946 149.154 273.992 149.097 274.057 149.082Z" fill="#089949"/>
<path id="gauge-sparkle-red" d="M276.901 147.398C277.554 147.254 277.749 147.059 277.893 146.405C277.901 146.372 277.931 146.348 277.965 146.348C277.999 146.348 278.029 146.372 278.037 146.405C278.181 147.059 278.376 147.254 279.029 147.398C279.063 147.405 279.086 147.435 279.086 147.47C279.086 147.504 279.063 147.534 279.029 147.541C278.376 147.685 278.181 147.88 278.037 148.534C278.029 148.567 277.999 148.591 277.965 148.591C277.931 148.591 277.901 148.567 277.893 148.534C277.749 147.88 277.554 147.685 276.901 147.541C276.867 147.534 276.844 147.504 276.844 147.47C276.844 147.435 276.867 147.405 276.901 147.398Z" fill="#E42527"/>
</g>
<g id="gauge-badge">
<rect x="194.33" y="168.35" width="92.7647" height="21.1765" rx="10.5882" fill="#DD1616" fill-opacity="0.5"/>
<path d="M205.977 186.703C210.265 186.703 213.741 183.226 213.741 178.938C213.741 174.65 210.265 171.173 205.977 171.173C201.688 171.173 198.212 174.65 198.212 178.938C198.212 183.226 201.688 186.703 205.977 186.703Z" fill="#DD1616"/>
<path d="M208.933 175.85L202.756 182.027M208.933 182.027L202.756 175.85" stroke="white" stroke-width="1.68235" stroke-linecap="round"/>
<path d="M220.279 183.938V173.762H221.878V178.217H226.938V173.762H228.537V183.938H226.938V179.524H221.878V183.938H220.279ZM230.858 183.938V176.508H232.325V183.938H230.858ZM230.657 174.346C230.657 173.845 231.074 173.449 231.574 173.449C232.068 173.449 232.492 173.831 232.492 174.346C232.492 174.846 232.075 175.243 231.574 175.243C231.074 175.243 230.657 174.846 230.657 174.346ZM234.257 184.862L235.425 184.348C235.814 185.217 236.78 185.502 237.656 185.502C239.026 185.502 239.978 184.807 239.978 183.368V182.27C239.457 183.146 238.407 183.667 237.399 183.667C235.307 183.667 234.07 182.02 234.07 180.073C234.07 178.044 235.418 176.348 237.476 176.348C238.483 176.348 239.457 176.751 239.978 177.641V176.487H241.444V183.41C241.444 185.676 239.741 186.67 237.621 186.67C236.245 186.67 234.89 186.253 234.257 184.862ZM237.74 182.499C239.213 182.499 240.02 181.352 240.02 179.941C240.02 178.572 239.262 177.515 237.816 177.515C236.294 177.515 235.578 178.683 235.578 180.08C235.578 181.338 236.405 182.499 237.74 182.499ZM243.662 183.938V172.99H245.142V177.668C245.587 176.744 246.553 176.341 247.568 176.341C249.375 176.341 250.265 177.606 250.265 179.35V183.938H248.785V179.392C248.785 178.224 248.208 177.585 247.082 177.585C245.851 177.585 245.142 178.343 245.142 179.489V183.938H243.662ZM255.256 183.938V173.762H258.745C260.712 173.762 262.429 174.513 262.429 176.737C262.429 178.238 261.477 179.17 260.052 179.483L263.027 183.938H261.289L258.46 179.684H256.834V183.938H255.256ZM256.834 178.502H258.759C259.975 178.502 260.851 178.044 260.851 176.716C260.851 175.368 259.948 175.013 258.759 175.013H256.834V178.502ZM264.528 183.938V176.508H265.995V183.938H264.528ZM264.327 174.346C264.327 173.845 264.744 173.449 265.244 173.449C265.738 173.449 266.162 173.831 266.162 174.346C266.162 174.846 265.745 175.243 265.244 175.243C264.744 175.243 264.327 174.846 264.327 174.346ZM267.67 182.214L268.796 181.721C269.074 182.492 269.825 182.944 270.631 182.944C271.354 182.944 272.125 182.715 272.125 181.915C272.125 181.081 271.284 180.887 270.311 180.664C269.199 180.407 267.906 180.108 267.906 178.516C267.906 177.105 269.296 176.348 270.555 176.348C271.75 176.348 272.827 176.89 273.349 178.002L272.237 178.489C271.924 177.8 271.284 177.481 270.596 177.481C269.971 177.481 269.276 177.745 269.276 178.44C269.276 179.198 270.089 179.364 270.999 179.552C272.181 179.795 273.536 180.08 273.536 181.721C273.536 183.396 272.132 184.077 270.68 184.077C269.352 184.077 268.115 183.507 267.67 182.214ZM275.177 183.938V172.983H276.657V179.816L279.604 176.487H281.252L278.138 179.913L281.509 183.938H279.771L276.657 180.185V183.938H275.177Z" fill="white"/>
</g>
<path id="gauge-delta" opacity="0.8" d="M202.432 204.932V204.072H204.785V204.932H202.432ZM211.423 201.059L210.612 201.408C210.371 200.694 209.71 200.334 209.001 200.334C207.395 200.334 206.96 202.208 206.96 203.487C207.379 202.756 208.174 202.423 208.985 202.423C210.467 202.423 211.558 203.514 211.558 205.034C211.558 206.591 210.408 207.623 208.84 207.623C206.525 207.623 206.015 205.764 206.015 203.863C206.015 201.881 206.708 199.55 209.082 199.55C210.15 199.55 210.988 200.012 211.423 201.059ZM208.813 206.876C209.914 206.876 210.58 206.086 210.58 205.012C210.58 203.959 209.946 203.17 208.861 203.17C207.83 203.17 207.024 203.89 207.024 204.91C207.024 206.027 207.669 206.876 208.813 206.876ZM215.344 209.529V201.773H216.257V202.74C216.66 202.074 217.552 201.671 218.314 201.671C220.06 201.671 220.93 203.025 220.93 204.609C220.93 206.231 220.022 207.623 218.347 207.623C217.514 207.623 216.676 207.279 216.257 206.575V209.529H215.344ZM218.169 206.86C219.544 206.86 219.985 205.818 219.985 204.609C219.985 203.492 219.394 202.434 218.159 202.434C216.811 202.434 216.225 203.465 216.225 204.663C216.225 205.92 216.864 206.86 218.169 206.86ZM224.846 206.709V207.483C224.588 207.563 224.33 207.601 224.056 207.601C223.057 207.601 222.515 207.112 222.515 206.086V202.542H221.688V201.773H222.515V200.694L223.428 200.296V201.773H224.771V202.542H223.428V205.995C223.428 206.484 223.605 206.833 224.18 206.833C224.384 206.833 224.615 206.79 224.846 206.709ZM225.71 206.124L226.414 205.818C226.629 206.479 227.182 206.86 227.875 206.86C228.503 206.86 229.164 206.645 229.164 205.958C229.164 205.265 228.493 205.104 227.762 204.926C226.887 204.717 225.925 204.486 225.925 203.293C225.925 202.278 226.887 201.671 227.843 201.671C228.718 201.671 229.459 202.176 229.878 202.982L229.175 203.293C228.917 202.74 228.391 202.434 227.811 202.434C227.295 202.434 226.774 202.676 226.774 203.267C226.774 203.933 227.435 204.078 228.165 204.233C229.051 204.421 230.034 204.625 230.034 205.834C230.034 207.069 229.003 207.623 227.918 207.623C226.871 207.623 226.043 207.107 225.71 206.124ZM236.012 209.153H235.099C233.858 207.676 233.166 206.033 233.166 204.094C233.166 202.166 233.858 200.484 235.099 199.023H236.012C234.793 200.506 234.122 202.16 234.122 204.083C234.122 206 234.793 207.687 236.012 209.153ZM236.582 205.625L237.339 205.292C237.607 206.156 238.236 206.854 239.197 206.854C240.18 206.854 241.023 206.43 241.023 205.334C241.023 203.911 240.024 203.809 238.875 203.809H238.768V203.003H238.875C239.89 203.003 240.825 202.928 240.825 201.661C240.825 200.785 240.261 200.334 239.417 200.334C238.435 200.334 237.871 200.807 237.57 201.73L236.866 201.419C237.221 200.227 238.188 199.55 239.417 199.55C240.615 199.55 241.765 200.355 241.765 201.639C241.765 202.493 241.249 203.057 240.486 203.358C241.491 203.6 242.006 204.309 242.006 205.297C242.006 206.903 240.637 207.623 239.229 207.623C238.016 207.623 236.866 206.828 236.582 205.625ZM246.513 207.623C244.021 207.623 243.397 205.399 243.397 203.379C243.397 201.446 244.321 199.55 246.486 199.55C248.747 199.55 249.499 201.419 249.553 203.347C249.623 205.356 248.962 207.623 246.513 207.623ZM246.54 206.833C248.473 206.833 248.591 204.813 248.591 203.347C248.591 202.004 248.097 200.323 246.497 200.323C244.735 200.323 244.375 202.026 244.38 203.465C244.386 204.969 244.638 206.833 246.54 206.833ZM257.652 207.526V206.532C257.228 207.198 256.347 207.623 255.568 207.623C253.828 207.623 252.974 206.296 252.974 204.674C252.974 203.079 253.957 201.671 255.644 201.671C256.455 201.671 257.223 201.999 257.652 202.697V199.168H258.565V207.526H257.652ZM255.703 206.86C257.056 206.86 257.685 205.855 257.685 204.593C257.685 203.374 257.099 202.434 255.794 202.434C254.403 202.434 253.919 203.498 253.919 204.717C253.919 205.812 254.483 206.86 255.703 206.86ZM263.609 207.526V206.801C263.195 207.354 262.492 207.623 261.793 207.623C260.773 207.623 259.903 207.048 259.903 205.941C259.903 204.18 262.116 204.147 263.405 204.147H263.609V204.11C263.609 203.122 263.389 202.434 262.255 202.434C261.622 202.434 261.02 202.826 260.816 203.433L260.037 203.095C260.451 202.139 261.315 201.671 262.314 201.671C263.604 201.671 264.522 202.45 264.522 203.755V207.526H263.609ZM263.609 204.797H262.819C262.067 204.797 260.816 204.921 260.816 205.931C260.816 206.634 261.251 206.897 261.869 206.897C262.712 206.897 263.609 206.414 263.609 205.512V204.797ZM266.681 209.529L267.771 206.93L265.548 201.773H266.525L268.255 205.898L269.85 201.773H270.785L267.605 209.529H266.681ZM271.472 206.124L272.176 205.818C272.391 206.479 272.944 206.86 273.637 206.86C274.265 206.86 274.926 206.645 274.926 205.958C274.926 205.265 274.254 205.104 273.524 204.926C272.648 204.717 271.687 204.486 271.687 203.293C271.687 202.278 272.648 201.671 273.604 201.671C274.48 201.671 275.221 202.176 275.64 202.982L274.937 203.293C274.679 202.74 274.152 202.434 273.572 202.434C273.057 202.434 272.536 202.676 272.536 203.267C272.536 203.933 273.196 204.078 273.927 204.233C274.813 204.421 275.796 204.625 275.796 205.834C275.796 207.069 274.765 207.623 273.68 207.623C272.632 207.623 271.805 207.107 271.472 206.124ZM277.241 209.121H276.328C277.531 207.633 278.111 205.963 278.111 204.035C278.111 202.139 277.547 200.474 276.328 198.991H277.241C278.444 200.458 279.067 202.155 279.067 204.062C279.067 205.963 278.449 207.644 277.241 209.121Z" fill="white"/>
</g>
<defs>
<filter id="filter0_d_693_48744" x="6" y="-14" width="469.81" height="469.81" filterUnits="userSpaceOnUse" color-interpolation-filters="sRGB">
<feFlood flood-opacity="0" result="BackgroundImageFix"/>
<feColorMatrix in="SourceAlpha" type="matrix" values="0 0 0 0 0 0 0 0 0 0 0 0 0 0 0 0 0 0 127 0" result="hardAlpha"/>
<feMorphology radius="10" operator="dilate" in="SourceAlpha" result="effect1_dropShadow_693_48744"/>
<feOffset/>
<feGaussianBlur stdDeviation="15"/>
<feComposite in2="hardAlpha" operator="out"/>
<feColorMatrix type="matrix" values="0 0 0 0 0 0 0 0 0 0 0 0 0 0 0 0 0 0 0.5 0"/>
<feBlend mode="normal" in2="BackgroundImageFix" result="effect1_dropShadow_693_48744"/>
<feBlend mode="normal" in="SourceGraphic" in2="effect1_dropShadow_693_48744" result="shape"/>
</filter>
<filter id="filter1_d_693_48744" x="36.8281" y="16.8281" width="408.154" height="408.154" filterUnits="userSpaceOnUse" color-interpolation-filters="sRGB">
<feFlood flood-opacity="0" result="BackgroundImageFix"/>
<feColorMatrix in="SourceAlpha" type="matrix" values="0 0 0 0 0 0 0 0 0 0 0 0 0 0 0 0 0 0 127 0" result="hardAlpha"/>
<feMorphology radius="5" operator="dilate" in="SourceAlpha" result="effect1_dropShadow_693_48744"/>
<feOffset/>
<feGaussianBlur stdDeviation="7.5"/>
<feComposite in2="hardAlpha" operator="out"/>
<feColorMatrix type="matrix" values="0 0 0 0 0 0 0 0 0 0 0 0 0 0 0 0 0 0 0.3 0"/>
<feBlend mode="normal" in2="BackgroundImageFix" result="effect1_dropShadow_693_48744"/>
<feBlend mode="normal" in="SourceGraphic" in2="effect1_dropShadow_693_48744" result="shape"/>
</filter>
<filter id="filter2_d_693_48744" x="133.062" y="113.062" width="215.687" height="215.687" filterUnits="userSpaceOnUse" color-interpolation-filters="sRGB">
<feFlood flood-opacity="0" result="BackgroundImageFix"/>
<feColorMatrix in="SourceAlpha" type="matrix" values="0 0 0 0 0 0 0 0 0 0 0 0 0 0 0 0 0 0 127 0" result="hardAlpha"/>
<feMorphology radius="4" operator="dilate" in="SourceAlpha" result="effect1_dropShadow_693_48744"/>
<feOffset/>
<feGaussianBlur stdDeviation="5"/>
<feComposite in2="hardAlpha" operator="out"/>
<feColorMatrix type="matrix" values="0 0 0 0 0 0 0 0 0 0 0 0 0 0 0 0 0 0 0.1 0"/>
<feBlend mode="normal" in2="BackgroundImageFix" result="effect1_dropShadow_693_48744"/>
<feBlend mode="normal" in="SourceGraphic" in2="effect1_dropShadow_693_48744" result="shape"/>
</filter>
<filter id="filter3_d_693_48744" x="92.9053" y="72.9043" width="296" height="296" filterUnits="userSpaceOnUse" color-interpolation-filters="sRGB">
<feFlood flood-opacity="0" result="BackgroundImageFix"/>
<feColorMatrix in="SourceAlpha" type="matrix" values="0 0 0 0 0 0 0 0 0 0 0 0 0 0 0 0 0 0 127 0" result="hardAlpha"/>
<feMorphology radius="4" operator="dilate" in="SourceAlpha" result="effect1_dropShadow_693_48744"/>
<feOffset/>
<feGaussianBlur stdDeviation="5"/>
<feComposite in2="hardAlpha" operator="out"/>
<feColorMatrix type="matrix" values="0 0 0 0 0 0 0 0 0 0 0 0 0 0 0 0 0 0 0.1 0"/>
<feBlend mode="normal" in2="BackgroundImageFix" result="effect1_dropShadow_693_48744"/>
<feBlend mode="normal" in="SourceGraphic" in2="effect1_dropShadow_693_48744" result="shape"/>
</filter>
<filter id="filter4_d_693_48744" x="96.9053" y="76.9043" width="288" height="288" filterUnits="userSpaceOnUse" color-interpolation-filters="sRGB">
<feFlood flood-opacity="0" result="BackgroundImageFix"/>
<feColorMatrix in="SourceAlpha" type="matrix" values="0 0 0 0 0 0 0 0 0 0 0 0 0 0 0 0 0 0 127 0" result="hardAlpha"/>
<feMorphology radius="4" operator="dilate" in="SourceAlpha" result="effect1_dropShadow_693_48744"/>
<feOffset/>
<feGaussianBlur stdDeviation="5"/>
<feComposite in2="hardAlpha" operator="out"/>
<feColorMatrix type="matrix" values="0 0 0 0 0 0 0 0 0 0 0 0 0 0 0 0 0 0 0.1 0"/>
<feBlend mode="normal" in2="BackgroundImageFix" result="effect1_dropShadow_693_48744"/>
<feBlend mode="normal" in="SourceGraphic" in2="effect1_dropShadow_693_48744" result="shape"/>
</filter>
<linearGradient id="paint0_linear_693_48744" x1="429.794" y1="182.275" x2="52.0156" y2="185.226" gradientUnits="userSpaceOnUse">
<stop stop-color="#820000"/>
<stop offset="0.504808" stop-color="#FF5E00"/>
<stop offset="1" stop-color="#FFE600"/>
</linearGradient>
<clipPath id="clip0_693_48744">
<rect width="481" height="221" fill="white"/>
</clipPath>
</defs>
</svg>
