<svg width="14" height="14" viewBox="0 0 14 14" fill="none" xmlns="http://www.w3.org/2000/svg">
<path d="M3.67068 8.99952V2.37891H2.01562V8.99952" stroke="black" stroke-width="0.8" stroke-linecap="round" stroke-linejoin="round"/>
<path d="M6.78591 8.9985V5.9375H5.13086V8.9985" stroke="black" stroke-width="0.8" stroke-linecap="round" stroke-linejoin="round"/>
<path d="M10.9988 4.93365V2.39453H9.36523V4.93365" stroke="black" stroke-width="0.8" stroke-linecap="round" stroke-linejoin="round"/>
<path d="M9.78192 10.3545H1.49523C1.21205 10.3548 0.940344 10.2383 0.739812 10.0305C0.539281 9.82278 0.426332 9.54081 0.425781 9.24657V1.65484C0.426332 1.3606 0.539281 1.07863 0.739812 0.870877C0.940344 0.663125 1.21205 0.546589 1.49523 0.546876L12.5048 0.546876C12.7879 0.546589 13.0596 0.663125 13.2602 0.870877C13.4607 1.07863 13.5737 1.3606 13.5742 1.65484V5.36494" stroke="black" stroke-width="0.8" stroke-linecap="round" stroke-linejoin="round"/>
<path d="M5.71484 10.5859V13.2215" stroke="black" stroke-width="0.8" stroke-linecap="round" stroke-linejoin="round"/>
<path d="M4.35742 13.4531H10.2168" stroke="black" stroke-width="0.8" stroke-linecap="round" stroke-linejoin="round"/>
<path d="M11.4677 7.16606C11.0759 6.75802 10.5764 6.47994 10.0324 6.36701C9.4884 6.25407 8.9244 6.31137 8.41176 6.53164C7.89913 6.75191 7.46092 7.12525 7.15259 7.60441C6.84426 8.08357 6.67969 8.647 6.67969 9.22339C6.67969 9.79979 6.84426 10.3632 7.15259 10.8424C7.46092 11.3215 7.89913 11.6949 8.41176 11.9151C8.9244 12.1354 9.4884 12.1927 10.0324 12.0798C10.5764 11.9668 11.0759 11.6888 11.4677 11.2807C11.992 10.7347 12.2865 9.99477 12.2865 9.22339C12.2865 8.45202 11.992 7.71213 11.4677 7.16606Z" fill="white" stroke="black" stroke-width="0.8" stroke-linecap="round" stroke-linejoin="round"/>
<path d="M12.1402 10.875L13.3373 12.0617C13.4123 12.1365 13.472 12.2263 13.5128 12.3257C13.5535 12.425 13.5746 12.5319 13.5746 12.64C13.5746 12.748 13.5535 12.8549 13.5128 12.9543C13.472 13.0536 13.4123 13.1434 13.3373 13.2182C13.1831 13.37 12.9787 13.4545 12.7663 13.4545C12.5538 13.4545 12.3495 13.37 12.1952 13.2182L10.998 12.0315" stroke="black" stroke-width="0.8" stroke-linecap="round" stroke-linejoin="round"/>
</svg>
