<svg width="12" height="12" viewBox="0 0 12 12" fill="none" xmlns="http://www.w3.org/2000/svg">
<path d="M4.84384 12.0012H1.25324C1.01813 12.0012 0.79041 11.9369 0.5948 11.8152C0.411262 11.7011 0.259368 11.539 0.155293 11.3466C0.0513344 11.1543 -0.000937615 10.9384 0.00410207 10.7223C0.00949335 10.492 0.0804005 10.2663 0.209205 10.0695L3.07175 5.68965C3.18567 5.51572 3.19539 5.30453 3.098 5.12439C3.05276 5.0407 2.91657 4.84615 2.62931 4.84615H0.351606C0.157402 4.84615 0 4.68875 0 4.49454C0 4.30034 0.157402 4.14294 0.351606 4.14294H2.62931C3.09108 4.14294 3.49754 4.38484 3.71659 4.79001C3.93552 5.19506 3.91384 5.68731 3.66022 6.07466L0.797676 10.4545C0.6861 10.6249 0.67731 10.8333 0.774001 11.0123C0.870693 11.1912 1.04989 11.298 1.25324 11.298H4.84384C5.00323 11.298 5.15009 11.2181 5.23682 11.0843L5.9971 9.90997L5.25885 9.64018C4.87548 9.53024 4.57591 9.25376 4.43539 8.87954C4.29322 8.50086 4.33952 8.0903 4.56232 7.75287L5.97999 5.57315C6.08583 5.41036 6.3037 5.36418 6.4665 5.47013C6.62929 5.57597 6.67547 5.79384 6.56952 5.95664L5.15114 8.13753C5.15056 8.13835 5.15009 8.13917 5.1495 8.13999C5.05187 8.28743 5.0316 8.46687 5.09371 8.63236C5.15583 8.79785 5.28932 8.91962 5.45985 8.96627C5.46923 8.96884 5.47849 8.97177 5.48763 8.97517L6.38915 9.30463L8.63954 5.82854C8.88894 5.44329 9.32634 5.24253 9.78085 5.30453C10.2355 5.36653 10.6031 5.67699 10.7404 6.11486L11.9418 9.94865C12.0118 10.172 12.0188 10.4075 11.962 10.6297C11.9087 10.8383 11.8005 11.0314 11.6494 11.1882C11.4982 11.345 11.3092 11.46 11.1027 11.5209C10.8827 11.5858 10.6471 11.5875 10.4214 11.5256C10.412 11.523 10.4027 11.5201 10.3936 11.5167L6.67465 10.1576L5.82728 11.4665C5.61046 11.8014 5.24268 12.0012 4.84384 12.0012ZM10.6194 10.8505C10.8107 10.8983 11.0056 10.8426 11.1431 10.6999C11.2836 10.5542 11.3313 10.3519 11.2708 10.1588L10.0694 6.325C10.0137 6.14732 9.87039 6.02637 9.68592 6.00117C9.50144 5.97609 9.33091 6.05427 9.22977 6.21061L7.06645 9.55204L10.6194 10.8505Z" fill="white"/>
<path d="M5.01847 2.74507C6.28331 2.46566 6.66058 2.08839 6.93999 0.823549C6.95429 0.758736 7.01219 0.712676 7.07853 0.712676C7.14486 0.712676 7.20276 0.758736 7.21706 0.823549C7.49647 2.08839 7.87374 2.46566 9.13858 2.74507C9.2034 2.75937 9.24946 2.81727 9.24946 2.88361C9.24946 2.94994 9.2034 3.00784 9.13858 3.02214C7.87374 3.30155 7.49647 3.67882 7.21706 4.94366C7.20276 5.00848 7.14486 5.05454 7.07853 5.05454C7.01219 5.05454 6.95429 5.00848 6.93999 4.94366C6.66058 3.67882 6.28331 3.30155 5.01847 3.02214C4.95366 3.00784 4.9076 2.94994 4.9076 2.88361C4.9076 2.81727 4.95366 2.75937 5.01847 2.74507Z" fill="#089949"/>
<path d="M7.86226 1.06076C8.51554 0.916488 8.71045 0.721582 8.85472 0.0682981C8.8621 0.0347783 8.89199 0.0109863 8.92633 0.0109863C8.96067 0.0109863 8.99056 0.0347783 8.99794 0.0682981C9.14222 0.721582 9.33712 0.916488 9.99041 1.06076C10.0239 1.06815 10.0477 1.09803 10.0477 1.13237C10.0477 1.16671 10.0239 1.1966 9.99041 1.20398C9.33712 1.34826 9.14222 1.54317 8.99794 2.19645C8.99056 2.22997 8.96067 2.25376 8.92633 2.25376C8.89199 2.25376 8.8621 2.22997 8.85472 2.19645C8.71045 1.54317 8.51554 1.34826 7.86226 1.20398C7.82874 1.1966 7.80494 1.16671 7.80494 1.13237C7.80494 1.09803 7.82874 1.06815 7.86226 1.06076Z" fill="#E42527"/>
</svg>
