<svg width="14" height="14" viewBox="0 0 14 14" fill="none" xmlns="http://www.w3.org/2000/svg">
<path d="M7 0C5.61553 0 4.26216 0.410543 3.11101 1.17971C1.95987 1.94888 1.06266 3.04213 0.532846 4.32122C0.00303297 5.6003 -0.13559 7.00777 0.134506 8.36563C0.404603 9.7235 1.07129 10.9708 2.05026 11.9497C3.02922 12.9287 4.2765 13.5954 5.63437 13.8655C6.99224 14.1356 8.3997 13.997 9.67879 13.4672C10.9579 12.9373 12.0511 12.0401 12.8203 10.889C13.5895 9.73785 14 8.38447 14 7C14 5.14348 13.2625 3.36301 11.9498 2.05025C10.637 0.737498 8.85652 0 7 0ZM6.86875 1.88125C7.52413 1.84538 6.1005 1.90663 6.75675 1.88125C6.79409 1.88125 6.83142 1.88125 6.86875 1.88125Z" fill="#0098C5"/>
<path d="M6.3385 10.8806C6.3385 11.0867 6.42037 11.2843 6.56608 11.43C6.7118 11.5758 6.90943 11.6576 7.1155 11.6576C7.32158 11.6576 7.51921 11.5758 7.66493 11.43C7.81064 11.2843 7.8925 11.0867 7.8925 10.8806V6.53013C7.8925 6.32405 7.81064 6.12642 7.66493 5.9807C7.51921 5.83499 7.32158 5.75313 7.1155 5.75313C6.90943 5.75313 6.7118 5.83499 6.56608 5.9807C6.42037 6.12642 6.3385 6.32405 6.3385 6.53013V10.8806ZM7.1155 2.33362C6.88499 2.33362 6.65965 2.40198 6.46799 2.53005C6.27632 2.65811 6.12694 2.84014 6.03872 3.05311C5.95051 3.26607 5.92743 3.50042 5.9724 3.7265C6.01737 3.95259 6.12837 4.16026 6.29137 4.32326C6.45437 4.48626 6.66204 4.59726 6.88813 4.64223C7.11421 4.6872 7.34855 4.66412 7.56152 4.57591C7.77449 4.48769 7.95651 4.33831 8.08458 4.14664C8.21265 3.95498 8.281 3.72964 8.281 3.49913C8.28112 3.346 8.25106 3.19434 8.19254 3.05284C8.13402 2.91133 8.04818 2.78275 7.93994 2.67443C7.83171 2.56611 7.70318 2.48018 7.56172 2.42155C7.42026 2.36293 7.26863 2.33362 7.1155 2.33362Z" fill="white"/>
</svg>
