<svg width="48" height="48" viewBox="0 0 48 48" fill="none" xmlns="http://www.w3.org/2000/svg">
<g clip-path="url(#clip0_671_41165)">
<path d="M19.7905 1.11914L19.549 1.26741C19.1648 1.50326 18.8028 1.76697 18.465 2.05511L19.1617 1.5578H25.075L26.15 9.81818L20.775 15.2727L15.4 19.0641V23.4359C15.4 26.4893 16.9726 29.3208 19.5467 30.902L25.2052 34.3777L13.25 41.4548H10.9442L6.64667 38.815C4.07257 37.2338 2.5 34.4024 2.5 31.3489V16.6479C2.5 13.5935 4.07357 10.7613 6.64898 9.18044L19.549 1.26204C19.6289 1.21297 19.7095 1.16534 19.7905 1.11914Z" fill="url(#paint0_radial_671_41165)"/>
<path d="M19.7905 1.11914L19.549 1.26741C19.1648 1.50326 18.8028 1.76697 18.465 2.05511L19.1617 1.5578H25.075L26.15 9.81818L20.775 15.2727L15.4 19.0641V23.4359C15.4 26.4893 16.9726 29.3208 19.5467 30.902L25.2052 34.3777L13.25 41.4548H10.9442L6.64667 38.815C4.07257 37.2338 2.5 34.4024 2.5 31.3489V16.6479C2.5 13.5935 4.07357 10.7613 6.64898 9.18044L19.549 1.26204C19.6289 1.21297 19.7095 1.16534 19.7905 1.11914Z" fill="url(#paint1_linear_671_41165)"/>
<path d="M32.5997 18.5449V23.4325C32.5997 26.486 31.027 29.3174 28.4529 30.8986L15.5529 38.8225C12.914 40.4435 9.63066 40.502 6.94531 38.998L19.5462 46.7384C22.2838 48.42 25.7152 48.42 28.4529 46.7384L41.353 38.8143C43.927 37.2332 45.4995 34.4017 45.4995 31.3483V27.8176L44.4245 26.1813L32.5997 18.5449Z" fill="url(#paint2_radial_671_41165)"/>
<path d="M32.5997 18.5449V23.4325C32.5997 26.486 31.027 29.3174 28.4529 30.8986L15.5529 38.8225C12.914 40.4435 9.63066 40.502 6.94531 38.998L19.5462 46.7384C22.2838 48.42 25.7152 48.42 28.4529 46.7384L41.353 38.8143C43.927 37.2332 45.4995 34.4017 45.4995 31.3483V27.8176L44.4245 26.1813L32.5997 18.5449Z" fill="url(#paint3_linear_671_41165)"/>
<path d="M41.3514 9.18015L28.4514 1.26176C25.7997 -0.365948 22.4976 -0.41637 19.8056 1.11049L19.5494 1.2678C16.974 2.84866 15.4004 5.68081 15.4004 8.73528V19.0814L19.5494 16.5345C22.2859 14.8548 25.7149 14.8548 28.4514 16.5345L41.3514 24.4529C43.8463 25.9844 45.4011 28.6901 45.4958 31.6346C45.4989 31.5394 45.5004 31.4442 45.5004 31.3486V16.6476C45.5004 13.5932 43.9268 10.761 41.3514 9.18015Z" fill="url(#paint4_radial_671_41165)"/>
<path d="M41.3514 9.18015L28.4514 1.26176C25.7997 -0.365948 22.4976 -0.41637 19.8056 1.11049L19.5494 1.2678C16.974 2.84866 15.4004 5.68081 15.4004 8.73528V19.0814L19.5494 16.5345C22.2859 14.8548 25.7149 14.8548 28.4514 16.5345L41.3514 24.4529C43.8463 25.9844 45.4011 28.6901 45.4958 31.6346C45.4989 31.5394 45.5004 31.4442 45.5004 31.3486V16.6476C45.5004 13.5932 43.9268 10.761 41.3514 9.18015Z" fill="url(#paint5_linear_671_41165)"/>
</g>
<defs>
<radialGradient id="paint0_radial_671_41165" cx="0" cy="0" r="1" gradientTransform="matrix(-12.5777 34.0876 -58.5888 -22.2627 16.925 9.4236)" gradientUnits="userSpaceOnUse">
<stop offset="0.06441" stop-color="#AE7FE2"/>
<stop offset="1" stop-color="#0078D4"/>
</radialGradient>
<linearGradient id="paint1_linear_671_41165" x1="17.0253" y1="39.1293" x2="11.7941" y2="30.2135" gradientUnits="userSpaceOnUse">
<stop stop-color="#114A8B"/>
<stop offset="1" stop-color="#0078D4" stop-opacity="0"/>
</linearGradient>
<radialGradient id="paint2_radial_671_41165" cx="0" cy="0" r="1" gradientTransform="matrix(33.0238 -4.92908 3.2085 22.1373 9.41179 37.4734)" gradientUnits="userSpaceOnUse">
<stop offset="0.133928" stop-color="#D59DFF"/>
<stop offset="1" stop-color="#5E438F"/>
</radialGradient>
<linearGradient id="paint3_linear_671_41165" x1="41.583" y1="25.5014" x2="35.99" y2="33.4041" gradientUnits="userSpaceOnUse">
<stop stop-color="#493474"/>
<stop offset="1" stop-color="#8C66BA" stop-opacity="0"/>
</linearGradient>
<radialGradient id="paint4_radial_671_41165" cx="0" cy="0" r="1" gradientTransform="matrix(-25.9702 -6.68242 11.0852 -44.3654 42.3347 26.7315)" gradientUnits="userSpaceOnUse">
<stop offset="0.0584996" stop-color="#50E6FF"/>
<stop offset="1" stop-color="#436DCD"/>
</radialGradient>
<linearGradient id="paint5_linear_671_41165" x1="16.4494" y1="1.15242" x2="24.5237" y2="1.15242" gradientUnits="userSpaceOnUse">
<stop stop-color="#2D3F80"/>
<stop offset="1" stop-color="#436DCD" stop-opacity="0"/>
</linearGradient>
<clipPath id="clip0_671_41165">
<rect width="43" height="48" fill="white" transform="translate(2.5)"/>
</clipPath>
</defs>
</svg>