<svg width="14" height="14" viewBox="0 0 14 14" fill="none" xmlns="http://www.w3.org/2000/svg">
<g clip-path="url(#clip0_681_42894)">
<path d="M7 14C10.866 14 14 10.866 14 7C14 3.13401 10.866 0 7 0C3.13401 0 0 3.13401 0 7C0 10.866 3.13401 14 7 14Z" fill="#DD1616"/>
<path d="M9.41369 9.4137C9.69244 9.13494 9.69837 8.67827 9.41369 8.39359L5.60862 4.58851C5.32987 4.30976 4.87319 4.30383 4.58851 4.58851C4.30383 4.8732 4.30383 5.32394 4.58851 5.60862L8.39358 9.4137C8.67233 9.69245 9.12901 9.69838 9.41369 9.4137Z" fill="white"/>
<path d="M4.58853 9.41369C4.86728 9.69244 5.32395 9.69837 5.60863 9.41369L9.41371 5.60862C9.69246 5.32987 9.69839 4.87319 9.41371 4.58851C9.12903 4.30383 8.67828 4.30383 8.3936 4.58851L4.58853 8.39358C4.30977 8.67233 4.30384 9.12901 4.58853 9.41369Z" fill="white"/>
</g>
<defs>
<clipPath id="clip0_681_42894">
<rect width="14" height="14" fill="white"/>
</clipPath>
</defs>
</svg>
