<svg width="16" height="16" viewBox="0 0 16 16" fill="none" xmlns="http://www.w3.org/2000/svg">
<g clip-path="url(#clip0_678_25650)">
<path d="M9.55227 1.78L15.7723 12.76C16.4423 13.95 15.5823 15.41 14.2223 15.41H1.78227C0.42227 15.41 -0.43773 13.94 0.23227 12.76L6.46227 1.78C7.14227 0.580005 8.87227 0.580005 9.55227 1.78Z" fill="#AC6602"/>
<path d="M8.00313 12.69C8.58302 12.69 9.05313 12.2199 9.05313 11.64C9.05313 11.0601 8.58302 10.59 8.00313 10.59C7.42323 10.59 6.95312 11.0601 6.95312 11.64C6.95312 12.2199 7.42323 12.69 8.00313 12.69Z" fill="white"/>
<path d="M8.00063 9.45999C8.47063 9.45999 8.86062 9.07999 8.86062 8.59999V4.46999C8.86062 3.99999 8.48063 3.60999 8.00063 3.60999C7.52063 3.60999 7.14062 3.98999 7.14062 4.46999V8.59999C7.14062 9.06999 7.52063 9.45999 8.00063 9.45999Z" fill="white"/>
</g>
<defs>
<clipPath id="clip0_678_25650">
<rect width="16" height="16" fill="white"/>
</clipPath>
</defs>
</svg>
