<svg width="40" height="41" viewBox="0 0 40 41" fill="none" xmlns="http://www.w3.org/2000/svg">
<circle cx="20.0052" cy="20.1576" r="19.4935" fill="#E9E9E9" stroke="#C4C4C4"/>
<mask id="mask0_570_51512" style="mask-type:alpha" maskUnits="userSpaceOnUse" x="0" y="0" width="41" height="41">
<circle cx="20.0117" cy="20.1631" r="20" fill="#939393"/>
</mask>
<g mask="url(#mask0_570_51512)">
<path d="M13.4434 26.9209H26.5732C28.5389 26.921 30.4273 27.6658 31.8213 28.9941C33.2155 30.323 34.001 32.1282 34.001 34.0127V37.1406C34.0008 37.5957 33.6205 37.9756 33.1377 37.9756L33.0488 37.9707C32.6092 37.9271 32.2746 37.5669 32.2744 37.1406V34.0127C32.2744 32.579 31.6771 31.2012 30.6094 30.1836C29.5413 29.1658 28.0895 28.5909 26.5732 28.5908H13.4434C11.9272 28.5909 10.4753 29.1658 9.40723 30.1836C8.3398 31.2011 7.74219 32.5792 7.74219 34.0127V37.125L7.72266 37.3135C7.64117 37.6871 7.29859 37.9756 6.87891 37.9756C6.45909 37.9756 6.11452 37.6873 6.0332 37.3135L6.01562 37.125V34.0127C6.01563 32.1284 6.80132 30.323 8.19531 28.9941C9.58927 27.6659 11.4778 26.921 13.4434 26.9209ZM20.0088 10.1738C23.805 10.1741 26.8798 13.2312 26.8799 16.999C26.8799 20.7669 23.805 23.824 20.0088 23.8242C16.2123 23.8242 13.1367 20.7671 13.1367 16.999C13.1368 13.2311 16.2124 10.1738 20.0088 10.1738ZM20.0088 11.6953C17.063 11.6953 14.672 14.0684 14.6719 16.999C14.6719 19.9298 17.063 22.3027 20.0088 22.3027C22.9544 22.3025 25.3447 19.9296 25.3447 16.999C25.3446 14.0685 22.9543 11.6956 20.0088 11.6953Z" fill="#C4C4C4" stroke="#C4C4C4" stroke-width="0.5"/>
</g>
</svg>
