<svg width="14" height="14" viewBox="0 0 14 14" fill="none" xmlns="http://www.w3.org/2000/svg">
<path d="M6.86438 9.44569L3.52914 5.70029C3.51231 5.6827 3.50212 5.65982 3.5003 5.63555C3.49847 5.61129 3.50513 5.58714 3.51913 5.56724C3.53672 5.54512 3.55932 5.5275 3.58507 5.51585C3.61081 5.50419 3.63896 5.49883 3.66719 5.50021H10.3367C10.3649 5.49906 10.3931 5.50474 10.4186 5.51675C10.4442 5.52877 10.4666 5.54677 10.4837 5.56924C10.4964 5.58668 10.503 5.60773 10.5027 5.62926C10.502 5.65567 10.4917 5.68091 10.4737 5.70029L7.13849 9.44569C7.10138 9.48058 7.05237 9.5 7.00144 9.5C6.9505 9.5 6.90149 9.48058 6.86438 9.44569Z" fill="black"/>
</svg>
