<svg width="42" height="24" viewBox="0 0 42 24" fill="none" xmlns="http://www.w3.org/2000/svg">
<path d="M0 2C0 0.89543 0.895431 0 2 0H40C41.1046 0 42 0.895431 42 2V22C42 23.1046 41.1046 24 40 24H2C0.89543 24 0 23.1046 0 22V2Z" fill="white"/>
<path d="M16.0556 6H5.94444C5.1467 6 4.5 6.59695 4.5 7.33333V16.6667C4.5 17.403 5.1467 18 5.94444 18H16.0556C16.8533 18 17.5 17.403 17.5 16.6667V7.33333C17.5 6.59695 16.8533 6 16.0556 6Z" stroke="black" stroke-linecap="round" stroke-linejoin="round"/>
<path d="M4.5 10H17.5" stroke="black" stroke-linecap="round" stroke-linejoin="round"/>
<path d="M4.5 14H17.5" stroke="black" stroke-linecap="round" stroke-linejoin="round"/>
<path d="M8.83594 10V18" stroke="black" stroke-linecap="round" stroke-linejoin="round"/>
<path d="M13.1641 10V18" stroke="black" stroke-linecap="round" stroke-linejoin="round"/>
<path d="M27 11L31 15L35 11" stroke="black" stroke-linecap="round" stroke-linejoin="round"/>
</svg>
