<svg width="48" height="48" viewBox="0 0 48 48" fill="none" xmlns="http://www.w3.org/2000/svg">
<g clip-path="url(#clip0_671_41096)">
<g clip-path="url(#clip1_671_41096)">
<path fill-rule="evenodd" clip-rule="evenodd" d="M24 0.5C28.6479 0.5 33.1913 1.87825 37.0559 4.46046C40.9205 7.04267 43.9325 10.7129 45.7112 15.0069C47.4898 19.301 47.9552 24.0261 47.0485 28.5846C46.1417 33.1432 43.9035 37.3305 40.617 40.617C37.3305 43.9035 33.1432 46.1417 28.5846 47.0485C24.0261 47.9552 19.301 47.4898 15.0069 45.7112C10.7129 43.9325 7.04268 40.9205 4.46046 37.0559C1.87825 33.1913 0.5 28.6479 0.5 24C0.5 17.7674 2.9759 11.7901 7.383 7.38299C11.7901 2.97588 17.7674 0.5 24 0.5Z" fill="#F9B54C"/>
<path d="M12.6348 37.0877L33.0386 10.623L47.388 21.6861C47.4627 22.4478 47.5003 23.219 47.5008 24C47.501 29.8822 45.2951 35.5506 41.319 39.8854C37.343 44.2203 31.8858 46.9064 26.0254 47.4132L12.6348 37.0877Z" fill="#F6A300"/>
<path fill-rule="evenodd" clip-rule="evenodd" d="M12.793 37.0154V14.9615H17.1314V10.623H33.0391V37.0154H12.793Z" fill="#E9EFF4"/>
<path opacity="0.502" fill-rule="evenodd" clip-rule="evenodd" d="M22.5547 37.0154V10.623H33.0393V37.0154H22.5547Z" fill="#CFDBE6"/>
<path fill-rule="evenodd" clip-rule="evenodd" d="M15.3223 33.038V32.315H22.553V33.038H15.3223ZM15.3223 29.7842H22.553V30.5073H15.3223V29.7842ZM15.3223 27.2534H22.553V27.9765H15.3223V27.2534ZM15.3223 24.7227H22.553V25.4457H15.3223V24.7227Z" fill="#B2B3B5"/>
<path fill-rule="evenodd" clip-rule="evenodd" d="M22.5547 33.038V32.315H30.5085V33.038H22.5547ZM22.5547 29.7842H30.5085V30.5073H22.5547V29.7842ZM22.5547 27.2534H30.5085V27.9765H22.5547V27.2534ZM22.5547 24.7227H30.5085V25.4457H22.5547V24.7227Z" fill="#747474"/>
<path d="M16.6992 21.4922H14.7578V20.9844H15.3711V19.4473H14.7578V18.9727C14.8516 18.9727 14.9414 18.9674 15.0273 18.957C15.1133 18.9453 15.1849 18.9258 15.2422 18.8984C15.3099 18.8659 15.3607 18.8236 15.3945 18.7715C15.4284 18.7194 15.4479 18.6543 15.4531 18.5762H16.0996V20.9844H16.6992V21.4922ZM19.707 20.0371C19.707 20.2819 19.6849 20.5013 19.6406 20.6953C19.5964 20.888 19.5273 21.0462 19.4336 21.1699C19.3372 21.2962 19.2135 21.3919 19.0625 21.457C18.9115 21.5208 18.7253 21.5527 18.5039 21.5527C18.2865 21.5527 18.1009 21.5202 17.9473 21.4551C17.7936 21.39 17.6693 21.2936 17.5742 21.166C17.4779 21.0384 17.4082 20.8802 17.3652 20.6914C17.3223 20.5013 17.3008 20.2839 17.3008 20.0391C17.3008 19.7865 17.3229 19.5671 17.3672 19.3809C17.4115 19.1947 17.4818 19.0371 17.5781 18.9082C17.6745 18.7806 17.7995 18.6849 17.9531 18.6211C18.1068 18.5573 18.2904 18.5254 18.5039 18.5254C18.7266 18.5254 18.9134 18.5586 19.0645 18.625C19.2155 18.6901 19.3392 18.7878 19.4355 18.918C19.5306 19.0456 19.5996 19.2031 19.6426 19.3906C19.6855 19.5768 19.707 19.7923 19.707 20.0371ZM18.9512 20.0371C18.9512 19.6855 18.9167 19.4355 18.8477 19.2871C18.7786 19.1374 18.6641 19.0625 18.5039 19.0625C18.3438 19.0625 18.2292 19.1374 18.1602 19.2871C18.0911 19.4355 18.0566 19.6868 18.0566 20.041C18.0566 20.3861 18.0918 20.6348 18.1621 20.7871C18.2324 20.9395 18.3464 21.0156 18.5039 21.0156C18.6615 21.0156 18.7754 20.9395 18.8457 20.7871C18.916 20.6348 18.9512 20.3848 18.9512 20.0371ZM22.3867 21.4922H20.4453V20.9844H21.0586V19.4473H20.4453V18.9727C20.5391 18.9727 20.6289 18.9674 20.7148 18.957C20.8008 18.9453 20.8724 18.9258 20.9297 18.8984C20.9974 18.8659 21.0482 18.8236 21.082 18.7715C21.1159 18.7194 21.1354 18.6543 21.1406 18.5762H21.7871V20.9844H22.3867V21.4922ZM25.2305 21.4922H23.2891V20.9844H23.9023V19.4473H23.2891V18.9727C23.3828 18.9727 23.4727 18.9674 23.5586 18.957C23.6445 18.9453 23.7161 18.9258 23.7734 18.8984C23.8411 18.8659 23.8919 18.8236 23.9258 18.7715C23.9596 18.7194 23.9792 18.6543 23.9844 18.5762H24.6309V20.9844H25.2305V21.4922ZM28.2383 20.0371C28.2383 20.2819 28.2161 20.5013 28.1719 20.6953C28.1276 20.888 28.0586 21.0462 27.9648 21.1699C27.8685 21.2962 27.7448 21.3919 27.5938 21.457C27.4427 21.5208 27.2565 21.5527 27.0352 21.5527C26.8177 21.5527 26.6322 21.5202 26.4785 21.4551C26.3249 21.39 26.2005 21.2936 26.1055 21.166C26.0091 21.0384 25.9395 20.8802 25.8965 20.6914C25.8535 20.5013 25.832 20.2839 25.832 20.0391C25.832 19.7865 25.8542 19.5671 25.8984 19.3809C25.9427 19.1947 26.013 19.0371 26.1094 18.9082C26.2057 18.7806 26.3307 18.6849 26.4844 18.6211C26.638 18.5573 26.8216 18.5254 27.0352 18.5254C27.2578 18.5254 27.4447 18.5586 27.5957 18.625C27.7467 18.6901 27.8704 18.7878 27.9668 18.918C28.0618 19.0456 28.1309 19.2031 28.1738 19.3906C28.2168 19.5768 28.2383 19.7923 28.2383 20.0371ZM27.4824 20.0371C27.4824 19.6855 27.4479 19.4355 27.3789 19.2871C27.3099 19.1374 27.1953 19.0625 27.0352 19.0625C26.875 19.0625 26.7604 19.1374 26.6914 19.2871C26.6224 19.4355 26.5879 19.6868 26.5879 20.041C26.5879 20.3861 26.623 20.6348 26.6934 20.7871C26.7637 20.9395 26.8776 21.0156 27.0352 21.0156C27.1927 21.0156 27.3066 20.9395 27.377 20.7871C27.4473 20.6348 27.4824 20.3848 27.4824 20.0371Z" fill="#747474"/>
<path opacity="0.702" fill-rule="evenodd" clip-rule="evenodd" d="M17.1314 10.623V14.9615H12.793V14.6L16.7699 10.623H17.1314Z" fill="#ADBBC7"/>
</g>
</g>
<defs>
<clipPath id="clip0_671_41096">
<rect width="48" height="48" fill="white"/>
</clipPath>
<clipPath id="clip1_671_41096">
<rect width="47" height="47" fill="white" transform="translate(0.5 0.5)"/>
</clipPath>
</defs>
</svg>