<svg width="14" height="14" viewBox="0 0 14 14" fill="none" xmlns="http://www.w3.org/2000/svg">
<path d="M5.83333 12.25C5.97838 12.4397 6.16771 12.5917 6.38521 12.6928C6.60272 12.7939 6.84209 12.8411 7.08333 12.8302C7.32457 12.8411 7.56395 12.7939 7.78145 12.6928C7.99896 12.5917 8.18829 12.4397 8.33333 12.25" stroke="#626262" stroke-linecap="round" stroke-linejoin="round"/>
<path d="M2.91667 5.83333C2.91667 4.72826 3.35567 3.66846 4.13707 2.88706C4.91846 2.10567 5.97826 1.66667 7.08333 1.66667C8.1884 1.66667 9.24821 2.10567 10.0296 2.88706C10.811 3.66846 11.25 4.72826 11.25 5.83333C11.25 9.33333 12.8333 10.5 12.8333 10.5H1.33333C1.33333 10.5 2.91667 9.33333 2.91667 5.83333Z" stroke="#626262" stroke-linecap="round" stroke-linejoin="round"/>
<circle cx="10.5" cy="2.625" r="2.1" fill="#DD1616" stroke="white" stroke-width="1.05"/>
</svg>
