<svg width="24" height="24" viewBox="0 0 24 24" fill="none" xmlns="http://www.w3.org/2000/svg">
<path d="M9.97362 18.5C10.2498 18.5 10.4736 18.2761 10.4736 18C10.4736 17.7238 10.2498 17.5 9.97362 17.5V18V18.5ZM18 10.1692C18 10.4453 18.2239 10.6692 18.5 10.6692C18.7761 10.6692 19 10.4453 19 10.1692H18.5H18ZM6.58333 6V6.5H17.4167V6V5.5H6.58333V6ZM5.5 16.9091H6V9.27272H5.5H5V16.9091H5.5ZM5.5 9.27272H6V7.09091H5.5H5V9.27272H5.5ZM9.97362 18V17.5H9.29167V18V18.5H9.97362V18ZM9.29167 18V17.5H6.58333V18V18.5H9.29167V18ZM18.5 7.09091H18V10.1692H18.5H19V7.09091H18.5ZM5.5 16.9091H5C5 17.7844 5.7056 18.5 6.58333 18.5V18V17.5C6.26445 17.5 6 17.2387 6 16.9091H5.5ZM17.4167 6V6.5C17.7356 6.5 18 6.76127 18 7.09091H18.5H19C19 6.21556 18.2944 5.5 17.4167 5.5V6ZM6.58333 6V5.5C5.7056 5.5 5 6.21556 5 7.09091H5.5H6C6 6.76127 6.26445 6.5 6.58333 6.5V6ZM5.5 9.27272V9.77272H18.5V9.27272V8.77272H5.5V9.27272ZM9.29167 9.27272H8.79167V18H9.29167H9.79167V9.27272H9.29167Z" fill="black"/>
<path d="M14.994 11.9707L14.994 18.0005M17.9879 14.9856H12" stroke="black" stroke-linecap="round"/>
</svg>
