<svg width="32" height="32" viewBox="0 0 32 32" fill="none" xmlns="http://www.w3.org/2000/svg">
<path d="M19.184 26C18.918 26 18.664 26.105 18.477 26.293C18.289 26.48 18.184 26.735 18.184 27C18.184 27.796 17.868 28.559 17.305 29.121C16.742 29.684 15.979 30 15.184 30C14.388 30 13.625 29.684 13.062 29.121C12.5 28.559 12.184 27.796 12.184 27C12.184 26.735 12.078 26.48 11.891 26.293C11.703 26.105 11.449 26 11.184 26C10.918 26 10.664 26.105 10.477 26.293C10.289 26.48 10.184 26.735 10.184 27C10.184 28.326 10.71 29.598 11.648 30.536C12.586 31.473 13.858 32 15.184 32C16.51 32 17.781 31.473 18.719 30.536C19.657 29.598 20.184 28.326 20.184 27C20.184 26.735 20.078 26.48 19.891 26.293C19.703 26.105 19.449 26 19.184 26Z" fill="#39393B"/>
<path d="M15.184 0C17.836 0 20.379 1.054 22.255 2.929C23.205 3.67 21.993 5.496 20.841 4.343C19.34 2.843 17.305 2 15.184 2C13.062 2 11.027 2.843 9.527 4.343C8.026 5.843 7.184 7.878 7.184 10V14.18C7.179 14.975 6.863 15.736 6.304 16.3L3.724 18.88C3.55 19.049 3.413 19.251 3.32 19.474C3.227 19.698 3.181 19.938 3.184 20.18V21C3.184 21.264 3.288 21.517 3.474 21.704C3.619 21.705 3.845 21.706 4.184 21.707C5.755 21.714 5.755 24 4.184 23.98C3.469 24 2.625 23.664 2.062 23.101C1.5 22.539 1.184 21.776 1.184 20.98V20.16C1.183 19.658 1.281 19.161 1.474 18.698C1.666 18.235 1.948 17.814 2.304 17.46L4.884 14.88C4.98 14.791 5.056 14.682 5.108 14.562C5.16 14.441 5.185 14.311 5.184 14.18V10C5.184 7.348 6.237 4.804 8.113 2.929C9.988 1.054 12.531 0 15.184 0Z" fill="#39393B"/>
<path d="M25.482 14.881L28.062 17.461C28.418 17.815 28.7 18.236 28.892 18.699C29.085 19.162 29.183 19.659 29.182 20.161V20.981C29.182 21.777 28.866 22.54 28.304 23.102C27.741 23.665 26.978 23.981 26.182 23.981H4.107C4.107 23.981 3.25 24.001 3.25 22.858C3.25 21.715 4.107 21.708 4.107 21.708H26.89C27.077 21.521 27.182 21.266 27.182 21.001V20.181C27.183 19.939 27.135 19.7 27.042 19.477C26.95 19.254 26.814 19.051 26.642 18.881L24.062 16.301C23.503 15.737 23.187 14.976 23.182 14.181C22.897 12.573 25.182 12.573 25.182 14.181C25.188 14.444 25.296 14.695 25.482 14.881Z" fill="#39393B"/>
<path d="M19.166 4.435C20.242 2.571 22.934 2.571 24.01 4.435L29.695 14.283C30.772 16.147 29.426 18.478 27.273 18.478H15.902C13.75 18.478 12.404 16.147 13.48 14.283L19.166 4.435Z" fill="#E9E9E9" stroke="#39393B" stroke-width="2" stroke-linecap="round" stroke-linejoin="round"/>
<path d="M21.59 16.395C21.826 16.395 22.057 16.325 22.254 16.193C22.451 16.062 22.604 15.875 22.694 15.657C22.785 15.438 22.808 15.198 22.762 14.966C22.716 14.734 22.602 14.521 22.435 14.354C22.268 14.187 22.055 14.073 21.823 14.027C21.591 13.981 21.351 14.005 21.133 14.095C20.914 14.186 20.727 14.339 20.596 14.535C20.465 14.732 20.395 14.963 20.395 15.199C20.395 15.516 20.521 15.821 20.745 16.045C20.969 16.269 21.273 16.395 21.59 16.395Z" fill="#39393B"/>
<path d="M21.59 12.719C21.719 12.719 21.846 12.694 21.965 12.645C22.084 12.596 22.192 12.523 22.283 12.432C22.374 12.341 22.446 12.233 22.495 12.115C22.544 11.996 22.57 11.868 22.569 11.739V7.039C22.574 6.907 22.552 6.776 22.505 6.653C22.458 6.53 22.387 6.418 22.296 6.323C22.204 6.228 22.095 6.153 21.974 6.101C21.853 6.05 21.722 6.023 21.591 6.023C21.459 6.023 21.329 6.05 21.208 6.101C21.086 6.153 20.977 6.228 20.886 6.323C20.794 6.418 20.723 6.53 20.676 6.653C20.629 6.776 20.607 6.907 20.612 7.039V11.739C20.612 11.868 20.637 11.995 20.686 12.114C20.735 12.233 20.807 12.341 20.898 12.432C20.989 12.523 21.097 12.595 21.215 12.644C21.334 12.694 21.461 12.719 21.59 12.719Z" fill="#39393B"/>
</svg>
