<svg width="20" height="18" viewBox="0 0 20 18" fill="none" xmlns="http://www.w3.org/2000/svg">
<path d="M18.7537 8.10921C19.0856 8.66062 19.0856 9.33998 18.7537 9.89139L15.1811 15.8263C14.8492 16.3777 14.2358 16.7174 13.5719 16.7174H6.4268C5.76295 16.7174 5.14953 16.3777 4.8176 15.8263L1.24504 9.89139C0.913112 9.33998 0.913112 8.66061 1.24504 8.1092L4.8176 2.1743C5.14953 1.62289 5.76295 1.2832 6.4268 1.2832L13.5719 1.2832C14.2358 1.2832 14.8492 1.62289 15.1811 2.1743L18.7537 8.10921Z" fill="#DD1616"/>
<path d="M13.5473 12.5483C13.9571 12.1385 13.9658 11.4672 13.5473 11.0488L7.95415 5.4556C7.54441 5.04586 6.87313 5.03714 6.45467 5.4556C6.03621 5.87406 6.03621 6.53662 6.45467 6.95508L12.0478 12.5483C12.4576 12.958 13.1289 12.9667 13.5473 12.5483Z" fill="white"/>
<path d="M6.45469 12.5483C6.86443 12.958 7.53571 12.9667 7.95417 12.5483L13.5473 6.95508C13.9571 6.54534 13.9658 5.87406 13.5473 5.4556C13.1289 5.03714 12.4663 5.03714 12.0479 5.4556L6.45469 11.0488C6.04495 11.4585 6.03623 12.1298 6.45469 12.5483Z" fill="white"/>
</svg>
