<svg width="14" height="14" viewBox="0 0 14 14" fill="none" xmlns="http://www.w3.org/2000/svg">
<path fill-rule="evenodd" clip-rule="evenodd" d="M4.14886 4.14884C3.92391 4.37379 3.95777 4.77237 4.2245 5.0391L8.96091 9.77552C9.22763 10.0422 9.62621 10.0761 9.85116 9.85116C10.0761 9.62621 10.0422 9.22763 9.77552 8.96091L5.03911 4.22448C4.77239 3.95776 4.37381 3.92389 4.14886 4.14884Z" fill="#DD1616"/>
<path fill-rule="evenodd" clip-rule="evenodd" d="M4.14884 9.85115C4.37379 10.0761 4.77237 10.0422 5.03909 9.77552L9.7755 5.03909C10.0422 4.77237 10.0761 4.37379 9.85114 4.14884C9.62619 3.92389 9.22761 3.95775 8.96089 4.22448L4.22448 8.9609C3.95775 9.22762 3.92389 9.6262 4.14884 9.85115Z" fill="#DD1616"/>
<path d="M7 0.5C10.5899 0.5 13.5 3.41015 13.5 7C13.5 10.5899 10.5899 13.5 7 13.5C3.41015 13.5 0.5 10.5899 0.5 7C0.5 3.41015 3.41015 0.5 7 0.5Z" stroke="#DD1616"/>
</svg>
