<svg width="16" height="16" viewBox="0 0 17 17" fill="none" xmlns="http://www.w3.org/2000/svg">
<path d="M9.10352 2.52148C9.30876 2.50495 9.49457 2.55674 9.64453 2.62988C9.93277 2.77058 10.1534 3.0193 10.2793 3.23926C10.4044 3.4578 10.4999 3.69041 10.5674 3.93555L10.626 4.18555V4.18652C10.641 4.2662 10.6558 4.39362 10.6709 4.55078L10.6846 4.75195C10.6868 4.81756 10.6866 4.88193 10.6836 4.94434C10.6554 5.52913 10.5241 6.08179 10.291 6.59961H14.3242L14.4229 6.6084L14.4287 6.60938C14.9346 6.7047 15.5223 7.14617 15.4355 7.84277C15.4165 7.99479 15.3671 8.13906 15.2852 8.26855L15.1924 8.39258C15.0559 8.54975 14.9028 8.65316 14.7422 8.72266C14.8301 8.80172 14.9058 8.89502 14.9629 9.00488C15.09 9.24933 15.098 9.51524 15.0361 9.75684C14.9808 9.97454 14.8547 10.1487 14.7021 10.2822V10.2832C14.5744 10.3948 14.4317 10.4745 14.2803 10.5293C14.5159 10.7842 14.5913 11.1405 14.5322 11.4453L14.5117 11.5322C14.3896 11.9541 14.0452 12.1904 13.6953 12.2959C13.7111 12.3162 13.7269 12.337 13.7412 12.3594C13.8567 12.5393 13.8903 12.7345 13.8779 12.9189L13.8516 13.0986C13.7995 13.3329 13.6458 13.5345 13.4512 13.6582H13.4502C13.2297 13.7976 12.9829 13.8662 12.7227 13.8662C10.916 13.8662 9.39245 13.8656 8.15234 13.8652C7.97803 13.8652 7.79612 13.8622 7.60645 13.8555L7.60547 13.8545C7.5001 13.8506 7.41435 13.8395 7.35059 13.8311C7.28497 13.8223 7.24633 13.818 7.20215 13.8164C7.1243 13.8136 7.03427 13.7956 6.95703 13.7793C6.4337 13.6709 5.94843 13.4674 5.50391 13.1699L5.50293 13.1709C5.35691 13.0736 5.25012 12.9036 5.25 12.7012V8.19141C5.25003 7.99673 5.34602 7.8306 5.48145 7.72754L5.9082 7.3916C6.32414 7.05143 6.70945 6.69794 7.06543 6.33203L7.26172 6.12012C7.45391 5.90168 7.63526 5.66331 7.80469 5.40527L7.91211 5.23145C8.14723 4.82701 8.26498 4.43821 8.28418 4.0625C8.28953 3.95661 8.29267 3.71273 8.29102 3.31641V3.31445C8.29102 3.2286 8.31054 3.15584 8.32227 3.11719C8.33619 3.07129 8.35339 3.02629 8.37109 2.98535L8.37305 2.98047C8.4085 2.90073 8.46087 2.82986 8.52637 2.77246H8.52734C8.69547 2.62573 8.89248 2.53857 9.10352 2.52148Z" fill="#198019" stroke="#198019" stroke-miterlimit="10"/>
<path d="M3.15555 7.36133C3.3293 7.36133 3.4705 7.48497 3.4705 7.6371V13.4283C3.4705 13.5805 3.3293 13.7041 3.15555 13.7041H0.959485C0.785734 13.7041 0.644531 13.5805 0.644531 13.4283V7.6371C0.644531 7.48497 0.785734 7.36133 0.959485 7.36133H3.15555Z" fill="#198019" stroke="#198019" stroke-miterlimit="10"/>
</svg>
