<svg width="14" height="14" viewBox="0 0 14 14" fill="none" xmlns="http://www.w3.org/2000/svg">
<path d="M5.13594 4.78909C5.2865 4.35982 5.58422 3.99775 5.97629 3.76707C6.36837 3.53639 6.82947 3.45202 7.27783 3.52891C7.72619 3.60581 8.13283 3.839 8.42564 4.18713C8.71845 4.53527 8.87851 4.97585 8.87744 5.43075C8.87744 6.71408 6.95244 7.35575 6.95244 7.35575M6.9466 8.54575V7.48758M6.9466 10.8184V10.7951M13.4193 6.99992C13.4193 10.5437 10.5464 13.4166 7.0026 13.4166C3.45878 13.4166 0.585938 10.5437 0.585938 6.99992C0.585938 3.45609 3.45878 0.583252 7.0026 0.583252C10.5464 0.583252 13.4193 3.45609 13.4193 6.99992Z" stroke="#626262" stroke-linecap="round" stroke-linejoin="round"/>
</svg>
