<svg width="48" height="48" viewBox="0 0 48 48" fill="none" xmlns="http://www.w3.org/2000/svg">
<g clip-path="url(#clip0_671_41156)">
<path d="M13.6424 20.0807C13.6424 20.6703 13.7055 21.1483 13.816 21.4989C13.9424 21.8494 14.1002 22.2318 14.3213 22.6461C14.4002 22.7736 14.4318 22.9011 14.4318 23.0126C14.4318 23.1719 14.3371 23.3313 14.1318 23.4906L13.1371 24.1598C12.995 24.2555 12.8529 24.3033 12.7266 24.3033C12.5687 24.3033 12.4108 24.2236 12.2529 24.0802C12.0318 23.8412 11.8424 23.5862 11.6845 23.3313C11.5266 23.0604 11.3687 22.7576 11.195 22.3912C9.96341 23.8571 8.41604 24.5901 6.55288 24.5901C5.22656 24.5901 4.16867 24.2076 3.39498 23.4428C2.6213 22.678 2.22656 21.6582 2.22656 20.3835C2.22656 19.0291 2.70025 17.9296 3.6634 17.1011C4.62656 16.2725 5.90551 15.8582 7.53183 15.8582C8.06867 15.8582 8.6213 15.906 9.20551 15.9857C9.78972 16.0653 10.3897 16.1928 11.0213 16.3362V15.173C11.0213 13.962 10.7687 13.1175 10.2792 12.6236C9.77393 12.1296 8.9213 11.8906 7.70551 11.8906C7.15288 11.8906 6.58446 11.9544 6.00025 12.0978C5.41604 12.2412 4.84762 12.4164 4.29498 12.6395C4.04235 12.7511 3.85288 12.8148 3.74235 12.8467C3.63183 12.8785 3.55288 12.8945 3.48972 12.8945C3.26867 12.8945 3.15814 12.7351 3.15814 12.4005V11.6197C3.15814 11.3648 3.18972 11.1736 3.26867 11.062C3.34762 10.9505 3.48972 10.839 3.71077 10.7274C4.2634 10.4406 4.92656 10.2016 5.70025 10.0104C6.47393 9.80325 7.29498 9.70765 8.1634 9.70765C10.0424 9.70765 11.416 10.1379 12.3002 10.9983C13.1687 11.8587 13.6108 13.1653 13.6108 14.9181V20.0807H13.6424ZM7.23183 22.5027C7.75288 22.5027 8.28972 22.4071 8.85814 22.2159C9.42656 22.0247 9.93183 21.6741 10.3581 21.1961C10.6108 20.8934 10.8002 20.5587 10.895 20.1763C10.9897 19.7939 11.0529 19.3318 11.0529 18.7901V18.1208C10.595 18.0093 10.1055 17.9137 9.60025 17.85C9.09498 17.7862 8.60551 17.7544 8.11604 17.7544C7.05814 17.7544 6.28446 17.9615 5.7634 18.3917C5.24235 18.8219 4.98972 19.4274 4.98972 20.2241C4.98972 20.973 5.17919 21.5307 5.57393 21.9131C5.95288 22.3115 6.50551 22.5027 7.23183 22.5027ZM19.9108 24.2236C19.6266 24.2236 19.4371 24.1758 19.3108 24.0642C19.1845 23.9686 19.0739 23.7456 18.9792 23.4428L15.2687 11.1258C15.1739 10.8071 15.1266 10.6 15.1266 10.4884C15.1266 10.2335 15.2529 10.0901 15.5055 10.0901H17.0529C17.3529 10.0901 17.5581 10.1379 17.6687 10.2494C17.795 10.345 17.8897 10.5681 17.9845 10.8708L20.6371 21.4192L23.1002 10.8708C23.1792 10.5522 23.2739 10.345 23.4002 10.2494C23.5266 10.1538 23.7476 10.0901 24.0318 10.0901H25.295C25.595 10.0901 25.8002 10.1379 25.9266 10.2494C26.0529 10.345 26.1634 10.5681 26.2266 10.8708L28.7213 21.5467L31.4529 10.8708C31.5476 10.5522 31.6581 10.345 31.7687 10.2494C31.895 10.1538 32.1002 10.0901 32.3845 10.0901H33.8529C34.1055 10.0901 34.2476 10.2175 34.2476 10.4884C34.2476 10.5681 34.2318 10.6478 34.216 10.7434C34.2002 10.839 34.1687 10.9664 34.1055 11.1417L30.3002 23.4587C30.2055 23.7774 30.095 23.9846 29.9687 24.0802C29.8424 24.1758 29.6371 24.2395 29.3687 24.2395H28.0108C27.7108 24.2395 27.5055 24.1917 27.3792 24.0802C27.2529 23.9686 27.1424 23.7615 27.0792 23.4428L24.6318 13.1653L22.2002 23.4269C22.1213 23.7456 22.0266 23.9527 21.9002 24.0642C21.7739 24.1758 21.5529 24.2236 21.2687 24.2236H19.9108ZM40.2002 24.6538C39.3792 24.6538 38.5581 24.5582 37.7687 24.367C36.9792 24.1758 36.3634 23.9686 35.9529 23.7296C35.7002 23.5862 35.5266 23.4269 35.4634 23.2835C35.4002 23.1401 35.3687 22.9807 35.3687 22.8373V22.0247C35.3687 21.6901 35.495 21.5307 35.7318 21.5307C35.8266 21.5307 35.9213 21.5467 36.016 21.5785C36.1108 21.6104 36.2529 21.6741 36.4108 21.7379C36.9476 21.9769 37.5318 22.1681 38.1476 22.2956C38.7792 22.423 39.395 22.4868 40.0266 22.4868C41.0213 22.4868 41.795 22.3115 42.3318 21.9609C42.8687 21.6104 43.1529 21.1005 43.1529 20.4472C43.1529 20.0011 43.0108 19.6346 42.7266 19.3318C42.4424 19.0291 41.9055 18.7582 41.1318 18.5033L38.8424 17.7862C37.6897 17.4197 36.8371 16.878 36.316 16.1609C35.795 15.4598 35.5266 14.6791 35.5266 13.8505C35.5266 13.1813 35.6687 12.5917 35.9529 12.0818C36.2371 11.5719 36.616 11.1258 37.0897 10.7752C37.5634 10.4087 38.1002 10.1379 38.7318 9.94666C39.3634 9.75545 40.0266 9.67578 40.7213 9.67578C41.0687 9.67578 41.4318 9.69172 41.7792 9.73952C42.1424 9.78732 42.4739 9.85106 42.8055 9.91479C43.1213 9.99446 43.4213 10.0741 43.7055 10.1697C43.9897 10.2653 44.2108 10.3609 44.3687 10.4566C44.5897 10.584 44.7476 10.7115 44.8424 10.8549C44.9371 10.9824 44.9845 11.1576 44.9845 11.3807V12.1296C44.9845 12.4642 44.8581 12.6395 44.6213 12.6395C44.495 12.6395 44.2897 12.5758 44.0213 12.4483C43.1213 12.034 42.1108 11.8269 40.9897 11.8269C40.0897 11.8269 39.3792 11.9703 38.8897 12.273C38.4002 12.5758 38.1476 13.0379 38.1476 13.6912C38.1476 14.1373 38.3055 14.5197 38.6213 14.8225C38.9371 15.1252 39.5213 15.428 40.3581 15.6989L42.6002 16.4159C43.7371 16.7824 44.5581 17.2923 45.0476 17.9456C45.5371 18.5989 45.7739 19.3478 45.7739 20.1763C45.7739 20.8615 45.6318 21.4829 45.3634 22.0247C45.0792 22.5664 44.7002 23.0445 44.2108 23.4269C43.7213 23.8252 43.1371 24.112 42.4581 24.3192C41.7476 24.5423 41.0055 24.6538 40.2002 24.6538Z" fill="#252F3E"/>
<path fill-rule="evenodd" clip-rule="evenodd" d="M43.1845 32.3954C37.9898 36.2673 30.4424 38.3228 23.9529 38.3228C14.8582 38.3228 6.66346 34.9289 0.47399 29.2882C-0.0154833 28.8421 0.426622 28.2366 1.01083 28.5871C7.70557 32.5069 15.9635 34.8811 24.5056 34.8811C30.2687 34.8811 36.6003 33.6701 42.4266 31.1844C43.295 30.786 44.0372 31.758 43.1845 32.3954Z" fill="#FF9900"/>
<path fill-rule="evenodd" clip-rule="evenodd" d="M45.3472 29.9106C44.6841 29.0501 40.9577 29.4963 39.2683 29.7034C38.763 29.7672 38.6841 29.321 39.142 28.9864C42.1104 26.8831 46.9893 27.4886 47.5577 28.1897C48.1262 28.9067 47.3999 33.8303 44.6209 36.1886C44.1946 36.5551 43.7841 36.3639 43.9735 35.8858C44.6051 34.3084 46.0104 30.7551 45.3472 29.9106Z" fill="#FF9900"/>
</g>
<defs>
<clipPath id="clip0_671_41156">
<rect width="48" height="29" fill="white" transform="translate(0 9.5)"/>
</clipPath>
</defs>
</svg>