<svg width="24" height="24" viewBox="0 0 24 24" fill="none" xmlns="http://www.w3.org/2000/svg">
<path d="M8.62822 11.83C8.62822 12.1303 8.509 12.4184 8.29663 12.6307C8.08426 12.8431 7.79625 12.9624 7.49591 12.9624C7.19558 12.9624 6.90757 12.8431 6.6952 12.6307C6.48283 12.4184 6.36344 12.1303 6.36344 11.83C6.36344 11.5296 6.48283 11.2416 6.6952 11.0293C6.90757 10.8169 7.19558 10.6976 7.49591 10.6976C7.79625 10.6976 8.08426 10.8169 8.29663 11.0293C8.509 11.2416 8.62822 11.5296 8.62822 11.83ZM13.1579 11.83C13.1579 12.1303 13.0386 12.4184 12.8262 12.6307C12.6138 12.8431 12.3258 12.9624 12.0255 12.9624C11.7251 12.9624 11.4371 12.8431 11.2248 12.6307C11.0124 12.4184 10.893 12.1303 10.893 11.83C10.893 11.5296 11.0124 11.2416 11.2248 11.0293C11.4371 10.8169 11.7251 10.6976 12.0255 10.6976C12.3258 10.6976 12.6138 10.8169 12.8262 11.0293C13.0386 11.2416 13.1579 11.5296 13.1579 11.83ZM17.6875 11.83C17.6875 12.1303 17.5681 12.4184 17.3557 12.6307C17.1434 12.8431 16.8554 12.9624 16.555 12.9624C16.2547 12.9624 15.9667 12.8431 15.7543 12.6307C15.5419 12.4184 15.4227 12.1303 15.4227 11.83C15.4227 11.5296 15.5419 11.2416 15.7543 11.0293C15.9667 10.8169 16.2547 10.6976 16.555 10.6976C16.8554 10.6976 17.1434 10.8169 17.3557 11.0293C17.5681 11.2416 17.6875 11.5296 17.6875 11.83Z" fill="black"/>
</svg>
