<svg width="12" height="12" viewBox="0 0 12 12" fill="none" xmlns="http://www.w3.org/2000/svg">
<path d="M5.99998 7.22443C6.44342 7.22443 6.8029 6.8704 6.8029 6.43367C6.8029 5.99695 6.44342 5.64292 5.99998 5.64292C5.55654 5.64292 5.19706 5.99695 5.19706 6.43367C5.19706 6.8704 5.55654 7.22443 5.99998 7.22443Z" fill="#626262"/>
<path d="M8.94403 7.22443C9.38747 7.22443 9.74695 6.8704 9.74695 6.43367C9.74695 5.99695 9.38747 5.64292 8.94403 5.64292C8.50059 5.64292 8.14111 5.99695 8.14111 6.43367C8.14111 6.8704 8.50059 7.22443 8.94403 7.22443Z" fill="#626262"/>
<path d="M3.05595 9.86028C3.49939 9.86028 3.85887 9.50624 3.85887 9.06952C3.85887 8.6328 3.49939 8.27877 3.05595 8.27877C2.61251 8.27877 2.25303 8.6328 2.25303 9.06952C2.25303 9.50624 2.61251 9.86028 3.05595 9.86028Z" fill="#626262"/>
<path d="M5.99998 9.86028C6.44342 9.86028 6.8029 9.50624 6.8029 9.06952C6.8029 8.6328 6.44342 8.27877 5.99998 8.27877C5.55654 8.27877 5.19706 8.6328 5.19706 9.06952C5.19706 9.50624 5.55654 9.86028 5.99998 9.86028Z" fill="#626262"/>
<path d="M8.94403 9.86028C9.38747 9.86028 9.74695 9.50624 9.74695 9.06952C9.74695 8.6328 9.38747 8.27877 8.94403 8.27877C8.50059 8.27877 8.14111 8.6328 8.14111 9.06952C8.14111 9.50624 8.50059 9.86028 8.94403 9.86028Z" fill="#626262"/>
</svg>
