<svg width="48" height="48" viewBox="0 0 48 48" fill="none" xmlns="http://www.w3.org/2000/svg">
<g clip-path="url(#clip0_678_25613)">
<path d="M32.9839 2.75391H6.55692C5.55036 2.75391 4.73438 3.57597 4.73438 4.59003V38.5584C4.73438 39.5724 5.55036 40.3945 6.55692 40.3945H32.9839C33.9905 40.3945 34.8064 39.5724 34.8064 38.5584V4.59003C34.8064 3.57597 33.9905 2.75391 32.9839 2.75391Z" fill="#D8D7DA"/>
<path d="M28.427 0H3.82255C2.81598 0 2 0.822061 2 1.83613V35.8045C2 36.8185 2.81598 37.6406 3.82255 37.6406H28.427C29.4335 37.6406 30.2495 36.8185 30.2495 35.8045V1.83613C30.2495 0.822061 29.4335 0 28.427 0Z" fill="#F7C50F"/>
<path d="M4.76758 39.047H31.0679C31.4346 39.0458 31.786 38.8985 32.0454 38.6373C32.3047 38.376 32.4509 38.022 32.4521 37.6525V2.78906H31.0679V36.258C31.0667 36.6274 30.9205 36.9815 30.6611 37.2427C30.4018 37.504 30.0504 37.6513 29.6837 37.6525H4.76758V39.047Z" fill="#C6C5CA"/>
<path d="M31.0684 25.7988H32.4526V27.1934H31.0684V25.7988Z" fill="#ACABB1"/>
<path d="M32.4531 25.7988H33.8374V27.1934H32.4531V25.7988Z" fill="#C6C5CA"/>
<path d="M31.0695 13.7441V36.2587C31.0683 36.629 30.9215 36.9837 30.6612 37.2451C30.4008 37.5065 30.0483 37.6533 29.6807 37.6533H5.81445C10.8557 34.6671 15.5759 31.1622 19.8991 27.1947C20.3903 26.7485 20.8815 26.2812 21.3663 25.8001C25.0933 22.2106 28.3537 18.1597 31.0695 13.7441Z" fill="#F7A70F"/>
<path d="M6.10156 5.04883H27.9722" stroke="#333333"/>
<path d="M6.10156 7.80273H27.9722" stroke="#333333"/>
<path d="M6.10156 10.5586H27.9722" stroke="#333333"/>
<path d="M6.10156 13.3125H27.9722" stroke="#333333"/>
<path d="M6.10156 16.0664H27.9722" stroke="#333333"/>
<path d="M6.10156 18.8203H27.9722" stroke="#333333"/>
<path d="M6.10156 21.5742H27.9722" stroke="#333333"/>
<path d="M6.10156 24.3281H27.9722" stroke="#333333"/>
<path d="M6.10156 27.082H27.9722" stroke="#333333"/>
<path d="M6.10156 29.8379H27.9722" stroke="#333333"/>
<path d="M6.10156 32.5918H27.9722" stroke="#333333"/>
<path d="M32.0715 2.75391H13.846C12.8394 2.75391 12.0234 3.57597 12.0234 4.59003V13.7707C12.0234 14.7847 12.8394 15.6068 13.846 15.6068H32.0715C33.0781 15.6068 33.894 14.7847 33.894 13.7707V4.59003C33.894 3.57597 33.0781 2.75391 32.0715 2.75391Z" fill="#333333"/>
<path d="M17.5016 6.0293H16.4883V11.646C16.4883 11.7814 16.5417 11.9112 16.6367 12.0069C16.7317 12.1027 16.8606 12.1564 16.9949 12.1564H19.5292V11.1356H17.5016V6.0293Z" fill="white"/>
<path d="M23.0772 6.0293H22.0639C21.6605 6.0293 21.2737 6.19073 20.9884 6.47808C20.7032 6.76543 20.543 7.15517 20.543 7.56154V10.6251C20.543 11.0315 20.7032 11.4212 20.9884 11.7086C21.2737 11.9959 21.6605 12.1574 22.0639 12.1574H23.0772C23.4806 12.1574 23.8674 11.9959 24.1527 11.7086C24.4379 11.4212 24.5981 11.0315 24.5981 10.6251V7.56154C24.5981 7.15517 24.4379 6.76543 24.1527 6.47808C23.8674 6.19073 23.4806 6.0293 23.0772 6.0293ZM23.5839 10.6251C23.5839 10.7605 23.5305 10.8903 23.4355 10.9861C23.3405 11.0818 23.2116 11.1356 23.0772 11.1356H22.0639C21.9295 11.1356 21.8006 11.0818 21.7056 10.9861C21.6106 10.8903 21.5572 10.7605 21.5572 10.6251V7.56154C21.5572 7.42617 21.6106 7.29633 21.7056 7.20061C21.8006 7.10488 21.9295 7.0511 22.0639 7.0511H23.0772C23.2116 7.0511 23.3405 7.10488 23.4355 7.20061C23.5305 7.29633 23.5839 7.42617 23.5839 7.56154V10.6251Z" fill="white"/>
<path d="M29.1589 8.58243H27.6389V9.60332H28.6523V10.6242C28.6523 10.7596 28.5989 10.8894 28.5039 10.9851C28.4088 11.0809 28.28 11.1346 28.1456 11.1346H27.1322C26.9979 11.1346 26.869 11.0809 26.774 10.9851C26.679 10.8894 26.6256 10.7596 26.6256 10.6242V7.56154C26.6256 7.42617 26.679 7.29633 26.774 7.20061C26.869 7.10488 26.9979 7.0511 27.1322 7.0511H28.1456C28.28 7.0511 28.4088 7.10488 28.5039 7.20061C28.5989 7.29633 28.6523 7.42617 28.6523 7.56154H29.6656C29.6656 7.15533 29.5055 6.76573 29.2204 6.47841C28.9354 6.19108 28.5488 6.02954 28.1456 6.0293H27.1322C26.7289 6.0293 26.342 6.19073 26.0568 6.47808C25.7716 6.76543 25.6113 7.15517 25.6113 7.56154V10.6251C25.6113 11.0315 25.7716 11.4212 26.0568 11.7086C26.342 11.9959 26.7289 12.1574 27.1322 12.1574H28.1456C28.549 12.1574 28.9358 11.9959 29.221 11.7086C29.5063 11.4212 29.6665 11.0315 29.6665 10.6251V9.09287C29.6665 9.02576 29.6534 8.95931 29.6278 8.89732C29.6023 8.83533 29.5649 8.77902 29.5178 8.73161C29.4706 8.6842 29.4147 8.64662 29.3531 8.62102C29.2915 8.59542 29.2255 8.58231 29.1589 8.58243Z" fill="white"/>
<path d="M29.3385 41.3126C34.8746 41.3126 39.3625 36.7913 39.3625 31.2139C39.3625 25.6366 34.8746 21.1152 29.3385 21.1152C23.8024 21.1152 19.3145 25.6366 19.3145 31.2139C19.3145 36.7913 23.8024 41.3126 29.3385 41.3126Z" fill="white"/>
<path d="M21.5022 23.3183C23.4575 21.3922 26.0776 20.3045 28.8121 20.2835C31.5466 20.2626 34.1828 21.31 36.1669 23.2059C38.151 25.1017 39.3286 27.6985 39.4524 30.4506C39.5762 33.2028 38.6366 35.8961 36.8308 37.965L37.6382 38.7784C37.9514 38.4632 38.376 38.2861 38.8187 38.2861C39.2615 38.2861 39.6861 38.4632 39.9993 38.7784L45.5107 44.3309C45.6665 44.4875 45.7902 44.6735 45.8745 44.8783C45.9589 45.0831 46.0023 45.3026 46.0023 45.5244C46.0023 45.7461 45.9589 45.9657 45.8745 46.1705C45.7902 46.3753 45.6665 46.5613 45.5107 46.7178L44.7252 47.5092C44.5698 47.6662 44.3851 47.7908 44.1818 47.8758C43.9785 47.9608 43.7606 48.0045 43.5405 48.0045C43.3204 48.0045 43.1025 47.9608 42.8992 47.8758C42.6959 47.7908 42.5113 47.6662 42.3559 47.5092L36.8472 41.9549C36.5367 41.6381 36.3626 41.2108 36.3626 40.7656C36.3626 40.3204 36.5367 39.8931 36.8472 39.5762L36.0398 38.7628C33.9864 40.5848 31.3118 41.5336 28.5784 41.4097C25.8449 41.2859 23.2656 40.0991 21.3828 38.0989C19.5001 36.0986 18.4605 33.4408 18.4828 30.6843C18.505 27.9278 19.5874 25.2874 21.5022 23.3183ZM37.6418 41.1654L43.1532 46.7178C43.2576 46.8225 43.3988 46.8812 43.546 46.8812C43.6932 46.8812 43.8344 46.8225 43.9387 46.7178L44.7288 45.9219C44.8324 45.8168 44.8905 45.6747 44.8905 45.5267C44.8905 45.3786 44.8324 45.2365 44.7288 45.1314L39.2174 39.5781C39.1111 39.4756 38.9696 39.4183 38.8224 39.4183C38.6752 39.4183 38.5337 39.4756 38.4274 39.5781L37.6418 40.3694C37.5387 40.4751 37.4806 40.6171 37.4799 40.7653C37.4792 40.9135 37.536 41.0561 37.6382 41.1627L37.6418 41.1654ZM22.2832 37.5896C23.6068 38.9232 25.2932 39.8314 27.1292 40.1994C28.9651 40.5675 30.8682 40.3787 32.5977 39.6571C34.3272 38.9354 35.8054 37.7133 36.8454 36.1453C37.8855 34.5772 38.4406 32.7337 38.4406 30.8478C38.4406 28.9619 37.8855 27.1183 36.8454 25.5503C35.8054 23.9822 34.3272 22.7601 32.5977 22.0384C30.8682 21.3168 28.9651 21.128 27.1292 21.4961C25.2932 21.8641 23.6068 22.7723 22.2832 24.106C20.5088 25.8942 19.512 28.3192 19.512 30.8478C19.512 33.3763 20.5088 35.8013 22.2832 37.5896Z" fill="#1A6FB0"/>
<path d="M23.0711 24.9004L23.8585 25.6936C22.5036 27.0623 21.7427 28.9164 21.7427 30.8494C21.7427 32.7824 22.5036 34.6366 23.8585 36.0053L23.0711 36.7985C21.5072 35.2195 20.6289 33.08 20.6289 30.8494C20.6289 28.6188 21.5072 26.4794 23.0711 24.9004Z" fill="#1A6FB0"/>
<path d="M43.5423 47.4386C43.6884 47.439 43.8332 47.4102 43.9682 47.3538C44.1032 47.2974 44.2258 47.2145 44.3287 47.11L45.1188 46.3168C45.327 46.1065 45.4439 45.8215 45.4439 45.5245C45.4439 45.2274 45.327 44.9425 45.1188 44.7322L39.6074 39.1797C39.3967 38.9719 39.1136 38.8555 38.8187 38.8555C38.5238 38.8555 38.2407 38.9719 38.03 39.1797L37.2445 39.9702C37.0365 40.1818 36.9199 40.4675 36.9199 40.7653C36.9199 41.063 37.0365 41.3487 37.2445 41.5603L42.7568 47.1137C42.8599 47.2174 42.9825 47.2995 43.1173 47.3553C43.2521 47.411 43.3965 47.4394 43.5423 47.4386Z" fill="#1A6FB0"/>
</g>
<defs>
<clipPath id="clip0_678_25613">
<rect width="44" height="48" fill="white" transform="translate(2)"/>
</clipPath>
</defs>
</svg>
