<svg width="14" height="14" viewBox="0 0 14 14" fill="none" xmlns="http://www.w3.org/2000/svg">
<path d="M5.65399 1.2833C5.79001 1.04534 5.98652 0.847562 6.22359 0.710005C6.46067 0.572449 6.72989 0.5 7.00398 0.5C7.27808 0.5 7.5473 0.572449 7.78438 0.710005C8.02146 0.847562 8.21796 1.04534 8.35398 1.2833L13.802 10.8903C13.9256 11.1108 13.9936 11.3582 14 11.6109C14.0065 11.8636 13.9512 12.1141 13.839 12.3407C13.7268 12.5672 13.5611 12.763 13.3562 12.911C13.1512 13.0591 12.9133 13.1549 12.663 13.1903L12.445 13.2053V12.2053C12.5419 12.2056 12.6372 12.1805 12.7214 12.1325C12.8057 12.0845 12.8758 12.0153 12.925 11.9317C12.9741 11.8482 13.0006 11.7532 13.0016 11.6563C13.0027 11.5594 12.9783 11.4639 12.931 11.3793L7.48799 1.7763C7.43967 1.69103 7.3696 1.6201 7.28492 1.57076C7.20024 1.52141 7.10399 1.49541 7.00599 1.49541C6.90798 1.49541 6.81173 1.52141 6.72705 1.57076C6.64237 1.6201 6.5723 1.69103 6.52398 1.7763L1.07299 11.3843C1.02621 11.4689 1.00231 11.5642 1.00363 11.6609C1.00495 11.7576 1.03146 11.8522 1.08052 11.9355C1.12959 12.0188 1.19953 12.0879 1.28343 12.1359C1.36734 12.1839 1.46231 12.2092 1.55899 12.2093V13.2093L1.34199 13.1963C1.10932 13.1633 0.88713 13.0782 0.692016 12.9472C0.496901 12.8162 0.333915 12.6429 0.215242 12.4401C0.09657 12.2372 0.0252821 12.0102 0.0067087 11.776C-0.0118647 11.5417 0.0227569 11.3063 0.107985 11.0873L0.202985 10.8873L5.65399 1.2833ZM12.444 12.2103V13.2103H1.55999V12.2103H12.444Z" fill="#AC6602"/>
<path d="M6.92099 11.3413C7.10275 11.3413 7.28043 11.2874 7.43155 11.1864C7.58268 11.0854 7.70047 10.9419 7.77003 10.774C7.83959 10.6061 7.85779 10.4213 7.82233 10.243C7.78687 10.0647 7.69934 9.90099 7.57082 9.77247C7.44229 9.64394 7.27854 9.55642 7.10027 9.52096C6.922 9.4855 6.73722 9.50369 6.5693 9.57325C6.40137 9.64281 6.25785 9.7606 6.15686 9.91173C6.05588 10.0629 6.00199 10.2405 6.00199 10.4223C6.00199 10.666 6.09881 10.8998 6.27115 11.0721C6.4435 11.2445 6.67725 11.3413 6.92099 11.3413Z" fill="#AC6602"/>
<path d="M6.92099 8.5153C7.01991 8.51543 7.11788 8.49604 7.2093 8.45825C7.30072 8.42045 7.38378 8.36499 7.45373 8.29504C7.52368 8.22509 7.57914 8.14203 7.61693 8.05061C7.65473 7.9592 7.67412 7.86122 7.67399 7.7623V4.1483C7.67767 4.04717 7.66094 3.94634 7.62478 3.85182C7.58863 3.75731 7.53379 3.67105 7.46355 3.5982C7.39331 3.52535 7.30911 3.46741 7.21597 3.42783C7.12284 3.38826 7.02268 3.36786 6.92148 3.36786C6.82029 3.36786 6.72013 3.38826 6.627 3.42783C6.53386 3.46741 6.44966 3.52535 6.37942 3.5982C6.30918 3.67105 6.25434 3.75731 6.21819 3.85182C6.18203 3.94634 6.1653 4.04717 6.16898 4.1483V7.7623C6.16885 7.86114 6.18821 7.95903 6.22594 8.05038C6.26367 8.14173 6.31904 8.22475 6.38889 8.29469C6.45873 8.36462 6.54167 8.42011 6.63298 8.45796C6.72428 8.49581 6.82215 8.5153 6.92099 8.5153Z" fill="#AC6602"/>
</svg>
