<svg width="30" height="30" viewBox="0 0 30 30" fill="none" xmlns="http://www.w3.org/2000/svg">
  <defs>
    <linearGradient id="fpG" x1="0" y1="0" x2="0" y2="30" gradientUnits="userSpaceOnUse">
      <stop offset="0%"   stop-color="#88B2F8"/>
      <stop offset="100%" stop-color="#D23B33"/>
    </linearGradient>
  </defs>
  <path d="M3 14 C3 7.4 8.4 2 15 2 C21.6 2 27 7.4 27 14" stroke="#2C66DD" stroke-width="1.8" stroke-linecap="round" fill="none"/>
  <path d="M5.5 14 C5.5 8.75 9.75 4.5 15 4.5 C20.25 4.5 24.5 8.75 24.5 14" stroke="#2C66DD" stroke-width="1.6" stroke-linecap="round" fill="none" opacity="0.7"/>
  <path d="M8 14 C8 10.1 11.15 7 15 7 C18.85 7 22 10.1 22 14" stroke="#2C66DD" stroke-width="1.4" stroke-linecap="round" fill="none" opacity="0.5"/>
  <path d="M2 17 C1.5 9.5 7.5 3 15 3 C19.5 3 23.5 5.2 26 8.8" stroke="url(#fpG)" stroke-width="1.5" stroke-linecap="round" fill="none"/>
  <path d="M3.5 19.5 C3.0 14.0 6.8 8.5 12.5 6.5" stroke="url(#fpG)" stroke-width="1.4" stroke-linecap="round" fill="none"/>
  <path d="M5.5 21.5 C4.5 17.0 7.0 12.0 11.5 9.8" stroke="url(#fpG)" stroke-width="1.3" stroke-linecap="round" fill="none"/>
  <path d="M9 23 C7.5 19.5 8.5 15.0 12 12.5" stroke="url(#fpG)" stroke-width="1.2" stroke-linecap="round" fill="none"/>
  <path d="M12 24 C10.5 21.5 11 18.0 13 16" stroke="url(#fpG)" stroke-width="1.1" stroke-linecap="round" fill="none"/>
  <circle cx="20.5" cy="21.5" r="5.5" stroke="url(#fpG)" stroke-width="1.7" fill="white"/>
  <line x1="24.4" y1="25.4" x2="28" y2="29" stroke="url(#fpG)" stroke-width="2.0" stroke-linecap="round"/>
</svg>