<svg width="20" height="20" viewBox="0 0 20 20" fill="none" xmlns="http://www.w3.org/2000/svg">
<g clip-path="url(#clip0)">
<rect x="10" y="-1.21387" width="15.8571" height="15.8571" rx="2" transform="rotate(45 10 -1.21387)" fill="#FF5900"/>
<path d="M9.88281 15.6361C10.6077 15.6361 11.1953 15.0485 11.1953 14.3236C11.1953 13.5988 10.6077 13.0111 9.88281 13.0111C9.15794 13.0111 8.57031 13.5988 8.57031 14.3236C8.57031 15.0485 9.15794 15.6361 9.88281 15.6361Z" fill="white"/>
<path d="M9.88281 11.5986C10.4703 11.5986 10.9578 11.1236 10.9578 10.5236V5.36113C10.9578 4.77363 10.4828 4.28613 9.88281 4.28613C9.28281 4.28613 8.80781 4.76113 8.80781 5.36113V10.5236C8.80781 11.1111 9.28281 11.5986 9.88281 11.5986Z" fill="white"/>
</g>
<defs><clipPath id="clip0"><rect width="20" height="20" fill="white"/></clipPath></defs>
</svg>
