<svg width="24" height="24" viewBox="0 0 24 24" fill="none" xmlns="http://www.w3.org/2000/svg">
<path d="M5.5 8.20833H18.5M10.375 11.1917V15.9996M13.625 11.1917V15.9996M7.39583 8.20833H16.6042V17.6875C16.6042 17.903 16.5186 18.1097 16.3662 18.262C16.2138 18.4144 16.0072 18.5 15.7917 18.5H8.20833C7.99285 18.5 7.78618 18.4144 7.63381 18.262C7.48144 18.1097 7.39583 17.903 7.39583 17.6875V8.20833ZM10.1042 5.5H13.8958C14.1113 5.5 14.318 5.5856 14.4704 5.73798C14.6227 5.89035 14.7083 6.09701 14.7083 6.3125V8.20833H9.29167V6.3125C9.29167 6.09701 9.37727 5.89035 9.52964 5.73798C9.68202 5.5856 9.88868 5.5 10.1042 5.5Z" stroke="black" stroke-linecap="round" stroke-linejoin="round"/>
</svg>
