<svg width="14" height="14" viewBox="0 0 14 14" fill="none" xmlns="http://www.w3.org/2000/svg">
<path d="M13.8064 6.30718C14.0645 6.7359 14.0645 7.2641 13.8064 7.69282L11.0288 12.3072C10.7707 12.7359 10.2938 13 9.77765 13L4.22235 13C3.70621 13 3.22927 12.7359 2.9712 12.3072L0.193554 7.69282C-0.0645171 7.2641 -0.0645171 6.7359 0.193554 6.30718L2.9712 1.69282C3.22927 1.2641 3.70621 1 4.22235 1L9.77765 1C10.2938 1 10.7707 1.2641 11.0288 1.69282L13.8064 6.30718Z" fill="#DD1616"/>
<path d="M9.75851 9.75852C10.0771 9.43995 10.0839 8.91803 9.75851 8.59268L5.40985 4.24402C5.09128 3.92544 4.56936 3.91867 4.24401 4.24402C3.91866 4.56937 3.91866 5.08451 4.24401 5.40986L8.59267 9.75852C8.91124 10.0771 9.43316 10.0839 9.75851 9.75852Z" fill="white"/>
<path d="M4.24403 9.75852C4.5626 10.0771 5.08452 10.0839 5.40987 9.75852L9.75852 5.40985C10.0771 5.09128 10.0839 4.56936 9.75852 4.24401C9.43317 3.91866 8.91803 3.91866 8.59268 4.24401L4.24403 8.59268C3.92546 8.91125 3.91868 9.43317 4.24403 9.75852Z" fill="white"/>
</svg>
