<svg width="16" height="16" viewBox="0 0 16 16" fill="none" xmlns="http://www.w3.org/2000/svg">
<path d="M12 5.33333C12 4.27247 11.5786 3.25505 10.8284 2.50491C10.0783 1.75476 9.06087 1.33333 8 1.33333C6.93913 1.33333 5.92172 1.75476 5.17157 2.50491C4.42143 3.25505 4 4.27247 4 5.33333C4 10 2 11.3333 2 11.3333H14C14 11.3333 12 10 12 5.33333Z" stroke="white" stroke-linecap="round" stroke-linejoin="round"/>
<path d="M9.15335 13.3333C9.03614 13.5361 8.8688 13.7047 8.66669 13.8234C8.46458 13.9422 8.23437 14.0069 8.00002 14.0069C7.76566 14.0069 7.53545 13.9422 7.33335 13.8234C7.13124 13.7047 6.96389 13.5361 6.84668 13.3333" stroke="white" stroke-linecap="round" stroke-linejoin="round"/>
</svg>
