<svg width="48" height="48" viewBox="0 0 48 48" fill="none" xmlns="http://www.w3.org/2000/svg">
<g clip-path="url(#clip0_678_41261)">
<g clip-path="url(#clip1_678_41261)">
<path d="M24.1761 0.349613C28.8812 0.355268 33.479 1.74699 37.3884 4.34887C41.2978 6.95075 44.3433 10.646 46.1399 14.9675C47.9366 19.2891 48.4037 24.043 47.4823 28.6283C46.5609 33.2136 44.2923 37.4246 40.9632 40.7289C37.6342 44.0332 33.3942 46.2826 28.779 47.1927C24.1639 48.1029 19.3809 47.6329 15.0344 45.8422C10.688 44.0516 6.97332 41.0206 4.35988 37.1323C1.74644 33.2441 0.351566 28.6732 0.351562 23.9973C0.355843 17.7219 2.86821 11.7052 7.33607 7.27046C11.8039 2.83575 17.8614 0.346281 24.1761 0.349613Z" fill="#F7A70F"/>
<path d="M24.1761 47.6521C19.4293 47.6601 14.7892 46.2532 10.8554 43.6131C7.02555 41.0468 4.02712 37.4314 2.22369 33.2053C0.67938 29.5811 0.071615 25.6307 0.455709 21.7135C0.839804 17.7963 2.20356 14.0367 4.42287 10.777C7.00921 6.97393 10.6494 3.9975 14.9028 2.20799C17.8368 0.975465 20.9908 0.343429 24.1761 0.349655H24.332V24.155L33.2059 2.10754C38.3174 4.17912 42.5451 7.95236 45.1651 12.781C47.785 17.6097 48.6341 23.1934 47.567 28.5758C46.4999 33.9582 43.5829 38.8045 39.3156 42.2846C35.0484 45.7647 29.6964 47.6622 24.1761 47.6521Z" fill="#F77A0F"/>
<path d="M24.1761 47.6521C19.4293 47.6601 14.7892 46.2532 10.8554 43.6131C7.02555 41.0468 4.02712 37.4314 2.22369 33.2053C0.67938 29.5811 0.0716149 25.6307 0.455709 21.7135C0.839804 17.7963 2.20356 14.0367 4.42287 10.777C7.00921 6.97393 10.6494 3.9975 14.9028 2.20799C17.8368 0.975465 20.9908 0.343429 24.1761 0.349655H24.332V24.155L41.1013 7.35538C43.2515 9.50813 44.9655 12.0513 46.1503 14.8466C47.6829 18.4657 48.2827 22.4076 47.8952 26.3152C47.5078 30.2228 46.1454 33.9725 43.9315 37.2248C41.3447 41.0277 37.704 44.0039 33.4502 45.7931C30.516 47.0259 27.3618 47.6582 24.1761 47.6521Z" fill="#F74D0F"/>
<path d="M24.1761 47.6521C19.4293 47.6601 14.7892 46.2532 10.8554 43.6131C7.02555 41.0468 4.02712 37.4314 2.22369 33.2053C0.67938 29.5811 0.071615 25.6307 0.455709 21.7135C0.839804 17.7963 2.20356 14.0367 4.42287 10.777C7.00921 6.97393 10.6494 3.9975 14.9028 2.20799C17.8368 0.975465 20.9908 0.343429 24.1761 0.349655H24.332V24.155L46.144 14.8313C47.6801 18.4516 48.2823 22.3959 47.8961 26.3061C47.5099 30.2164 46.1474 33.9689 43.9322 37.2234C41.3454 41.027 37.7044 44.0037 33.4502 45.7931C30.516 47.0259 27.3618 47.6582 24.1761 47.6521Z" fill="#CC3A1A"/>
<path d="M24.1761 47.6521C19.4293 47.6601 14.7892 46.2532 10.8554 43.6131C7.02555 41.0468 4.02712 37.4314 2.22369 33.2053C0.67938 29.5811 0.0716149 25.6307 0.455709 21.7135C0.839804 17.7963 2.20356 14.0367 4.42287 10.777C7.00921 6.97393 10.6494 3.99749 14.9028 2.20799C17.8368 0.975465 20.9908 0.343429 24.1761 0.349655H24.332V24.155H48.0006C47.9768 28.8462 46.5421 33.4232 43.881 37.298C41.2891 41.0771 37.6541 44.0318 33.413 45.807C30.4893 47.0302 27.3483 47.6576 24.1761 47.6521Z" fill="#8E230C"/>
<path d="M24.1762 47.652C17.8642 47.652 11.8108 45.1602 7.34759 40.7248C2.88437 36.2893 0.376953 30.2735 0.376953 24.0008C0.376953 17.7281 2.88437 11.7124 7.34759 7.27689C11.8108 2.84143 17.8642 0.349609 24.1762 0.349609L24.332 0.349609V24.155L46.2648 32.8816C44.4796 37.2482 41.4241 40.9863 37.4892 43.6175C33.5543 46.2487 28.9189 47.6535 24.1762 47.652Z" fill="#F9F9F9" stroke="#F9F9F9"/>
<path d="M1.97799 32.6068C0.89823 29.8635 0.346536 26.943 0.351597 23.9973C0.351319 22.3964 0.513587 20.7994 0.835935 19.2308C1.46126 16.2061 2.68011 13.3334 4.42284 10.7769C7.00919 6.97389 10.6494 3.99745 14.9028 2.20794C16.3439 1.60335 17.8416 1.14187 19.3741 0.830238C20.9545 0.510258 22.5633 0.349236 24.1761 0.34961H24.3319V24.155L1.97799 32.6068Z" fill="#4B9A30"/>
<path d="M24.3319 24.1557H0.351582V23.9974C0.345528 19.2848 1.76388 14.679 4.42283 10.777C7.00917 6.97393 10.6494 3.9975 14.9028 2.20799C17.8368 0.975465 20.9907 0.343429 24.1761 0.349655H24.3319V24.1557Z" fill="#65BC47"/>
<path d="M24.3314 24.1557L2.03711 15.2449C3.80568 10.847 6.86039 7.077 10.8067 4.4218C14.7531 1.7666 19.4098 0.348146 24.1756 0.349611H24.3314V24.1557Z" fill="#92C83E"/>
<path d="M24.3312 24.155L7.41797 7.18587C9.58717 5.05459 12.1475 3.3565 14.9603 2.18357C17.878 0.967152 21.0113 0.34359 24.1754 0.349653H24.3312V24.155Z" fill="#CFDD26"/>
<path d="M24.5081 24.1536L14.9863 2.17381C17.9573 0.96297 21.1384 0.343212 24.3495 0.349659H24.5081V24.1536Z" fill="#F7C50F"/>
<path d="M24.1771 42.1669C34.2828 42.1669 42.4752 34.034 42.4752 24.0014C42.4752 13.9689 34.2828 5.83594 24.1771 5.83594C14.0713 5.83594 5.87891 13.9689 5.87891 24.0014C5.87891 34.034 14.0713 42.1669 24.1771 42.1669Z" fill="#F9F9F9"/>
<path d="M27.7815 23.4754L27.4923 23.2342L24.8301 21.0135L24.5409 20.7722L24.8046 20.5031L41.2606 3.70822L41.7964 4.15512L28.0025 23.1707L27.7815 23.4754Z" fill="#434A54"/>
<path d="M41.513 3.95064L25.0566 20.7458L27.7188 22.9666L41.513 3.95064ZM41.0105 3.46432L42.082 4.35813L27.8458 23.9835L24.0267 20.7978L41.0105 3.46432Z" fill="#F9F9F9"/>
<path d="M22.9368 25.9435C24.2738 27.0587 26.2674 26.8858 27.3897 25.5573C28.512 24.2288 28.3379 22.2478 27.0009 21.1326C25.6639 20.0173 23.6703 20.1902 22.548 21.5188C21.4258 22.8473 21.5998 24.8283 22.9368 25.9435Z" fill="#434A54"/>
<path d="M24.0534 24.6204C24.6549 25.1221 25.552 25.0443 26.057 24.4465C26.562 23.8486 26.4838 22.9572 25.8822 22.4554C25.2806 21.9537 24.3836 22.0315 23.8785 22.6293C23.3735 23.2272 23.4518 24.1186 24.0534 24.6204Z" fill="white"/>
<path d="M32.979 16.4512H18.2383V33.8905H32.979V16.4512Z" fill="#F9F9F9"/>
<path d="M35.0858 19.2612C35.0858 19.7718 34.5888 20.3675 34.2245 20.3675H16.0703C15.706 20.3682 15.209 19.7725 15.209 19.2612V13.2579C15.2189 13.0218 15.3097 12.7963 15.4664 12.6187C15.623 12.441 15.8361 12.322 16.0703 12.2812H34.2245C34.4587 12.322 34.6717 12.441 34.8284 12.6187C34.9851 12.7963 35.0759 13.0218 35.0858 13.2579V19.2612Z" fill="#333333"/>
<path d="M17.7797 17.5591C17.7797 17.6442 17.6513 17.7293 17.5657 17.7293C17.48 17.7293 17.3516 17.6442 17.3516 17.5591V14.9202C17.3516 14.8351 17.48 14.75 17.5657 14.75C17.6513 14.75 17.7797 14.8351 17.7797 14.9202V17.5591Z" fill="#C6C6C6"/>
<path d="M19.0649 17.5591C19.0649 17.6442 18.9364 17.7293 18.8508 17.7293C18.7652 17.7293 18.6367 17.6442 18.6367 17.5591V14.9202C18.6367 14.8351 18.7652 14.75 18.8508 14.75C18.9364 14.75 19.0649 14.8351 19.0649 14.9202V17.5591Z" fill="#C6C6C6"/>
<path d="M20.3501 17.5591C20.3501 17.6442 20.2216 17.7293 20.136 17.7293C20.0503 17.7293 19.9219 17.6442 19.9219 17.5591V14.9202C19.9219 14.8351 20.0503 14.75 20.136 14.75C20.2216 14.75 20.3501 14.8351 20.3501 14.9202V17.5591Z" fill="#C6C6C6"/>
<path d="M29.8323 16.3245C29.834 16.3529 29.8297 16.3813 29.8195 16.4079C29.8094 16.4345 29.7937 16.4586 29.7734 16.4788C29.7532 16.4989 29.7289 16.5145 29.7021 16.5246C29.6754 16.5346 29.6468 16.539 29.6182 16.5372H18.8785C18.85 16.539 18.8213 16.5346 18.7946 16.5246C18.7678 16.5145 18.7435 16.4989 18.7233 16.4788C18.703 16.4586 18.6873 16.4345 18.6772 16.4079C18.667 16.3813 18.6627 16.3529 18.6644 16.3245C18.6627 16.2961 18.667 16.2676 18.6772 16.241C18.6873 16.2144 18.703 16.1903 18.7233 16.1702C18.7435 16.1501 18.7678 16.1344 18.7946 16.1244C18.8213 16.1143 18.85 16.11 18.8785 16.1117H29.5782C29.7495 16.1117 29.8351 16.1968 29.8351 16.3245H29.8323Z" fill="#C6C6C6"/>
<path d="M30.4485 17.5581C31.1815 17.5581 31.7758 16.9676 31.7758 16.239C31.7758 15.5105 31.1815 14.9199 30.4485 14.9199C29.7154 14.9199 29.1211 15.5105 29.1211 16.239C29.1211 16.9676 29.7154 17.5581 30.4485 17.5581Z" fill="#C6C6C6"/>
<path d="M32.8861 16.2297C32.8861 16.4918 32.8079 16.7481 32.6614 16.966C32.5148 17.184 32.3065 17.3539 32.0628 17.4542C31.8191 17.5545 31.551 17.5807 31.2923 17.5296C31.0335 17.4785 30.7959 17.3522 30.6094 17.1669C30.4229 16.9815 30.2958 16.7454 30.2444 16.4883C30.1929 16.2312 30.2193 15.9647 30.3203 15.7225C30.4212 15.4803 30.5922 15.2733 30.8115 15.1277C31.0308 14.982 31.2887 14.9043 31.5524 14.9043C31.9032 14.9135 32.2371 15.056 32.4853 15.3026C32.7334 15.5492 32.8769 15.8811 32.8861 16.2297Z" fill="#81C700"/>
<path d="M35.0858 28.6016C35.0759 28.8376 34.9851 29.0631 34.8284 29.2408C34.6717 29.4184 34.4587 29.5375 34.2245 29.5782H16.0703C15.8361 29.5375 15.623 29.4184 15.4664 29.2408C15.3097 29.0631 15.2189 28.8376 15.209 28.6016V22.6024C15.209 22.0918 15.706 21.4961 16.0703 21.4961H34.2245C34.6218 21.4961 35.0858 22.0918 35.0858 22.6024V28.6016Z" fill="#333333"/>
<path d="M35.0859 27.9043C35.0397 28.1686 34.9042 28.4093 34.7018 28.5868C34.4995 28.7644 34.2423 28.8681 33.9727 28.8809" fill="#4B4F4E"/>
<path d="M17.7797 26.899C17.7797 26.9841 17.6513 27.0692 17.5657 27.0692C17.48 27.1117 17.3516 27.0266 17.3516 26.899V24.2601C17.3516 24.1749 17.48 24.0898 17.5657 24.0898C17.6513 24.0898 17.7797 24.1749 17.7797 24.2601V26.899Z" fill="#C6C6C6"/>
<path d="M19.065 26.8564C19.0621 26.9006 19.0431 26.9422 19.0116 26.9735C18.9801 27.0048 18.9382 27.0237 18.8938 27.0266H18.851C18.8065 27.0237 18.7646 27.0048 18.7331 26.9735C18.7016 26.9422 18.6826 26.9006 18.6797 26.8564V24.2601C18.6826 24.2159 18.7016 24.1743 18.7331 24.143C18.7646 24.1117 18.8065 24.0928 18.851 24.0898H18.8938C18.9382 24.0928 18.9801 24.1117 19.0116 24.143C19.0431 24.1743 19.0621 24.2159 19.065 24.2601V26.8564Z" fill="#C6C6C6"/>
<path d="M20.3502 26.8564C20.3472 26.9006 20.3282 26.9422 20.2967 26.9735C20.2652 27.0048 20.2234 27.0237 20.1789 27.0266H20.1361C20.0917 27.0237 20.0498 27.0048 20.0183 26.9735C19.9868 26.9422 19.9678 26.9006 19.9648 26.8564V24.2601C19.9678 24.2159 19.9868 24.1743 20.0183 24.143C20.0498 24.1117 20.0917 24.0928 20.1361 24.0898H20.1789C20.2234 24.0928 20.2652 24.1117 20.2967 24.143C20.3282 24.1743 20.3472 24.2159 20.3502 24.2601V26.8564Z" fill="#C6C6C6"/>
<path d="M31.8014 25.5354C31.8032 25.5638 31.7988 25.5922 31.7887 25.6188C31.7786 25.6454 31.7628 25.6696 31.7426 25.6897C31.7224 25.7098 31.6981 25.7254 31.6713 25.7355C31.6445 25.7456 31.6159 25.7499 31.5874 25.7482H18.8668C18.8382 25.7499 18.8096 25.7456 18.7829 25.7355C18.7561 25.7254 18.7318 25.7098 18.7116 25.6897C18.6913 25.6696 18.6756 25.6454 18.6655 25.6188C18.6553 25.5922 18.651 25.5638 18.6527 25.5354C18.651 25.507 18.6553 25.4786 18.6655 25.452C18.6756 25.4254 18.6913 25.4012 18.7116 25.3811C18.7318 25.361 18.7561 25.3454 18.7829 25.3353C18.8096 25.3252 18.8382 25.3209 18.8668 25.3226H31.5866C31.6152 25.3209 31.6438 25.3252 31.6706 25.3353C31.6974 25.3454 31.7217 25.361 31.7419 25.3811C31.7621 25.4012 31.7779 25.4254 31.788 25.452C31.7981 25.4786 31.8032 25.507 31.8014 25.5354Z" fill="#C6C6C6"/>
<path d="M30.4406 26.898C31.1737 26.898 31.768 26.3074 31.768 25.5789C31.768 24.8504 31.1737 24.2598 30.4406 24.2598C29.7076 24.2598 29.1133 24.8504 29.1133 25.5789C29.1133 26.3074 29.7076 26.898 30.4406 26.898Z" fill="#C6C6C6"/>
<path d="M32.9017 24.8824C32.9017 25.0087 32.8641 25.1321 32.7935 25.237C32.7229 25.342 32.6226 25.4238 32.5052 25.4721C32.3879 25.5204 32.2587 25.5331 32.1342 25.5084C32.0096 25.4838 31.8951 25.423 31.8053 25.3337C31.7155 25.2445 31.6543 25.1308 31.6295 25.0069C31.6047 24.8831 31.6175 24.7548 31.6661 24.6382C31.7147 24.5215 31.797 24.4218 31.9026 24.3517C32.0083 24.2816 32.1324 24.2441 32.2595 24.2441C32.4285 24.2482 32.5895 24.3168 32.7091 24.4356C32.8287 24.5544 32.8976 24.7144 32.9017 24.8824Z" fill="#4AFFA8"/>
<path d="M32.6867 25.3487C32.6281 25.4094 32.5579 25.4578 32.4803 25.4912C32.4026 25.5246 32.319 25.5423 32.2344 25.5431C32.1498 25.544 32.0658 25.5281 31.9874 25.4963C31.9091 25.4645 31.8379 25.4175 31.7781 25.3581C31.7182 25.2986 31.6709 25.2279 31.639 25.15C31.607 25.0721 31.591 24.9887 31.5918 24.9046C31.5927 24.8205 31.6105 24.7374 31.6441 24.6602C31.6777 24.583 31.7265 24.5133 31.7875 24.4551" fill="#36E88F"/>
<path d="M35.0858 37.2416C35.0739 37.4643 34.9792 37.6746 34.82 37.8319C34.6609 37.9891 34.4487 38.082 34.2245 38.0926H16.0703C15.8461 38.082 15.6339 37.9891 15.4748 37.8319C15.3156 37.6746 15.2209 37.4643 15.209 37.2416V31.2424C15.2217 31.0237 15.3179 30.8181 15.4779 30.6675C15.638 30.5168 15.8498 30.4326 16.0703 30.4319H34.2245C34.4463 30.4268 34.6611 30.5088 34.8224 30.6602C34.9836 30.8116 35.0783 31.02 35.0858 31.2403V37.2395V37.2416Z" fill="#333333"/>
<path d="M17.7797 35.5396C17.7797 35.6247 17.6513 35.7098 17.5657 35.7098C17.48 35.7524 17.3516 35.6672 17.3516 35.5396V32.9007C17.3516 32.8156 17.48 32.7305 17.5657 32.7305C17.6513 32.7305 17.7797 32.8156 17.7797 32.9007V35.5396Z" fill="#C6C6C6"/>
<path d="M19.0649 35.5396C19.0649 35.6247 18.9364 35.7098 18.8508 35.7098C18.7652 35.7098 18.6367 35.6247 18.6367 35.5396V32.9007C18.6367 32.8156 18.7652 32.7305 18.8508 32.7305C18.9364 32.7305 19.0649 32.8156 19.0649 32.9007V35.5396Z" fill="#C6C6C6"/>
<path d="M20.3501 35.5396C20.3501 35.6247 20.2216 35.7098 20.136 35.7098C20.0503 35.7098 19.9219 35.6247 19.9219 35.5396V32.9007C19.9219 32.8156 20.0503 32.7305 20.136 32.7305C20.2216 32.7305 20.3501 32.8156 20.3501 32.9007V35.5396Z" fill="#C6C6C6"/>
<path d="M31.5651 34.051C31.5668 34.0794 31.5625 34.1078 31.5523 34.1344C31.5422 34.161 31.5265 34.1852 31.5062 34.2053C31.486 34.2254 31.4617 34.241 31.4349 34.2511C31.4082 34.2612 31.3795 34.2655 31.351 34.2638H18.5055C18.4769 34.2655 18.4483 34.2612 18.4215 34.2511C18.3948 34.241 18.3705 34.2254 18.3502 34.2053C18.33 34.1852 18.3143 34.161 18.3041 34.1344C18.294 34.1078 18.2896 34.0794 18.2914 34.051C18.2896 34.0226 18.294 33.9942 18.3041 33.9676C18.3143 33.941 18.33 33.9169 18.3502 33.8967C18.3705 33.8766 18.3948 33.861 18.4215 33.8509C18.4483 33.8409 18.4769 33.8365 18.5055 33.8383H31.3109C31.4822 33.8383 31.5679 33.9234 31.5679 34.051H31.5651Z" fill="#C6C6C6"/>
<path d="M31.4778 35.5406C32.2108 35.5406 32.8051 34.95 32.8051 34.2215C32.8051 33.4929 32.2108 32.9023 31.4778 32.9023C30.7447 32.9023 30.1504 33.4929 30.1504 34.2215C30.1504 34.95 30.7447 35.5406 31.4778 35.5406Z" fill="#C6C6C6"/>
<path d="M30.3005 34.1613C30.6552 34.1613 30.9428 33.8756 30.9428 33.523C30.9428 33.1705 30.6552 32.8848 30.3005 32.8848C29.9458 32.8848 29.6582 33.1705 29.6582 33.523C29.6582 33.8756 29.9458 34.1613 30.3005 34.1613Z" fill="#1BCC73"/>
<path d="M30.7687 33.9912C30.7102 34.0519 30.64 34.1004 30.5623 34.1338C30.4846 34.1672 30.401 34.1848 30.3164 34.1857C30.2318 34.1866 30.1478 34.1707 30.0695 34.1389C29.9911 34.1071 29.9199 34.0601 29.8601 34.0006C29.8003 33.9412 29.753 33.8704 29.721 33.7926C29.689 33.7147 29.673 33.6313 29.6739 33.5472C29.6747 33.4631 29.6925 33.38 29.7261 33.3028C29.7597 33.2256 29.8085 33.1559 29.8695 33.0977" fill="#36E88F"/>
<path d="M32.9017 33.523C32.9017 33.6493 32.8641 33.7727 32.7935 33.8776C32.7229 33.9826 32.6226 34.0644 32.5052 34.1127C32.3879 34.161 32.2587 34.1737 32.1342 34.1491C32.0096 34.1244 31.8951 34.0636 31.8053 33.9744C31.7155 33.8851 31.6543 33.7714 31.6295 33.6476C31.6047 33.5238 31.6175 33.3954 31.6661 33.2788C31.7147 33.1621 31.797 33.0625 31.9026 32.9923C32.0083 32.9222 32.1324 32.8848 32.2595 32.8848C32.4285 32.8888 32.5895 32.9574 32.7091 33.0762C32.8287 33.195 32.8976 33.355 32.9017 33.523Z" fill="#4AFFA8"/>
<path d="M32.6867 33.9912C32.6281 34.0519 32.5579 34.1004 32.4803 34.1338C32.4026 34.1672 32.319 34.1848 32.2344 34.1857C32.1498 34.1866 32.0658 34.1707 31.9874 34.1389C31.9091 34.1071 31.8379 34.0601 31.7781 34.0006C31.7182 33.9412 31.6709 33.8704 31.639 33.7926C31.607 33.7147 31.591 33.6313 31.5918 33.5472C31.5927 33.4631 31.6105 33.38 31.6441 33.3028C31.6777 33.2256 31.7265 33.1559 31.7875 33.0977" fill="#36E88F"/>
</g>
</g>
<defs>
<clipPath id="clip0_678_41261">
<rect width="48" height="48" fill="white"/>
</clipPath>
<clipPath id="clip1_678_41261">
<rect width="48" height="48" fill="white"/>
</clipPath>
</defs>
</svg>
