<svg width="12" height="12" viewBox="0 0 12 12" fill="none" xmlns="http://www.w3.org/2000/svg">
<path d="M5.57135 4.37101C5.57135 4.13432 5.76323 3.94244 5.99993 3.94244C6.23662 3.94244 6.4285 4.13432 6.4285 4.37101V6.81186L7.43966 7.99211C7.59367 8.17182 7.57248 8.44243 7.39278 8.59646C7.21307 8.75029 6.9424 8.72922 6.78843 8.54959L5.67431 7.24964C5.60788 7.17201 5.57135 7.07309 5.57135 6.9709V4.37101Z" fill="#626262"/>
<path d="M1.79708 0.725135C1.96445 0.557851 2.23577 0.557795 2.40311 0.725135C2.57036 0.892481 2.57036 1.16382 2.40311 1.33116L0.731511 3.00276C0.564164 3.17001 0.29283 3.17001 0.125484 3.00276C-0.0418558 2.83542 -0.0418 2.56411 0.125484 2.39673L1.79708 0.725135Z" fill="#626262"/>
<path d="M9.59693 0.725135C9.7643 0.557767 10.0356 0.557767 10.203 0.725135L11.8746 2.39673C12.0418 2.56411 12.0419 2.83545 11.8746 3.00276C11.7072 3.17007 11.4359 3.16996 11.2685 3.00276L9.59693 1.33116C9.42956 1.16379 9.42956 0.892503 9.59693 0.725135Z" fill="#626262"/>
<path fill-rule="evenodd" clip-rule="evenodd" d="M6.00011 11.4856C7.1916 11.4856 8.28352 11.059 9.13148 10.3502L10.1559 11.3616C10.3242 11.5278 10.5956 11.5264 10.7619 11.3582C10.9281 11.1899 10.9266 10.9185 10.7586 10.7522L9.73868 9.74528C10.4546 8.89533 10.886 7.79787 10.886 6.59974C10.886 3.90149 8.69834 1.71395 6.00011 1.71386C3.30181 1.71386 1.11423 3.90143 1.11423 6.59974C1.11427 7.80328 1.54952 8.90523 2.27118 9.75677L1.24481 10.7488C1.07481 10.9133 1.07035 11.1847 1.23477 11.3548C1.39927 11.5248 1.67066 11.5293 1.84079 11.3649L2.88043 10.36C3.72672 11.0629 4.81408 11.4856 6.00011 11.4856ZM8.8665 9.43051C8.84976 9.44745 8.83287 9.46425 8.81584 9.4809C8.08951 10.1908 7.09587 10.6284 6.00011 10.6285C3.77525 10.6285 1.97146 8.82458 1.97137 6.59974C1.97137 4.37482 3.77519 2.571 6.00011 2.571C8.22495 2.57109 10.0289 4.37488 10.0289 6.59974C10.0288 7.70308 9.58513 8.70289 8.8665 9.43051Z" fill="#626262"/>
</svg>
