<svg width="20" height="20" viewBox="0 0 20 20" fill="none" xmlns="http://www.w3.org/2000/svg">
<mask id="mask0_av_small" style="mask-type:alpha" maskUnits="userSpaceOnUse" x="0" y="0" width="20" height="20">
<circle cx="10" cy="10" r="10" fill="#D5E0F8"/>
</mask>
<g mask="url(#mask0_av_small)">
<circle cx="10" cy="10" r="9.5" fill="url(#paint0_linear_av_small)" stroke="#C4D0F3"/>
<path d="M1.91207 17.5924C2.78334 16.1619 5.67523 16.1206 6.9211 16.1295C7.72298 16.1295 8.01358 15.3386 7.99688 14.543C8.59999 14.9843 9.29492 15.2374 10.0352 15.2374C10.7756 15.2374 11.471 14.9849 12.0736 14.543C12.0564 15.3396 12.3465 16.129 13.1494 16.1295C14.3952 16.1212 17.2871 16.1619 18.1584 17.5924C19.0297 19.023 19.4961 20.8114 19.4961 20.8114H0.57386C0.57386 20.8114 1.0408 19.023 1.91155 17.5924H1.91207Z" fill="#FDBC91"/>
<path d="M1.91441 17.5916C2.78568 16.161 5.67757 16.1198 6.92396 16.1282C7.31942 16.1282 7.59071 15.9357 7.76184 15.6445C9.98854 16.809 11.8271 15.9341 12.3191 15.6524C12.4902 15.9383 12.7599 16.1276 13.1528 16.1282C14.3986 16.1198 17.291 16.1605 18.1623 17.5916C19.0336 19.0221 19.5 20.8106 19.5 20.8106H0.5762C0.5762 20.8106 1.04314 19.0221 1.91389 17.5916H1.91441Z" fill="#E3E3E3"/>
<path d="M10.0351 16.2227L10.668 17.1398L10.0346 17.8374L9.44923 17.1398L10.0351 16.2227Z" fill="#0055F2"/>
<path d="M11.0391 20.8101L10.0342 16.2227L9.11079 20.8101H11.0391Z" fill="#0055F2"/>
<path d="M12.112 15.0488L10.0392 16.2243L11.0414 17.6752L12.7344 16.0145L12.112 15.0488Z" fill="white"/>
<path d="M7.96627 15.0488L10.0391 16.2243L9.11249 17.6752L7.34386 16.0145L7.96627 15.0488Z" fill="white"/>
<path d="M7.91012 13.9118C7.25276 13.3165 6.75973 12.4573 6.442 11.4926C6.24949 11.7571 5.95733 11.4905 5.92185 11.2438C5.92498 10.865 5.22223 9.15009 6.01628 9.21583C6.01628 9.21583 6.01993 9.22365 6.02672 9.23722C5.48726 1.93889 14.5923 1.9488 14.0471 9.24035C14.0544 9.22522 14.0591 9.21635 14.0591 9.21635C14.8532 9.1527 14.1504 10.8624 14.1535 11.2443C14.1181 11.4916 13.8249 11.7582 13.6323 11.4921C13.3146 12.4573 12.8216 13.3176 12.1637 13.9129C11.5408 14.3955 10.814 14.673 10.0372 14.673C9.26033 14.673 8.53358 14.3955 7.91065 13.9129L7.91012 13.9118Z" fill="#FDBC91"/>
<path d="M7.9997 14.5423C7.99553 14.3326 7.96996 14.1224 7.92614 13.9262C7.92092 13.9215 7.91623 13.9168 7.91101 13.9121C8.53394 14.3947 9.2607 14.6723 10.0375 14.6723C10.8144 14.6723 11.5411 14.3947 12.1641 13.9121C12.1588 13.9168 12.1541 13.9215 12.1495 13.9262C12.1062 14.1224 12.0806 14.3326 12.0764 14.5423C11.4733 14.9842 10.7784 15.2368 10.0381 15.2368C9.29774 15.2368 8.60281 14.9842 7.9997 14.5423Z" fill="#F2AD80"/>
<path d="M6.09191 9.53904L6.53172 10.5042C6.53172 10.5042 6.51242 6.35864 8.10105 6.70714C9.68969 7.05565 11.3748 6.87879 11.9753 6.68627C12.5758 6.49376 13.312 7.13339 13.312 7.90814C13.312 8.68289 13.7382 10.3294 13.7382 10.3294C13.7382 10.3294 14.4551 8.14031 14.4165 7.15269C14.3779 6.16456 13.913 4.1502 11.6268 3.51057C11.6268 3.51057 10.5719 2.87146 10.0919 2.89077L10.2552 3.18137C10.2552 3.18137 9.72882 3.21997 9.36048 2.73582C9.36048 2.73582 9.28275 2.9685 9.36048 3.21997C9.43822 3.47196 8.58573 2.86468 8.5273 2.5C8.5273 2.5 8.31443 2.81303 8.31443 2.92937C8.31443 3.04572 8.06244 2.73895 8.06244 2.61947C8.06244 2.5 7.50055 3.00711 7.40403 3.35562C7.40403 3.35562 7.28769 3.20067 7.3263 3.00711C7.3263 3.00711 6.7065 3.60396 6.66789 4.08029C6.66789 4.08029 6.47433 4.09177 6.39659 3.72343C6.39659 3.72343 5.89314 4.28532 5.8347 4.98286C5.8347 4.98286 5.58271 4.86652 5.58271 4.77C5.58271 4.67348 5.35003 5.83222 5.58271 6.50211C5.58271 6.50211 5.38915 6.49428 5.36985 6.35864C5.35055 6.22299 5.46689 7.19182 5.66045 7.34677L5.36776 7.17252C5.36776 7.17252 5.82949 8.96254 6.09243 9.53956L6.09191 9.53904Z" fill="#571F00"/>
<path d="M1.91156 17.5879C2.78231 16.1495 5.67316 16.1078 6.9185 16.1167C7.13501 16.1167 7.31396 16.0582 7.46004 15.9581L10.0264 20.8252L12.6016 15.957C12.7477 16.0577 12.9271 16.1167 13.1442 16.1167C14.3895 16.1083 17.2804 16.1495 18.1511 17.5879C19.0219 19.0263 19.4883 20.8247 19.4883 20.8247H0.574394C0.574394 20.8247 1.04081 19.0263 1.91156 17.5879Z" fill="#292929"/>
<path d="M12.0684 14.8027L13.3477 16.5813L12.708 17.0153L13.5 17.8178L10.028 20.7822L12.2202 15.974L12.0684 14.8027Z" fill="black"/>
<path d="M7.99081 14.8027L6.71103 16.5813L7.35066 17.0153L6.55921 17.8178L10.0312 20.7822L7.83899 15.974L7.99081 14.8027Z" fill="black"/>
</g>
<defs>
<linearGradient id="paint0_linear_av_small" x1="3.19551" y1="-7.40439" x2="20" y2="17.9994" gradientUnits="userSpaceOnUse">
<stop stop-color="#C4D0F3"/>
<stop offset="0.543269" stop-color="#C4D0F3" stop-opacity="0"/>
<stop offset="0.932692" stop-color="#C4D0F3" stop-opacity="0"/>
</linearGradient>
</defs>
</svg>
