<svg width="15" height="15" viewBox="0 0 15 15" fill="none" xmlns="http://www.w3.org/2000/svg">
<path d="M12.6376 8.05753V12.8662C12.6374 13.077 12.5956 13.2857 12.5144 13.4802C12.4332 13.6748 12.3143 13.8514 12.1646 13.9998C11.8611 14.3006 11.4509 14.4693 11.0235 14.469H2.145C1.71763 14.4693 1.30748 14.3006 1.00394 13.9998C0.854192 13.8514 0.735304 13.6748 0.654129 13.4802C0.572953 13.2857 0.531097 13.077 0.530973 12.8662V4.0508C0.531097 3.83998 0.572953 3.63127 0.654129 3.4367C0.735304 3.24214 0.854192 3.06557 1.00394 2.91717C1.30748 2.61633 1.71763 2.44767 2.145 2.44792H6.98801M12.1535 0.530973L14.469 3.61314L11.3729 5.90177M14.469 3.615L12.3495 3.25632C11.5882 3.15881 10.8146 3.24406 10.0928 3.50502C9.37096 3.76599 8.7217 4.19516 8.19876 4.75699C7.67846 5.31686 7.30048 5.99368 7.0967 6.73033C6.89293 7.46698 6.86936 8.24184 7.02797 8.98951" stroke="black" stroke-linecap="round" stroke-linejoin="round"/>
</svg>
