<svg width="48" height="48" viewBox="0 0 48 48" fill="none" xmlns="http://www.w3.org/2000/svg">
<g clip-path="url(#clip0_678_41185)">
<path d="M46.2566 15.9208C45.5759 15.5341 44.0427 15.1216 41.9637 14.7739L40.5796 16.9916C42.0733 17.1276 43.4703 17.3339 44.7181 17.6234C44.8173 17.6467 44.8635 17.6574 44.8635 17.6574C44.8173 17.6467 44.7643 17.6341 44.7181 17.6234C44.3046 17.5312 42.995 17.2832 40.6114 17.1458C41.2967 18.209 42.4828 19.7484 43.5118 20.9958C46.0213 20.0936 46.5833 18.6902 46.5833 18.6902C46.5833 18.6902 47.6412 16.7097 46.2456 15.9215L46.2566 15.9208Z" fill="url(#paint0_linear_678_41185)"/>
<path d="M27.4012 22.0302C27.2991 21.9079 27.1936 21.7846 27.0865 21.6536C27.0865 21.6536 27.0853 21.6515 27.0832 21.6527C27.1362 21.7199 27.1881 21.7849 27.2399 21.8499C27.2935 21.9082 27.3463 21.9698 27.4012 22.0302Z" fill="#BD202E"/>
<path d="M27.4012 22.0302C27.2991 21.9079 27.1936 21.7846 27.0865 21.6536C27.0865 21.6536 27.0853 21.6515 27.0832 21.6527C27.1362 21.7199 27.1881 21.7849 27.2399 21.8499C27.2935 21.9082 27.3463 21.9698 27.4012 22.0302Z" fill="black"/>
<path d="M29.3496 21.395C29.3484 21.3928 29.3484 21.3928 29.3462 21.394C29.3608 21.4144 29.3788 21.4356 29.3956 21.4547C29.4608 21.538 29.5268 21.6178 29.5981 21.6917C29.5165 21.5949 29.4349 21.4982 29.3496 21.395Z" fill="#BD202E"/>
<path d="M29.3496 21.395C29.3484 21.3928 29.3484 21.3928 29.3462 21.394C29.3608 21.4144 29.3788 21.4356 29.3956 21.4547C29.4608 21.538 29.5268 21.6178 29.5981 21.6917C29.5165 21.5949 29.4349 21.4982 29.3496 21.395Z" fill="black"/>
<path d="M33.6072 16.836C34.3966 16.8119 35.1735 16.8007 35.9344 16.8016C36.7286 16.8006 37.5051 16.8184 38.2657 16.8483C38.309 16.8492 38.357 16.8531 38.4004 16.8539C39.1478 16.8857 39.8783 16.9329 40.5831 16.995L41.9672 14.7774C41.8247 14.7532 41.6799 14.7303 41.5297 14.7077C40.9698 14.6195 40.3793 14.5375 39.7547 14.4608C39.0527 14.374 38.3115 14.2984 37.5396 14.229C36.8292 14.1672 36.0903 14.1105 35.33 14.0661C34.6844 14.0273 34.0271 13.9982 33.3571 13.9765C33.3337 13.9756 33.3082 13.9759 33.2826 13.9763L31.3607 16.9361C32.1198 16.8891 32.871 16.8583 33.6072 16.836Z" fill="url(#paint1_linear_678_41185)"/>
<path d="M14.6269 19.3637C14.0214 19.4687 13.4018 19.579 12.7748 19.6963C12.7672 19.6979 12.7573 19.7007 12.7484 19.7001C12.6606 19.7163 12.5693 19.7316 12.4827 19.7499C12.0588 19.8278 11.6792 19.9031 10.8176 20.0696C10.8687 20.5839 10.5692 21.1942 10.1954 21.8243C10.7492 21.4615 11.1503 20.9134 11.3034 20.2179C12.3758 22.2833 13.8873 23.7326 15.8605 23.7732C16.0373 23.7775 16.2148 23.7729 16.4014 23.7544C15.6513 23.6436 15.1419 23.2615 14.6439 22.2801C16.0777 23.3226 17.0809 23.6785 18.4223 23.7241C18.7429 23.7347 19.0815 23.732 19.4514 23.7141C17.4937 23.21 16.3254 22.0085 15.7234 20.3419L14.9533 19.2903C14.8378 19.3081 14.7269 19.329 14.6114 19.3467L14.6269 19.3637Z" fill="url(#paint2_linear_678_41185)"/>
<path d="M17.4251 18.4682C18.1864 18.3509 18.9613 18.2373 19.743 18.1255C20.494 18.02 21.2518 17.9163 22.0145 17.8212C22.7772 17.7261 23.5489 17.6316 24.3209 17.5427C25.1061 17.4519 25.8942 17.3709 26.6839 17.2977C27.4646 17.2239 28.2423 17.1547 29.0151 17.097C29.2936 17.0743 29.5747 17.0559 29.8523 17.0366C30.3334 17.0034 30.8136 16.9736 31.2908 16.9484C31.3163 16.9481 31.3428 16.9443 31.3683 16.944L33.2902 13.9842C33.2413 13.9837 33.189 13.9822 33.141 13.9783C32.4288 13.9579 31.7071 13.9458 30.9785 13.9464C30.2409 13.9464 29.4963 13.9591 28.7469 13.9832C28.1162 14.0049 27.4858 14.0322 26.8494 14.0687C26.7221 14.076 26.5939 14.0867 26.4666 14.094C25.6725 14.1497 24.9216 14.2207 24.2016 14.3055C23.3899 14.4001 22.6261 14.513 21.9131 14.6398C21.4428 14.7215 20.9962 14.8095 20.5674 14.8988C20.2047 14.9787 19.8437 15.0664 19.4847 15.1527C18.6447 15.3615 17.8208 15.5984 17.0114 15.87L15.0717 18.8487C15.6665 18.7498 16.2736 18.6525 16.8874 18.5571C17.0647 18.5324 17.2362 18.5025 17.4058 18.4794L17.4251 18.4682Z" fill="url(#paint3_linear_678_41185)"/>
<path d="M16.908 15.8889C15.9323 16.2191 14.9895 16.5966 14.0828 17.0366L13.989 17.0821C14.4299 16.2463 14.4338 14.6932 14.4286 14.6991C13.71 16.2275 12.8743 17.553 11.7701 18.3143C11.4221 17.9196 11.2003 17.2333 11.0502 16.3791C10.8018 17.5037 10.9364 18.1626 11.0107 18.4103C10.5766 17.7574 9.70946 17.3201 8.76779 16.9171C9.78734 17.7125 10.4393 18.4554 10.653 19.1376C7.42214 19.7312 3.9125 20.4857 0.204906 21.343C0.46012 21.5869 0.758301 21.6478 1.0781 21.5927C1.74473 21.4351 6.1379 20.4036 12.0458 19.3464C12.215 19.3177 12.3852 19.2856 12.5545 19.2569C12.6027 19.2464 12.65 19.2392 12.6952 19.2333C13.3169 19.1217 13.9556 19.0148 14.6063 18.9039C14.7547 18.8786 14.903 18.8534 15.0527 18.8303C15.0548 18.8291 15.0582 18.83 15.0603 18.8288L16.9987 15.848C16.9684 15.8597 16.9325 15.8718 16.8966 15.8839L16.908 15.8889Z" fill="url(#paint4_linear_678_41185)"/>
<path d="M31.2591 17.2723C31.1539 17.2783 31.05 17.2865 30.9448 17.2926C30.6285 17.3141 30.3079 17.3381 29.9783 17.3614C29.6223 17.3886 29.262 17.4182 28.8919 17.4506C28.7063 17.4657 28.5184 17.4821 28.3285 17.4997C27.7607 17.5512 27.1768 17.6093 26.5753 17.6717C25.8391 17.7485 25.0723 17.8316 24.2819 17.9283C23.529 18.0206 22.7518 18.1154 21.9523 18.2259C21.1933 18.3275 20.4116 18.4393 19.6102 18.5567C18.8958 18.6612 18.1609 18.7748 17.411 18.897C17.3769 18.9023 17.3385 18.9101 17.3044 18.9154C16.5587 19.0351 15.7947 19.1626 15.0156 19.2988C14.9981 19.3031 14.9815 19.3041 14.9619 19.3097L15.732 20.3613C15.7238 20.3372 15.7123 20.3122 15.7041 20.2882C16.6429 21.533 18.6728 22.7463 20.5725 23.1746C21.4451 23.3786 22.3919 23.4736 23.4312 23.4663C24.2028 23.461 25.031 23.4001 25.917 23.2857C26.6904 23.1844 27.5113 23.0414 28.3807 22.8588C28.0418 22.643 27.7186 22.3606 27.4128 22.0192C27.358 21.9588 27.3052 21.8972 27.2513 21.8334C27.1973 21.7696 27.1454 21.7046 27.0945 21.6362C27.0945 21.6362 27.0957 21.6383 27.0979 21.6371C28.2987 22.6127 29.6754 22.8681 31.1356 22.7875C30.7232 22.5883 30.1226 22.2214 29.6132 21.661C29.5441 21.5858 29.478 21.506 29.4106 21.424C29.396 21.4037 29.378 21.3824 29.3613 21.3633L29.3638 21.3676C29.7956 21.6995 30.2098 21.9466 30.631 22.1265C30.7223 22.1658 30.8124 22.203 30.903 22.2312C31.0427 22.2801 31.1829 22.32 31.3253 22.3586C31.4178 22.38 31.5089 22.3993 31.6023 22.4174C31.8225 22.4571 32.0484 22.4821 32.2823 22.4909C32.3546 22.4923 32.4259 22.4972 32.4991 22.4952C32.6034 22.4925 32.7052 22.4856 32.8026 22.4811C33.2509 22.4554 33.6449 22.4149 33.9808 22.3677C34.1504 22.3446 34.3022 22.3203 34.4472 22.2941C34.5043 22.2842 34.5581 22.2733 34.6118 22.2624C34.7688 22.2322 34.9045 22.1999 35.0236 22.1685C35.2029 22.1225 35.3401 22.0779 35.4354 22.0401C35.3784 22.0155 35.3166 21.9878 35.2521 21.9503C34.8089 21.7026 34.2336 21.1715 33.8356 20.705C33.8297 20.6998 33.8247 20.6911 33.8176 20.6837C33.7779 20.6347 33.7406 20.5901 33.7031 20.5398L33.7309 20.5583L31.3162 17.2623C31.3076 17.2673 31.2889 17.2695 31.2723 17.2704L31.2591 17.2723Z" fill="url(#paint5_linear_678_41185)"/>
<path d="M40.6252 17.1579C39.9664 17.121 39.2271 17.0932 38.3974 17.0773C38.3562 17.0753 38.3073 17.0747 38.2673 17.0748C37.5524 17.0646 36.7748 17.0646 35.9269 17.0765C35.1968 17.0895 34.4206 17.1118 33.5919 17.1471C32.8696 17.1785 32.108 17.2212 31.3059 17.2728L33.7206 20.5688C34.7832 21.3249 35.4697 21.5385 36.3418 21.6278C36.5784 21.6465 36.824 21.6659 37.0757 21.6759C37.8468 21.7142 38.6687 21.7115 39.4672 21.6735C40.238 21.637 40.9813 21.5676 41.6326 21.4677C42.0453 21.405 42.4194 21.33 42.7383 21.2437C43.018 21.1686 43.2782 21.0845 43.5215 20.9958C42.4991 19.7647 41.308 18.2167 40.619 17.1471L40.6252 17.1579Z" fill="url(#paint6_linear_678_41185)"/>
<path d="M27.234 21.8408C27.18 21.777 27.1282 21.712 27.0772 21.6436C27.126 21.7132 27.1812 21.7792 27.234 21.8408Z" fill="#BD202E"/>
<path opacity="0.35" d="M27.234 21.8408C27.18 21.777 27.1282 21.712 27.0772 21.6436C27.126 21.7132 27.1812 21.7792 27.234 21.8408Z" fill="#BD202E"/>
<path d="M27.234 21.8408C27.18 21.777 27.1282 21.712 27.0772 21.6436C27.126 21.7132 27.1812 21.7792 27.234 21.8408Z" fill="url(#paint7_linear_678_41185)"/>
<path d="M29.3506 21.3949C29.3652 21.4152 29.3832 21.4365 29.4 21.4556C29.3853 21.4352 29.3665 21.4174 29.3506 21.3949Z" fill="#BD202E"/>
<path opacity="0.35" d="M29.3506 21.3949C29.3652 21.4152 29.3832 21.4365 29.4 21.4556C29.3853 21.4352 29.3665 21.4174 29.3506 21.3949Z" fill="#BD202E"/>
<path d="M29.3506 21.3949C29.3652 21.4152 29.3832 21.4365 29.4 21.4556C29.3853 21.4352 29.3665 21.4174 29.3506 21.3949Z" fill="url(#paint8_linear_678_41185)"/>
<path d="M29.3502 21.3953C29.3549 21.3966 29.352 21.3983 29.3502 21.3953C29.3549 21.3966 29.352 21.3983 29.3502 21.3953Z" fill="#BD202E"/>
<path opacity="0.35" d="M29.3502 21.3953C29.3549 21.3966 29.352 21.3983 29.3502 21.3953C29.3549 21.3966 29.352 21.3983 29.3502 21.3953Z" fill="#BD202E"/>
<path d="M26.4593 35.8437C26.3339 35.8213 25.8602 35.7004 25.788 35.6723C25.6139 35.6056 25.017 35.3014 24.9449 35.2441C24.8511 35.1674 24.8389 35.1581 24.6681 35.0313C24.4989 34.9062 24.1361 34.5452 24.008 34.3754C23.9541 34.3038 23.8953 34.2266 23.877 34.2051C23.859 34.1833 23.8287 34.1467 23.8099 34.1236C23.7701 34.0751 23.4333 33.5118 23.4333 33.4897C23.4333 33.4829 23.3983 33.3999 23.3556 33.3051C23.3128 33.2103 23.2519 33.0593 23.2208 32.9694C23.1894 32.8796 23.1509 32.7765 23.1354 32.7407C23.1006 32.6602 23.0056 32.216 22.9712 31.9746C22.9349 31.7178 22.936 31.0156 22.9731 30.7841C23.0707 30.1778 23.1478 29.9188 23.3708 29.4448C23.4052 29.3715 23.4335 29.2943 23.4335 29.2734C23.4335 29.2521 23.4483 29.2347 23.4664 29.2347C23.4845 29.2347 23.4993 29.2158 23.4993 29.1925C23.4993 29.1693 23.5908 29.0128 23.7023 28.8447C23.8831 28.5719 24.2959 28.1172 24.5677 27.8967C24.8489 27.6641 25.4053 27.3616 25.7381 27.2574C25.8358 27.2275 25.9528 27.1901 25.9977 27.1747C26.1647 27.1174 26.4859 27.0755 26.9019 27.0573C27.4383 27.0336 28.0003 27.1031 28.3997 27.2425C28.6964 27.3467 28.9655 27.4712 28.9877 27.5115C28.9937 27.525 29.013 27.536 29.0305 27.536C29.0999 27.536 29.4732 27.8171 29.6962 28.0375C29.9552 28.2933 30.125 28.5171 30.262 28.7816C30.3463 28.947 30.3474 28.9547 30.2884 28.9949C30.2548 29.0179 30.2119 29.0483 30.193 29.0621C30.1741 29.076 30.1198 29.1098 30.0726 29.1365C30.0255 29.1635 29.919 29.2275 29.8352 29.2787C29.6655 29.3829 29.6006 29.3757 29.5506 29.2451C29.4114 28.8808 28.774 28.2806 28.3358 28.1097C27.8565 27.919 27.5647 27.8622 27.071 27.8628C26.5485 27.8633 26.2112 27.9267 25.7952 28.1053C25.6526 28.1659 25.3481 28.3467 25.2838 28.409C25.2598 28.4321 25.2302 28.451 25.2177 28.451C25.1828 28.451 24.8172 28.8098 24.6575 29.0016C24.4833 29.2094 24.181 29.7456 24.1094 29.9716C24.081 30.0614 24.0451 30.1645 24.029 30.2003C23.8892 30.5167 23.8071 31.2806 23.8581 31.7932C23.893 32.1426 23.9663 32.5097 24.0295 32.653C24.0456 32.6889 24.0685 32.7549 24.0805 32.8001C24.1335 32.998 24.4433 33.5717 24.6053 33.7702C24.7673 33.9702 25.0629 34.2789 25.1988 34.3874C25.3525 34.5126 25.8534 34.8229 25.8978 34.8229C25.9099 34.8229 25.9577 34.8429 26.0048 34.8671C26.0515 34.8913 26.2217 34.9464 26.3831 34.9894C26.6294 35.055 26.747 35.0671 27.1209 35.0638C27.7477 35.0583 28.1416 34.9514 28.6686 34.646C29.0125 34.4465 29.4896 33.9847 29.656 33.687C29.7192 33.5752 29.7858 33.4831 29.8041 33.4826C29.874 33.4816 30.5086 33.8259 30.5086 33.8645C30.5086 33.9103 30.3172 34.2735 30.2795 34.2988C30.2662 34.3078 30.2383 34.3473 30.2174 34.3865C30.1391 34.5347 29.7791 34.8841 29.4407 35.1415C29.261 35.2782 28.7862 35.5185 28.4534 35.6392C28.0146 35.7996 27.7489 35.8426 27.1387 35.852C26.813 35.8569 26.5118 35.8544 26.4675 35.8463L26.4593 35.8437ZM0.221124 35.798C0.221124 35.7798 0.23538 35.7396 0.252853 35.7082C0.270271 35.677 0.315536 35.5781 0.353257 35.4883C0.391033 35.3984 0.434801 35.2954 0.450888 35.2595C0.466808 35.2236 0.570153 34.9812 0.680541 34.7205C0.79093 34.4598 0.894661 34.2173 0.911302 34.1815C0.927722 34.1455 0.979533 34.0205 1.02613 33.9037C1.07295 33.7869 1.12431 33.6617 1.14096 33.6259C1.1576 33.5901 1.20198 33.487 1.24025 33.3972C1.27869 33.3074 1.33122 33.1878 1.3573 33.131C1.38337 33.0742 1.40422 33.0185 1.40422 33.0064C1.40422 32.9879 1.46746 32.8372 1.56898 32.6129C1.58528 32.577 1.63665 32.452 1.6838 32.3351C1.73095 32.2183 1.78254 32.0932 1.79863 32.0573C1.8151 32.0214 1.86686 31.8964 1.91346 31.7796C1.96027 31.6627 2.0122 31.5376 2.02828 31.5018C2.04459 31.4658 2.0893 31.3629 2.12702 31.273C2.16519 31.1832 2.20967 31.0801 2.22521 31.0443C2.24113 31.0084 2.32228 30.8172 2.40604 30.6199C2.48925 30.4221 2.57135 30.2314 2.58744 30.1955C2.60369 30.1596 2.67786 29.9833 2.75163 29.8037C2.82597 29.624 2.89974 29.4476 2.91583 29.4118C2.93197 29.3759 2.99682 29.2216 3.06006 29.069C3.41452 28.2147 3.49551 28.0218 3.57428 27.8454C3.59031 27.8095 3.64195 27.6845 3.68911 27.5676C3.73626 27.4508 3.80338 27.2926 3.83888 27.2165L3.90267 27.0777H4.61826L4.69148 27.2491C4.78301 27.4624 4.88341 27.6938 4.92224 27.7798C5.03429 28.0295 5.08644 28.1546 5.08644 28.1717C5.08644 28.1899 5.14968 28.3381 5.26949 28.601C5.29529 28.6578 5.31642 28.7135 5.31642 28.7256C5.31642 28.7441 5.36724 28.8656 5.48062 29.1191C5.59267 29.3688 5.64482 29.4939 5.64482 29.511C5.64482 29.522 5.67549 29.5997 5.71305 29.6841C5.7506 29.7684 5.80347 29.8891 5.83009 29.9519C5.85716 30.0148 5.89222 30.0958 5.90831 30.1316C5.92434 30.1675 5.97598 30.2925 6.02258 30.4094C6.0694 30.5262 6.12076 30.6513 6.13685 30.6872C6.15299 30.7231 6.25667 30.9655 6.36761 31.2262C6.47856 31.4869 6.58229 31.7294 6.59838 31.7652C6.61452 31.8012 6.6518 31.8892 6.68103 31.9614C6.98335 32.7 7.10317 32.9866 7.14089 33.0748C7.16518 33.1287 7.24573 33.3195 7.32062 33.4992C7.39495 33.6788 7.46928 33.8552 7.48537 33.891C7.50146 33.9268 7.54583 34.0299 7.58411 34.1198C7.62227 34.2096 7.66676 34.3127 7.68285 34.3485C7.69894 34.3843 7.75052 34.5094 7.79768 34.6263C7.84449 34.7431 7.89641 34.8682 7.9125 34.904C8.0717 35.2546 8.27418 35.7473 8.27418 35.7859C8.27418 35.8255 8.19374 35.8336 7.79989 35.8336C7.33615 35.8336 7.32506 35.8319 7.30287 35.7603C7.28268 35.6947 7.20635 35.51 7.12369 35.3276C7.10738 35.2917 7.05546 35.1667 7.00831 35.0498C6.92788 34.8509 6.86298 34.6971 6.79419 34.5433C6.77816 34.5074 6.72651 34.3824 6.67992 34.2655C6.6331 34.1487 6.58118 34.0236 6.56509 33.9877C6.46524 33.7678 6.40034 33.613 6.40034 33.5959C6.40034 33.5849 6.37283 33.5143 6.33932 33.4388C6.30571 33.3633 6.25778 33.2542 6.23282 33.1957L6.18722 33.0894H2.29865L2.23209 33.2448C2.19559 33.3302 2.12502 33.5027 2.07566 33.6284C2.02617 33.7541 1.95805 33.9189 1.92422 33.9944C1.89038 34.0699 1.86264 34.1404 1.86264 34.1514C1.86264 34.1687 1.79774 34.3234 1.69789 34.5433C1.68158 34.5792 1.63022 34.7042 1.58307 34.8211C1.53591 34.9379 1.48433 35.0631 1.46713 35.0989C1.45027 35.1348 1.38281 35.2967 1.31791 35.4582C1.25245 35.6197 1.19143 35.7707 1.182 35.7928C1.16037 35.8446 0.216797 35.8523 0.216797 35.8005L0.221124 35.798ZM5.99018 32.3643C5.99018 32.3331 5.9417 32.2155 5.80713 31.9201C5.78133 31.8633 5.7602 31.8071 5.7602 31.7944C5.7602 31.7819 5.73868 31.7255 5.71244 31.6688C5.68614 31.612 5.58208 31.3601 5.48167 31.1066C5.38127 30.8553 5.28475 30.6199 5.26811 30.5841C5.25136 30.5482 5.16937 30.3421 5.08672 30.1266C5.00351 29.9111 4.92252 29.705 4.90643 29.6692C4.89035 29.6332 4.85507 29.5523 4.82822 29.4895C4.80115 29.4267 4.74834 29.306 4.71117 29.2216C4.67367 29.1373 4.64294 29.0563 4.64294 29.042C4.64294 29.0275 4.62364 28.9791 4.60028 28.9339C4.57693 28.889 4.52207 28.7565 4.4788 28.6402C4.43531 28.5233 4.38062 28.3911 4.35732 28.3464C4.33396 28.3015 4.31477 28.2461 4.31466 28.2241C4.31411 28.1552 4.25475 28.1787 4.2309 28.2567C4.21864 28.2971 4.18902 28.3741 4.16489 28.4281C4.14098 28.4821 4.0606 28.6734 3.98627 28.8525C3.91194 29.0322 3.80765 29.2819 3.75495 29.4092C3.70236 29.5349 3.42323 30.2029 3.13367 30.8973C2.84521 31.5863 2.58505 32.2091 2.55676 32.2752L2.50462 32.3976H4.24643C5.44462 32.3976 5.98824 32.3868 5.98824 32.3631L5.99018 32.3643ZM9.21309 31.4494V27.0732L11.0437 27.0738C12.9574 27.0744 13.3069 27.0919 13.612 27.2055C13.8289 27.286 14.1645 27.4513 14.2277 27.5076C14.2513 27.5292 14.3198 27.5836 14.3803 27.6283C14.8046 27.9419 15.2124 28.5652 15.3621 29.1494C15.5119 29.7116 15.4503 30.4777 15.2135 31.0123C14.8729 31.7785 14.2982 32.3076 13.5771 32.528C13.4317 32.5717 13.1433 32.5819 11.752 32.5925L10.099 32.6048V35.8346H9.21143V31.4584L9.21309 31.4494ZM13.1128 31.7735C13.7174 31.6903 14.2111 31.2312 14.4552 30.5169C14.5395 30.2716 14.5589 29.5964 14.4891 29.3209C14.3943 28.9516 14.2206 28.6429 13.9627 28.3894C13.8346 28.2637 13.6859 28.1386 13.6315 28.1116C13.5775 28.0847 13.5261 28.0549 13.5167 28.0449C13.5077 28.0352 13.4335 27.9989 13.3525 27.9639C13.2144 27.9049 13.1018 27.9 11.6495 27.8901L10.0963 27.8796V31.8038H11.472C12.2819 31.8038 12.9587 31.7892 13.1084 31.7685L13.1128 31.7735ZM14.9544 35.8024C14.9465 35.789 14.9967 35.6459 15.0659 35.4839C15.1353 35.3224 15.3194 34.8831 15.4758 34.5028C15.6317 34.1253 15.7793 33.7753 15.8037 33.7202C15.8281 33.6663 15.9091 33.4749 15.984 33.2958C16.1149 32.9811 16.1859 32.8141 16.2475 32.673C16.2634 32.637 16.3373 32.4608 16.4117 32.2811C16.486 32.1014 16.5664 31.9102 16.5903 31.8567C16.6141 31.8033 16.7101 31.5751 16.8033 31.3502C16.8965 31.1259 17.0157 30.8387 17.0679 30.7109C17.1794 30.443 17.5527 29.5645 17.5954 29.4708C17.6116 29.4348 17.6631 29.3098 17.7097 29.193C17.7565 29.0761 17.8079 28.951 17.8245 28.9152C17.8408 28.8793 17.8855 28.7763 17.9238 28.6865C17.9623 28.5966 18.0148 28.477 18.0409 28.4203C18.0667 28.3635 18.0878 28.3078 18.0878 28.2957C18.0878 28.2772 18.1386 28.1557 18.252 27.9022C18.3174 27.7567 18.4112 27.5318 18.4839 27.3455C18.5264 27.2375 18.5748 27.1311 18.5915 27.1085C18.6124 27.0802 18.7302 27.0677 18.9753 27.0677H19.3292L19.3721 27.1741C19.4581 27.3874 19.8359 28.2764 19.9268 28.4913C19.9428 28.5272 20.0167 28.7035 20.0905 28.8832C20.1643 29.0629 20.2392 29.2392 20.2558 29.2751C20.2724 29.311 20.3984 29.6124 20.5348 29.9475C20.6718 30.2798 20.7972 30.5813 20.8133 30.6144C20.8295 30.6503 20.9198 30.8635 21.0135 31.0878C21.236 31.6186 21.4667 32.1625 21.5039 32.2452C21.5201 32.2812 21.5644 32.3841 21.6026 32.4739C21.6408 32.5638 21.6853 32.6669 21.7014 32.7027C21.7177 32.7386 21.7696 32.8636 21.8168 32.9805C21.8972 33.1794 21.9621 33.3332 22.0309 33.487C22.0469 33.5229 22.0986 33.6479 22.1457 33.7648C22.1929 33.8816 22.2528 34.0232 22.2788 34.08C22.3049 34.1368 22.3261 34.193 22.3261 34.2051C22.3261 34.2175 22.3705 34.3231 22.4248 34.4394C22.4791 34.5557 22.5236 34.6587 22.5236 34.6686C22.5236 34.6786 22.5448 34.732 22.5709 34.7888C22.5969 34.8456 22.6568 34.9872 22.704 35.1041C22.7511 35.2209 22.8033 35.346 22.8194 35.3818C22.9331 35.6332 22.9841 35.7583 22.9841 35.7886C22.9841 35.8411 22.0799 35.835 22.0411 35.7822C22.023 35.7597 21.8786 35.425 21.721 35.0381C21.5629 34.6518 21.4143 34.2941 21.3904 34.239C21.3666 34.1851 21.3083 34.0455 21.2612 33.9287C21.214 33.8118 21.1619 33.6867 21.1458 33.6509C21.1012 33.5528 20.9971 33.3053 20.9494 33.1852L20.9073 33.0788L16.9965 33.0957L16.8018 33.5691C16.6947 33.8298 16.5927 34.0767 16.5755 34.1186C16.558 34.1602 16.5438 34.2013 16.5438 34.2101C16.5438 34.2241 16.4722 34.392 16.379 34.5981C16.3627 34.634 16.3108 34.759 16.2637 34.8759C16.2165 34.9927 16.1583 35.1322 16.135 35.1862C16.1112 35.2401 16.0429 35.4055 15.9824 35.5538L15.8731 35.8233H15.421C15.1725 35.8233 14.9628 35.8123 14.9545 35.7988L14.9544 35.8024ZM20.668 32.3798C20.668 32.3637 20.5548 32.0838 20.4572 31.8584C20.4339 31.8045 20.3801 31.6649 20.3374 31.5481C20.2949 31.4312 20.2409 31.2989 20.2176 31.2543C20.1942 31.2094 20.175 31.1606 20.1749 31.1463C20.1744 31.1235 20.1167 30.9837 20.0102 30.7478C19.9939 30.7119 19.9419 30.5869 19.8948 30.47C19.8476 30.3532 19.7899 30.2137 19.7661 30.1597C19.7424 30.1058 19.6956 29.9883 19.6624 29.8985C19.6291 29.8086 19.583 29.6984 19.5597 29.6532C19.5365 29.6083 19.5175 29.559 19.5174 29.5441C19.5174 29.5288 19.4958 29.4702 19.4696 29.4134C19.4435 29.3567 19.3676 29.1709 19.301 29.0001C19.2344 28.8292 19.1546 28.6308 19.1229 28.5592C19.0916 28.4875 19.0453 28.3806 19.0203 28.3222C18.9632 28.1899 18.926 28.2004 18.87 28.3649C18.8459 28.436 18.8123 28.5231 18.7951 28.5589C18.778 28.5948 18.733 28.6978 18.6947 28.7876C18.6565 28.8775 18.6121 28.9805 18.5954 29.0163C18.5687 29.0753 18.211 29.9257 17.7689 30.9785C17.6785 31.194 17.5914 31.4001 17.5753 31.4359C17.5592 31.4717 17.4854 31.6481 17.4116 31.8278C17.3379 32.0075 17.2558 32.2026 17.2291 32.2615C17.2025 32.3205 17.1809 32.3756 17.1809 32.3839C17.1809 32.3923 17.963 32.3991 18.9227 32.3991C19.8824 32.3991 20.6645 32.3913 20.6645 32.3818L20.668 32.3798ZM31.7069 35.7859C31.6981 35.7629 31.6947 33.7962 31.6993 31.4152L31.7078 27.0887H32.562L32.5705 29.0232L32.579 30.9578H37.7379V27.0721H38.6254V35.8355H37.7379V31.7514H32.579L32.5621 35.819L32.1422 35.8281C31.8243 35.8351 31.7184 35.8271 31.7062 35.7954L31.7069 35.7859ZM40.5824 31.4483V27.0721H46.3514V27.8879H41.4533V30.9578H45.7246V31.7404H41.4533V35.0088H46.4513V35.8245H40.5713L40.5824 31.4483Z" fill="#AA0000"/>
<path d="M0 39.591V36.8793H0.460415V38.0533H1.81393V36.8793H2.27434V39.591H1.81393V38.4832H0.460415V39.591H0ZM4.04944 37.3312V39.624H3.58902V37.3312H2.76249V36.9124H4.87596V37.3312H4.04944ZM6.37925 37.3312V39.624H5.91883V37.3312H5.0923V36.9124H7.20578V37.3312H6.37925ZM8.65359 36.8903C9.06778 36.8903 9.36917 36.9691 9.55778 37.1268C9.74749 37.2844 9.84235 37.5269 9.84235 37.8543C9.84235 38.1824 9.74472 38.4231 9.54946 38.5763C9.35716 38.7288 9.06131 38.805 8.66191 38.805H8.1782V39.5987H7.71778V36.887L8.65359 36.8903ZM8.71239 38.3895C8.96719 38.3895 9.14008 38.3417 9.23105 38.2462C9.32461 38.148 9.37139 38.0059 9.37139 37.8196C9.37139 37.6311 9.31278 37.4981 9.19555 37.4205C9.07832 37.343 8.89489 37.3042 8.64527 37.3042H8.17709V38.39L8.71239 38.3895ZM12.2593 37.221C12.1265 37.221 12.0172 37.2482 11.9314 37.3026C11.8456 37.357 11.8027 37.4396 11.8027 37.5506C11.8027 37.659 11.8456 37.743 11.9314 37.8025C12.0172 37.8594 12.1993 37.9215 12.4778 37.9888C12.7589 38.056 12.9697 38.1503 13.1102 38.2715C13.2533 38.3931 13.3249 38.5728 13.3249 38.8105C13.3249 39.0457 13.2352 39.2368 13.0558 39.3837C12.8765 39.5307 12.6416 39.6044 12.3513 39.6048C11.9261 39.6048 11.547 39.4587 11.2142 39.1666L11.5026 38.8216C11.7785 39.0593 12.0651 39.1782 12.3624 39.1782C12.5107 39.1782 12.6278 39.1471 12.7136 39.085C12.802 39.0203 12.8461 38.9364 12.8461 38.8331C12.8461 38.7273 12.8045 38.6459 12.7213 38.589C12.6407 38.5294 12.5002 38.4765 12.2997 38.4302C12.0993 38.381 11.9471 38.3371 11.8432 38.2985C11.7393 38.257 11.647 38.2041 11.5664 38.1398C11.4052 38.0182 11.3246 37.8326 11.3246 37.5831C11.3246 37.3325 11.4155 37.1396 11.5975 37.0044C11.782 36.8674 12.0094 36.7988 12.2798 36.7988C12.454 36.7988 12.6268 36.8273 12.7984 36.8843C12.97 36.9412 13.1183 37.0213 13.2433 37.1246L12.9976 37.4696C12.917 37.3972 12.8077 37.3377 12.6697 37.291C12.5318 37.2443 12.3952 37.221 12.2598 37.221H12.2593ZM15.8649 36.8903V37.3208H14.4116V38.0373H15.7207V38.4446H14.4116V39.1721H15.9148V39.6025H13.9511V36.8909L15.8649 36.8903ZM18.6385 37.7722C18.6385 38.2204 18.4425 38.5015 18.0505 38.6154L18.7661 39.602H18.1781L17.5291 38.6926H16.9244V39.602H16.464V36.8903H17.4791C17.897 36.8903 18.1947 36.9601 18.3722 37.0998C18.5516 37.2394 18.6413 37.4635 18.6413 37.7722H18.6385ZM17.4958 38.2759C17.7558 38.2759 17.9327 38.2359 18.0266 38.1558C18.1206 38.0757 18.1674 37.9478 18.167 37.7722C18.167 37.594 18.1189 37.4725 18.0228 37.4079C17.9266 37.3406 17.755 37.307 17.508 37.307H16.92V38.277L17.4958 38.2759ZM20.5245 39.591H20.0098L18.9114 36.8793H19.4262L20.2638 38.902L21.1014 36.8793H21.6162L20.5245 39.591ZM23.9083 36.8903V37.3208H22.455V38.0373H23.7641V38.4446H22.455V39.1721H23.9582V39.6025H21.9945V36.8909L23.9083 36.8903ZM26.7374 37.7722C26.7374 38.2204 26.5414 38.5015 26.1494 38.6154L26.865 39.602H26.277L25.6279 38.6926H25.0233V39.602H24.5629V36.8903H25.578C25.9959 36.8903 26.2936 36.9601 26.4711 37.0998C26.6505 37.2394 26.7401 37.4635 26.7401 37.7722H26.7374ZM25.5947 38.2759C25.8546 38.2759 26.0316 38.2359 26.1255 38.1558C26.2194 38.0757 26.2662 37.9478 26.2659 37.7722C26.2659 37.594 26.2178 37.4725 26.1216 37.4079C26.0255 37.3406 25.8539 37.307 25.6069 37.307H25.0189V38.277L25.5947 38.2759ZM29.4 36.8903C29.8142 36.8903 30.1156 36.9691 30.3042 37.1268C30.4939 37.2844 30.5888 37.5269 30.5888 37.8543C30.5888 38.1824 30.4911 38.4231 30.2959 38.5763C30.1036 38.7288 29.8077 38.805 29.4083 38.805H28.9246V39.5987H28.4642V36.887L29.4 36.8903ZM29.4588 38.3895C29.7136 38.3895 29.8865 38.3417 29.9775 38.2462C30.071 38.148 30.1178 38.0059 30.1178 37.8196C30.1178 37.6311 30.0592 37.4981 29.942 37.4205C29.8247 37.343 29.6413 37.3042 29.3917 37.3042H28.9235V38.39L29.4588 38.3895ZM33.3385 37.7722C33.3385 38.2204 33.1425 38.5015 32.7505 38.6154L33.4661 39.602H32.8781L32.2291 38.6926H31.6244V39.602H31.164V36.8903H32.1791C32.597 36.8903 32.8947 36.9601 33.0722 37.0998C33.2516 37.2394 33.3413 37.4635 33.3413 37.7722H33.3385ZM32.1958 38.2759C32.4558 38.2759 32.6327 38.2359 32.7267 38.1558C32.8206 38.0757 32.8674 37.9478 32.867 37.7722C32.867 37.594 32.8189 37.4725 32.7228 37.4079C32.6266 37.3406 32.455 37.307 32.208 37.307H31.62V38.277L32.1958 38.2759ZM35.9457 37.5517C35.7611 37.3606 35.5337 37.2651 35.2634 37.2651C34.993 37.2651 34.7638 37.3606 34.5755 37.5517C34.391 37.7428 34.2987 37.9761 34.2987 38.2517C34.2987 38.5232 34.391 38.7547 34.5755 38.9461C34.7627 39.1372 34.9919 39.2327 35.2634 39.2327C35.5348 39.2327 35.7623 39.1372 35.9457 38.9461C36.1328 38.7551 36.2264 38.5236 36.2264 38.2517C36.2264 37.9776 36.1328 37.7442 35.9457 37.5517ZM36.2852 39.2493C36.0093 39.5153 35.6691 39.6483 35.2645 39.6483C34.8599 39.6483 34.5197 39.5153 34.2438 39.2493C33.9679 38.9807 33.83 38.6481 33.83 38.2517C33.83 37.8512 33.9679 37.5186 34.2438 37.2541C34.5197 36.9855 34.8599 36.8512 35.2645 36.8512C35.6691 36.8512 36.0093 36.9855 36.2852 37.2541C36.561 37.5201 36.699 37.8526 36.699 38.2517C36.699 38.6485 36.561 38.981 36.2852 39.2493ZM37.277 37.2761V36.865H38.6028V38.6507C38.6028 38.966 38.5222 39.203 38.3609 39.3617C38.1997 39.5193 37.9926 39.5981 37.7396 39.5981C37.4223 39.5981 37.1524 39.487 36.9297 39.2647L37.191 38.9042C37.3678 39.0722 37.5407 39.1561 37.7097 39.1561C37.8295 39.1561 37.931 39.1161 38.0142 39.036C38.1 38.9559 38.1429 38.8357 38.1429 38.6755V37.2756L37.277 37.2761ZM41.2155 36.8903V37.3208H39.7621V38.0373H41.0713V38.4446H39.7621V39.1721H41.2654V39.6025H39.3017V36.8909L41.2155 36.8903ZM43.1015 39.2052C43.2602 39.2052 43.3968 39.1793 43.5115 39.1275C43.6257 39.0731 43.7454 38.9878 43.8704 38.8717L44.1671 39.1743C43.8783 39.4921 43.527 39.651 43.1132 39.651C42.7027 39.651 42.3606 39.5193 42.087 39.2559C41.8166 38.9924 41.6815 38.6599 41.6815 38.2583C41.6815 37.8567 41.8194 37.5205 42.0953 37.2497C42.3737 36.9811 42.7232 36.8468 43.1437 36.8468C43.569 36.8468 43.9221 37.0018 44.2032 37.312L43.9103 37.63C43.7801 37.5058 43.6566 37.4192 43.5398 37.3704C43.4255 37.3211 43.2903 37.2965 43.1343 37.2965C42.8584 37.2965 42.6273 37.3856 42.4409 37.5638C42.2537 37.7395 42.1602 37.9654 42.1602 38.2417C42.1602 38.5159 42.2524 38.7455 42.437 38.9307C42.6241 39.114 42.846 39.2057 43.1026 39.2057L43.1015 39.2052ZM45.7642 37.3312V39.624H45.3038V37.3312H44.4772V36.9124H46.5907V37.3312H45.7642Z" fill="black"/>
</g>
<defs>
<linearGradient id="paint0_linear_678_41185" x1="42.2038" y1="15.9104" x2="48.9076" y2="22.4305" gradientUnits="userSpaceOnUse">
<stop stop-color="#F59723"/>
<stop offset="0.312" stop-color="#F69822"/>
<stop offset="0.838" stop-color="#E87726"/>
</linearGradient>
<linearGradient id="paint1_linear_678_41185" x1="-2.48052" y1="18.9364" x2="40.5124" y2="15.0455" gradientUnits="userSpaceOnUse">
<stop offset="0.323" stop-color="#9C2063"/>
<stop offset="0.63" stop-color="#C82037"/>
<stop offset="0.751" stop-color="#CC2135"/>
<stop offset="1" stop-color="#E87726"/>
</linearGradient>
<linearGradient id="paint2_linear_678_41185" x1="3.11767" y1="22.8232" x2="28.7256" y2="20.5056" gradientUnits="userSpaceOnUse">
<stop stop-color="#282661"/>
<stop offset="0.0955" stop-color="#662E8C"/>
<stop offset="0.788" stop-color="#9E2064"/>
<stop offset="0.949" stop-color="#CC2032"/>
</linearGradient>
<linearGradient id="paint3_linear_678_41185" x1="-0.10481" y1="18.3228" x2="42.8881" y2="14.4319" gradientUnits="userSpaceOnUse">
<stop offset="0.323" stop-color="#9C2063"/>
<stop offset="0.63" stop-color="#C82037"/>
<stop offset="0.751" stop-color="#CC2135"/>
<stop offset="1" stop-color="#E87726"/>
</linearGradient>
<linearGradient id="paint4_linear_678_41185" x1="3.09655" y1="18.6392" x2="25.6843" y2="16.595" gradientUnits="userSpaceOnUse">
<stop stop-color="#282661"/>
<stop offset="0.0955" stop-color="#662E8C"/>
<stop offset="0.788" stop-color="#9E2064"/>
<stop offset="0.949" stop-color="#CC2032"/>
</linearGradient>
<linearGradient id="paint5_linear_678_41185" x1="0.302398" y1="22.808" x2="43.2953" y2="18.9171" gradientUnits="userSpaceOnUse">
<stop offset="0.323" stop-color="#9C2063"/>
<stop offset="0.63" stop-color="#C82037"/>
<stop offset="0.751" stop-color="#CC2135"/>
<stop offset="1" stop-color="#E87726"/>
</linearGradient>
<linearGradient id="paint6_linear_678_41185" x1="-2.38647" y1="22.8067" x2="40.6065" y2="18.9158" gradientUnits="userSpaceOnUse">
<stop offset="0.323" stop-color="#9C2063"/>
<stop offset="0.63" stop-color="#C82037"/>
<stop offset="0.751" stop-color="#CC2135"/>
<stop offset="1" stop-color="#E87726"/>
</linearGradient>
<linearGradient id="paint7_linear_678_41185" x1="0.421299" y1="24.1342" x2="43.4142" y2="20.2433" gradientUnits="userSpaceOnUse">
<stop offset="0.323" stop-color="#9C2063"/>
<stop offset="0.63" stop-color="#C82037"/>
<stop offset="0.751" stop-color="#CC2135"/>
<stop offset="1" stop-color="#E87726"/>
</linearGradient>
<linearGradient id="paint8_linear_678_41185" x1="0.408096" y1="23.9802" x2="43.401" y2="20.0894" gradientUnits="userSpaceOnUse">
<stop offset="0.323" stop-color="#9C2063"/>
<stop offset="0.63" stop-color="#C82037"/>
<stop offset="0.751" stop-color="#CC2135"/>
<stop offset="1" stop-color="#E87726"/>
</linearGradient>
<clipPath id="clip0_678_41185">
<rect width="48" height="48" fill="white"/>
</clipPath>
</defs>
</svg>
