<svg width="14" height="14" viewBox="0 0 14 14" fill="none" xmlns="http://www.w3.org/2000/svg">
<path d="M5.82599 5.82668C5.51458 6.13808 5.33967 6.56029 5.33967 7.00068C5.33967 7.44107 5.51458 7.86328 5.82599 8.17468C6.13739 8.48608 6.5596 8.66099 7.00001 8.66099C7.44041 8.66099 7.86261 8.48608 8.17401 8.17468" stroke="#626262" stroke-linecap="round" stroke-linejoin="round"/>
<path d="M10.36 10.36C9.38667 11.0767 8.21334 11.4867 7.00001 11.5C3.50001 11.5 1.16667 7.00001 1.16667 7.00001C1.86167 5.69501 2.82501 4.55167 4.00001 3.64001M5.88334 2.62334C6.24835 2.53908 6.62371 2.49709 7.00001 2.50001C10.5 2.50001 12.8333 7.00001 12.8333 7.00001C12.4925 7.64167 12.0858 8.24501 11.62 8.80001" stroke="#626262" stroke-linecap="round" stroke-linejoin="round"/>
<path d="M1.16667 1.16667L12.8333 12.8333" stroke="#626262" stroke-linecap="round" stroke-linejoin="round"/>
</svg>
