<svg width="48" height="48" viewBox="0 0 48 48" fill="none" xmlns="http://www.w3.org/2000/svg">
<g clip-path="url(#clip0_671_4357)">
<path d="M23.9953 33.5994C34.599 33.5994 43.1953 36.8228 43.1953 40.7994V26.3992C43.1953 22.4228 34.599 19.1992 23.9953 19.1992H19.1953V33.5994H23.9953Z" fill="url(#paint0_linear_671_4357)"/>
<path d="M43.1968 26.4004C43.1968 30.3769 34.6008 33.6003 23.9968 33.6003C17.5298 33.6003 11.8096 32.4014 8.33072 30.5638C6.44688 29.7286 4.79688 30.9942 4.79688 32.7097V40.8003C4.79688 44.7769 13.393 48.0003 23.9968 48.0003C34.6008 48.0003 43.1968 44.7769 43.1968 40.8003V26.4004Z" fill="url(#paint1_radial_671_4357)"/>
<path d="M43.1968 26.4004C43.1968 30.3769 34.6008 33.6003 23.9968 33.6003C17.5298 33.6003 11.8096 32.4014 8.33072 30.5638C6.44688 29.7286 4.79688 30.9942 4.79688 32.7097V40.8003C4.79688 44.7769 13.393 48.0003 23.9968 48.0003C34.6008 48.0003 43.1968 44.7769 43.1968 40.8003V26.4004Z" fill="url(#paint2_radial_671_4357)"/>
<path d="M23.9968 0C34.6006 0 43.1969 3.22355 43.1969 7.2V15.3562C43.1969 16.4719 42.0342 18.4313 39.6601 17.4349C36.1806 15.5983 30.4619 14.4 23.9968 14.4C13.393 14.4 4.79688 17.6235 4.79688 21.6V7.2C4.79688 3.22355 13.393 0 23.9968 0Z" fill="url(#paint3_linear_671_4357)"/>
<path d="M23.9968 14.3992C13.393 14.3992 4.79688 11.1757 4.79688 7.19922V21.5992C4.79688 25.5757 13.393 28.7994 23.9968 28.7994H25.1968C27.1851 28.7994 28.7969 27.1874 28.7969 25.1992V17.9992C28.7969 16.011 27.1851 14.3992 25.1968 14.3992H23.9968Z" fill="url(#paint4_radial_671_4357)"/>
<path d="M23.9968 14.3992C13.393 14.3992 4.79688 11.1757 4.79688 7.19922V21.5992C4.79688 25.5757 13.393 28.7994 23.9968 28.7994H25.1968C27.1851 28.7994 28.7969 27.1874 28.7969 25.1992V17.9992C28.7969 16.011 27.1851 14.3992 25.1968 14.3992H23.9968Z" fill="url(#paint5_radial_671_4357)"/>
</g>
<defs>
<linearGradient id="paint0_linear_671_4357" x1="35.9953" y1="19.1992" x2="15.9305" y2="35.8188" gradientUnits="userSpaceOnUse">
<stop stop-color="#0094F0"/>
<stop offset="0.243047" stop-color="#0078D4"/>
<stop offset="0.584404" stop-color="#2052CB"/>
<stop offset="0.830639" stop-color="#312A9A"/>
</linearGradient>
<radialGradient id="paint1_radial_671_4357" cx="0" cy="0" r="1" gradientUnits="userSpaceOnUse" gradientTransform="translate(33.5968 29.5505) rotate(143.591) scale(29.8211 53.0152)">
<stop stop-color="#3BD5FF"/>
<stop offset="1" stop-color="#0078D4"/>
</radialGradient>
<radialGradient id="paint2_radial_671_4357" cx="0" cy="0" r="1" gradientUnits="userSpaceOnUse" gradientTransform="translate(39.5968 27.6003) rotate(146.31) scale(25.96 43.796)">
<stop stop-color="#DECBFF" stop-opacity="0.9"/>
<stop offset="1" stop-color="#DECBFF" stop-opacity="0"/>
</radialGradient>
<linearGradient id="paint3_linear_671_4357" x1="32.3969" y1="1.2" x2="9.6664" y2="25.9489" gradientUnits="userSpaceOnUse">
<stop stop-color="#0FAFFF"/>
<stop offset="0.162714" stop-color="#0094F0"/>
<stop offset="0.563871" stop-color="#2052CB"/>
<stop offset="0.764283" stop-color="#312A9A"/>
</linearGradient>
<radialGradient id="paint4_radial_671_4357" cx="0" cy="0" r="1" gradientUnits="userSpaceOnUse" gradientTransform="translate(23.6658 12.1482) rotate(137.53) scale(24.6606 38.4117)">
<stop stop-color="#3BD5FF"/>
<stop offset="1" stop-color="#0078D4"/>
</radialGradient>
<radialGradient id="paint5_radial_671_4357" cx="0" cy="0" r="1" gradientUnits="userSpaceOnUse" gradientTransform="translate(27.5969 10.7992) rotate(149.036) scale(20.9914 33.6005)">
<stop stop-color="#DECBFF" stop-opacity="0.9"/>
<stop offset="1" stop-color="#D1D1FF" stop-opacity="0"/>
</radialGradient>
<clipPath id="clip0_671_4357">
<rect width="48" height="48" fill="white"/>
</clipPath>
</defs>
</svg>