<svg width="14" height="14" viewBox="0 0 14 14" fill="none" xmlns="http://www.w3.org/2000/svg">
<path d="M9.53906 0C9.83617 0.000301053 10.0771 0.224043 10.0771 0.5V1.2998H11.6162C12.9384 1.30022 13.9999 2.30531 14 3.5332V11.7666C14 12.9946 12.9384 13.9996 11.6162 14H2.38379C1.06159 13.9996 0 12.9946 0 11.7666L0 3.5332C7.50581e-05 2.30531 1.06164 1.30022 2.38379 1.2998H3.46094V0.5C3.46094 0.223997 3.70282 0.000226069 4 0C4.29718 0.00022595 4.53809 0.223997 4.53809 0.5V1.2998H9V0.5C9 0.223858 9.24168 0 9.53906 0ZM1.07715 11.7666C1.07715 12.4527 1.66754 12.9996 2.38379 13H11.6162C12.3325 12.9996 12.9229 12.4527 12.9229 11.7666V6.2002H1.07715V11.7666ZM3.8291 10.0791C4.30651 10.0791 4.69411 10.4326 4.69434 10.8691C4.69434 11.3059 4.30665 11.6602 3.8291 11.6602C3.35168 11.66 2.96484 11.3058 2.96484 10.8691C2.96507 10.4327 3.35182 10.0792 3.8291 10.0791ZM7 10.0791C7.47735 10.0792 7.86403 10.4326 7.86426 10.8691C7.86426 11.3058 7.47749 11.6601 7 11.6602C6.52245 11.6602 6.13477 11.3059 6.13477 10.8691C6.13499 10.4326 6.52259 10.0791 7 10.0791ZM10.1699 10.0791C10.6473 10.0791 11.0349 10.4326 11.0352 10.8691C11.0352 11.3059 10.6475 11.6602 10.1699 11.6602C9.69258 11.6599 9.30566 11.3057 9.30566 10.8691C9.30589 10.4327 9.69272 10.0793 10.1699 10.0791ZM7 7.44336C7.47739 7.44342 7.8641 7.79684 7.86426 8.2334C7.86426 8.67008 7.47749 9.02435 7 9.02441C6.52245 9.02441 6.13477 8.67012 6.13477 8.2334C6.13493 7.7968 6.52255 7.44336 7 7.44336ZM10.1699 7.44336C10.6474 7.44336 11.035 7.7968 11.0352 8.2334C11.0352 8.67012 10.6475 9.02441 10.1699 9.02441C9.69258 9.02418 9.30566 8.66998 9.30566 8.2334C9.30583 7.79694 9.69268 7.44359 10.1699 7.44336ZM2.38379 2.2998C1.66758 2.30023 1.07722 2.84715 1.07715 3.5332V5.2002H12.9229V3.5332C12.9228 2.84715 12.3324 2.30022 11.6162 2.2998H10.0771V3.09961C10.0771 3.37557 9.83617 3.59931 9.53906 3.59961C9.24168 3.59961 9 3.37575 9 3.09961V2.2998H4.53809V3.09961C4.53809 3.37561 4.29718 3.59938 4 3.59961C3.70282 3.59938 3.46094 3.37561 3.46094 3.09961V2.2998H2.38379Z" fill="#626262"/>
</svg>
