<svg width="15" height="15" viewBox="0 0 15 15" fill="none" xmlns="http://www.w3.org/2000/svg">
<path d="M12.0373 8.55278L13.4311 9.94659M11.6814 6.10619V4.01549L8.1969 0.530973H1.92478C1.55512 0.530973 1.2006 0.67782 0.93921 0.93921C0.67782 1.2006 0.530973 1.55512 0.530973 1.92478V13.0752C0.530973 13.4449 0.67782 13.7994 0.93921 14.0608C1.2006 14.3222 1.55512 14.469 1.92478 14.469H4.71239M7.5 0.530973V3.31858C7.5 3.68824 7.64685 4.04276 7.90824 4.30415C8.16963 4.56554 8.52415 4.71239 8.89381 4.71239H11.6814M14.181 9.17257C14.3409 8.98458 14.4243 8.74325 14.4143 8.49661C14.4044 8.24997 14.302 8.01611 14.1275 7.84156C13.9529 7.66702 13.7191 7.5646 13.4724 7.55469C13.2258 7.54477 12.9844 7.62809 12.7965 7.78806L8.15044 12.4396C8.06974 12.5203 8.01007 12.6195 7.97668 12.7286L7.51208 14.2451C7.50326 14.2752 7.50273 14.3072 7.51054 14.3376C7.51836 14.368 7.53422 14.3958 7.55648 14.4179C7.57873 14.4401 7.60655 14.4558 7.637 14.4635C7.66745 14.4712 7.69941 14.4705 7.72951 14.4616L9.24132 14.0044C9.35032 13.9713 9.44953 13.9119 9.53031 13.8316L14.181 9.17257Z" stroke="black" stroke-linecap="round" stroke-linejoin="round"/>
<path d="M2.62998 3.75311H5.77758" stroke="black" stroke-linecap="round"/>
<path d="M2.62998 5.85626H4.13837" stroke="black" stroke-linecap="round"/>
</svg>
