<svg width="14" height="14" viewBox="0 0 14 14" fill="none" xmlns="http://www.w3.org/2000/svg">
<path d="M12.2317 4.53448L8.54268 0.5H2.84146C2.4884 0.508642 2.15218 0.653103 1.90245 0.903459C1.65272 1.15381 1.50862 1.49088 1.5 1.84483V11.931C1.50862 12.285 1.65272 12.622 1.90245 12.8724C2.15218 13.1228 2.4884 13.2672 2.84146 13.2759H4.45122M12.2317 4.53448H8.20732V0.5M12.2317 4.53448L12.2317 5.7M10.1206 11.5077L8.75811 10.3688V8.31992M12.5 9.91379C12.5 11.8944 10.8984 13.5 8.92277 13.5C6.94711 13.5 5.34553 11.8944 5.34553 9.91379C5.34553 7.93319 6.94711 6.32759 8.92277 6.32759C10.8984 6.32759 12.5 7.93319 12.5 9.91379Z" stroke="black" stroke-linecap="round" stroke-linejoin="round"/>
<path d="M3.40234 3.5332H6.36634" stroke="black" stroke-linecap="round"/>
<path d="M3.40234 5.51367H4.82274" stroke="black" stroke-linecap="round"/>
</svg>
