<svg width="14" height="14" viewBox="0 0 14 14" fill="none" xmlns="http://www.w3.org/2000/svg">
<path d="M6.15116 8.97807L6.43377 7.56501L7.56422 6.43456L8.97729 6.15194L12.9339 10.1085L13.2165 10.9564L10.9556 13.2173L10.1077 12.9346L6.15116 8.97807Z" stroke="black" stroke-linejoin="round"/>
<path d="M9.99219 9.98657L10.9622 10.9566" stroke="black" stroke-linecap="round" stroke-linejoin="round"/>
<path d="M2.48337 1.34744L1.91815 1.91266L1.35292 2.47789L1.63554 3.32572L2.48337 3.60833L6.43995 7.56491L7.5704 6.43446L3.61382 2.47789L3.33121 1.63005L2.48337 1.34744Z" fill="#E9E9E9" stroke="black" stroke-linejoin="round"/>
<path d="M9.89096 4.57921C9.79936 4.669 9.6762 4.7193 9.54792 4.7193C9.41965 4.7193 9.29649 4.669 9.20488 4.57921L8.42079 3.79512C8.33099 3.70351 8.2807 3.58035 8.2807 3.45208C8.2807 3.3238 8.33099 3.20064 8.42079 3.10903L10.2683 1.26152C9.72376 1.0151 9.11705 0.940487 8.52902 1.04763C7.94099 1.15477 7.39958 1.43857 6.97694 1.86121C6.55429 2.28386 6.27049 2.82526 6.16335 3.41329C6.05621 4.00132 6.13082 4.60803 6.37724 5.15258L2.30448 9.22534C2.10952 9.4203 2 9.68472 2 9.96043C2 10.2361 2.10952 10.5006 2.30448 10.6955C2.49944 10.8905 2.76386 11 3.03957 11C3.31528 11 3.5797 10.8905 3.77466 10.6955L7.84742 6.62276C8.39197 6.86918 8.99868 6.94379 9.58671 6.83665C10.1747 6.72951 10.7161 6.44571 11.1388 6.02306C11.5614 5.60042 11.8452 5.05901 11.9524 4.47098C12.0595 3.88295 11.9849 3.27624 11.7385 2.73169L9.89586 4.57431L9.89096 4.57921Z" fill="#E9E9E9" stroke="black" stroke-linecap="round" stroke-linejoin="round"/>
</svg>
