<svg width="14" height="14" viewBox="0 0 14 14" fill="none" xmlns="http://www.w3.org/2000/svg">
<mask id="mask0_626_308906" style="mask-type:alpha" maskUnits="userSpaceOnUse" x="0" y="0" width="14" height="14">
<circle cx="7" cy="7" r="7" fill="#D5E0F8"/>
</mask>
<g mask="url(#mask0_626_308906)">
<circle cx="7" cy="7" r="6.5" fill="url(#paint0_linear_626_308906)" stroke="#C4D0F3"/>
<path d="M5.97852 10.958C5.94891 11.0388 5.91426 11.1183 5.87109 11.1934C5.67418 11.5359 5.32783 11.79 4.8457 11.79H4.84277C4.4105 11.787 3.72779 11.7942 3.08789 11.916C2.4146 12.0442 1.95208 12.2698 1.7666 12.5742L1.56738 12.9297C1.3799 13.2924 1.22753 13.6693 1.11328 13.9863C1.10341 14.0137 1.09518 14.0411 1.08594 14.0674H12.9658C12.9566 14.0411 12.9483 14.0137 12.9385 13.9863C12.7862 13.5636 12.5655 13.0346 12.2852 12.5742C12.0997 12.2698 11.6372 12.0442 10.9639 11.916C10.3239 11.7942 9.64146 11.7871 9.20898 11.79H9.20508C8.72355 11.7896 8.37779 11.5361 8.18066 11.1934C8.13749 11.1183 8.10283 11.0388 8.07324 10.958C7.74532 11.0903 7.39361 11.166 7.02539 11.166C6.65718 11.166 6.30614 11.0902 5.97852 10.958Z" fill="#FDBC91" stroke="black"/>
<path d="M1.34048 12.3141C1.95037 11.3127 3.97469 11.2839 4.84716 11.2897C5.12399 11.2897 5.31389 11.155 5.43368 10.9512C6.99237 11.7663 8.27934 11.1539 8.62373 10.9566C8.74352 11.1568 8.93233 11.2894 9.20733 11.2897C10.0794 11.2839 12.1041 11.3124 12.714 12.3141C13.3239 13.3155 13.6504 14.5674 13.6504 14.5674H0.403731C0.403731 14.5674 0.730589 13.3155 1.34011 12.3141H1.34048Z" fill="#E3E3E3"/>
<path d="M7.0238 11.3555L7.4668 11.9975L7.02344 12.4858L6.61368 11.9975L7.0238 11.3555Z" fill="#0055F2"/>
<path d="M7.72852 14.5667L7.02513 11.3555L6.37872 14.5667H7.72852Z" fill="#0055F2"/>
<path d="M8.47837 10.5352L7.02742 11.358L7.72898 12.3736L8.91406 11.2111L8.47837 10.5352Z" fill="white"/>
<path d="M5.57639 10.5352L7.02734 11.358L6.37874 12.3736L5.1407 11.2111L5.57639 10.5352Z" fill="white"/>
<path d="M5.53826 9.73769C5.0781 9.32099 4.73298 8.7195 4.51058 8.04424C4.37582 8.2294 4.1713 8.04278 4.14647 7.87004C4.14866 7.6049 3.65673 6.40448 4.21257 6.45049C4.21257 6.45049 4.21513 6.45597 4.21987 6.46547C3.84225 1.35664 10.2158 1.36357 9.83415 6.46766C9.83926 6.45707 9.84255 6.45086 9.84255 6.45086C10.3984 6.4063 9.90646 7.60308 9.90865 7.87041C9.88381 8.04351 9.67857 8.23013 9.54381 8.04388C9.3214 8.7195 8.97628 9.32172 8.51576 9.73842C8.07971 10.0762 7.57098 10.2705 7.02719 10.2705C6.4834 10.2705 5.97468 10.0762 5.53862 9.73842L5.53826 9.73769Z" fill="#FDBC91"/>
<path d="M5.59862 10.1794C5.5957 10.0326 5.5778 9.88546 5.54712 9.74814C5.54347 9.74485 5.54019 9.74157 5.53653 9.73828C5.97259 10.0761 6.48131 10.2704 7.0251 10.2704C7.56889 10.2704 8.07762 10.0761 8.51367 9.73828C8.51002 9.74157 8.50673 9.74485 8.50345 9.74814C8.47313 9.88546 8.45524 10.0326 8.45232 10.1794C8.03014 10.4888 7.54369 10.6655 7.02547 10.6655C6.50724 10.6655 6.02079 10.4888 5.59862 10.1794Z" fill="#F2AD80"/>
<path d="M4.26356 6.67733L4.57142 7.35295C4.57142 7.35295 4.55791 4.45105 5.66995 4.695C6.782 4.93896 7.96161 4.81515 8.38196 4.68039C8.8023 4.54563 9.31761 4.99337 9.31761 5.5357C9.31761 6.07803 9.61598 7.23061 9.61598 7.23061C9.61598 7.23061 10.1178 5.69821 10.0907 5.00688C10.0637 4.31519 9.73832 2.90514 8.138 2.4574C8.138 2.4574 7.39956 2.01002 7.06357 2.02354L7.17788 2.22696C7.17788 2.22696 6.80939 2.25398 6.55156 1.91507C6.55156 1.91507 6.49714 2.07795 6.55156 2.25398C6.60597 2.43037 6.00923 2.00528 5.96833 1.75C5.96833 1.75 5.81932 1.96912 5.81932 2.05056C5.81932 2.132 5.64293 1.91726 5.64293 1.83363C5.64293 1.75 5.24961 2.10498 5.18204 2.34893C5.18204 2.34893 5.1006 2.24047 5.12763 2.10498C5.12763 2.10498 4.69377 2.52277 4.66674 2.8562C4.66674 2.8562 4.53125 2.86424 4.47683 2.6064C4.47683 2.6064 4.12441 2.99973 4.08351 3.488C4.08351 3.488 3.90712 3.40656 3.90712 3.339C3.90712 3.27144 3.74424 4.08255 3.90712 4.55148C3.90712 4.55148 3.77163 4.546 3.75811 4.45104C3.7446 4.35609 3.82604 5.03427 3.96153 5.14274L3.75665 5.02076C3.75665 5.02076 4.07986 6.27378 4.26392 6.67769L4.26356 6.67733Z" fill="#571F00"/>
<path d="M1.33887 12.3115C1.9484 11.3047 3.97199 11.2755 4.84373 11.2817C4.99529 11.2817 5.12055 11.2408 5.22281 11.1707L7.01925 14.5776L8.82189 11.1699C8.92415 11.2404 9.04978 11.2817 9.2017 11.2817C10.0734 11.2758 12.097 11.3047 12.7066 12.3115C13.3161 13.3184 13.6426 14.5773 13.6426 14.5773H0.402857C0.402857 14.5773 0.729349 13.3184 1.33887 12.3115Z" fill="#292929"/>
<path d="M8.44905 10.3613L9.34453 11.6063L8.89679 11.9102L9.45117 12.4718L7.02074 14.5469L8.55533 11.1812L8.44905 10.3613Z" fill="black"/>
<path d="M5.59513 10.3613L4.69928 11.6063L5.14702 11.9102L4.59301 12.4718L7.02344 14.5469L5.48885 11.1812L5.59513 10.3613Z" fill="black"/>
</g>
<defs>
<linearGradient id="paint0_linear_626_308906" x1="2.23686" y1="-5.18307" x2="14" y2="12.5996" gradientUnits="userSpaceOnUse">
<stop stop-color="#C4D0F3"/>
<stop offset="0.543269" stop-color="#C4D0F3" stop-opacity="0"/>
<stop offset="0.932692" stop-color="#C4D0F3" stop-opacity="0"/>
</linearGradient>
</defs>
</svg>
