<svg width="33" height="32" viewBox="0 0 33 32" fill="none" xmlns="http://www.w3.org/2000/svg">
<path d="M12.9273 31.9997H3.34467C2.71721 31.9997 2.10946 31.828 1.58741 31.5033C1.09758 31.1986 0.692205 30.766 0.414447 30.2528C0.137002 29.7395 -0.00250232 29.1633 0.0109477 28.5865C0.025336 27.9719 0.214574 27.3695 0.558331 26.8443L8.19792 15.1553C8.50195 14.6911 8.52791 14.1275 8.26798 13.6467C8.14725 13.4234 7.78379 12.9042 7.01714 12.9042H0.938371C0.420077 12.9042 0 12.4841 0 11.9658C0 11.4475 0.420077 11.0274 0.938371 11.0274H7.01714C8.24953 11.0274 9.33429 11.673 9.91889 12.7543C10.5032 13.8353 10.4453 15.1491 9.76844 16.1828L2.12885 27.8718C1.83107 28.3266 1.80761 28.8827 2.06567 29.3604C2.32372 29.838 2.80198 30.1229 3.34467 30.1229H12.9273C13.3527 30.1229 13.7446 29.9096 13.9761 29.5527L16.0052 26.4186L14.0349 25.6985C13.0118 25.4051 12.2123 24.6673 11.8372 23.6685C11.4578 22.6579 11.5814 21.5622 12.176 20.6617L15.9595 14.8444C16.2419 14.4099 16.8234 14.2867 17.2579 14.5695C17.6924 14.8519 17.8156 15.4334 17.5328 15.8678L13.7474 21.6882C13.7459 21.6904 13.7446 21.6926 13.7431 21.6948C13.4825 22.0883 13.4284 22.5672 13.5942 23.0088C13.76 23.4505 14.1162 23.7755 14.5713 23.9C14.5964 23.9069 14.6211 23.9147 14.6455 23.9238L17.0514 24.803L23.0573 15.526C23.7229 14.4978 24.8903 13.962 26.1033 14.1275C27.3166 14.2929 28.2978 15.1215 28.6641 16.2901L31.8705 26.5218C32.0572 27.118 32.076 27.7464 31.9243 28.3394C31.782 28.8962 31.4933 29.4113 31.0901 29.8299C30.6866 30.2484 30.1821 30.5552 29.6309 30.7179C29.0438 30.8912 28.4151 30.8955 27.8127 30.7304C27.7877 30.7235 27.7629 30.7157 27.7386 30.7066L17.8134 27.0795L15.5519 30.5727C14.9733 31.4664 13.9917 31.9997 12.9273 31.9997ZM28.3413 28.9287C28.8518 29.0563 29.3719 28.9074 29.7388 28.5268C30.1139 28.138 30.2412 27.5981 30.0798 27.0826L26.8734 16.8509C26.7248 16.3768 26.3423 16.054 25.8499 15.9867C25.3576 15.9198 24.9025 16.1284 24.6325 16.5457L18.8591 25.4633L28.3413 28.9287Z" fill="url(#paint0_linear_581_73807)"/>
<path d="M13.3934 7.29677C16.769 6.55108 17.7759 5.54421 18.5216 2.16858C18.5597 1.99561 18.7142 1.87268 18.8913 1.87268C19.0683 1.87268 19.2228 1.99561 19.261 2.16858C20.0067 5.54421 21.0136 6.55108 24.3892 7.29677C24.5622 7.33493 24.6851 7.48945 24.6851 7.66649C24.6851 7.84353 24.5622 7.99805 24.3892 8.03621C21.0136 8.7819 20.0067 9.78877 19.261 13.1644C19.2228 13.3374 19.0683 13.4603 18.8913 13.4603C18.7142 13.4603 18.5597 13.3374 18.5216 13.1644C17.7759 9.78877 16.769 8.7819 13.3934 8.03621C13.2204 7.99805 13.0975 7.84353 13.0975 7.66649C13.0975 7.48945 13.2204 7.33493 13.3934 7.29677Z" fill="#089949"/>
<path d="M20.9829 2.80166C22.7264 2.41662 23.2466 1.89645 23.6316 0.152954C23.6513 0.0634964 23.7311 0 23.8227 0C23.9144 0 23.9941 0.0634964 24.0138 0.152954C24.3989 1.89645 24.9191 2.41662 26.6625 2.80166C26.752 2.82137 26.8155 2.90113 26.8155 2.99278C26.8155 3.08442 26.752 3.16419 26.6625 3.18389C24.9191 3.56894 24.3989 4.08911 24.0138 5.8326C23.9941 5.92206 23.9144 5.98555 23.8227 5.98555C23.7311 5.98555 23.6513 5.92206 23.6316 5.8326C23.2466 4.08911 22.7264 3.56894 20.9829 3.18389C20.8934 3.16419 20.83 3.08442 20.83 2.99278C20.83 2.90113 20.8934 2.82137 20.9829 2.80166Z" fill="#E42527"/>
<defs>
<linearGradient id="paint0_linear_581_73807" x1="-1.81666e-08" y1="18.3444" x2="32.0351" y2="19.1399" gradientUnits="userSpaceOnUse">
<stop stop-color="#0085D0"/>
<stop offset="0.480769" stop-color="#8158DA"/>
<stop offset="1" stop-color="#CA23E3"/>
</linearGradient>
</defs>
</svg>
