<svg width="14" height="14" viewBox="0 0 14 14" fill="none" xmlns="http://www.w3.org/2000/svg">
<g clip-path="url(#clip0_421_14895)">
<path d="M7.00004 10.9588V13.4997M5.41178 2.06578H1.8C1.45522 2.06578 1.12456 2.19963 0.880761 2.43789C0.636964 2.67614 0.5 2.99928 0.5 3.33623V9.68845C0.5 10.0254 0.636964 10.3485 0.880761 10.5868C1.12456 10.825 1.45522 10.9589 1.8 10.9589H12.2C12.5448 10.9589 12.8754 10.825 13.1192 10.5868C13.363 10.3485 13.5 10.0254 13.5 9.68845V6.42381M4.40112 13.5H9.60112M11.4794 3.44145C11.4794 4.05064 10.9741 4.54449 10.3508 4.54449C9.72744 4.54449 9.22215 4.05064 9.22215 3.44145C9.22215 2.83226 9.72744 2.33841 10.3508 2.33841C10.9741 2.33841 11.4794 2.83226 11.4794 3.44145ZM12.3752 4.24348C12.3388 4.32415 12.3279 4.41365 12.344 4.50042C12.3601 4.58719 12.4024 4.66726 12.4655 4.73029L12.4821 4.74647C12.5346 4.7958 12.5766 4.85488 12.6055 4.92025C12.6344 4.98563 12.6497 5.05598 12.6505 5.1272C12.6512 5.19842 12.6374 5.26906 12.6099 5.335C12.5823 5.40094 12.5416 5.46084 12.4901 5.5112C12.4385 5.56157 12.3772 5.60137 12.3098 5.62829C12.2423 5.65521 12.17 5.6687 12.0972 5.66798C12.0243 5.66725 11.9523 5.65232 11.8854 5.62406C11.8185 5.5958 11.7581 5.55478 11.7076 5.50341L11.691 5.48723C11.6271 5.42668 11.5464 5.38581 11.4589 5.36968C11.3714 5.35354 11.2809 5.36286 11.1988 5.39647C11.1167 5.43009 11.0464 5.48652 10.9968 5.55877C10.9472 5.63102 10.9203 5.71592 10.9196 5.80294V5.84854C10.9196 5.99039 10.8619 6.12643 10.7593 6.22673C10.6567 6.32704 10.5175 6.38339 10.3723 6.38339C10.2272 6.38339 10.088 6.32704 9.98536 6.22673C9.88273 6.12643 9.82507 5.99039 9.82507 5.84854V5.82402C9.823 5.73549 9.79371 5.64961 9.74101 5.57757C9.68832 5.50552 9.61467 5.45064 9.52963 5.42006C9.44709 5.38444 9.35552 5.37381 9.26674 5.38954C9.17795 5.40526 9.09603 5.44663 9.03153 5.50831L9.01498 5.52449C8.96494 5.57755 8.90443 5.62018 8.83711 5.64981C8.76978 5.67943 8.69702 5.69545 8.62319 5.6969C8.54937 5.69834 8.47601 5.68519 8.40752 5.65822C8.33903 5.63125 8.27683 5.59102 8.22465 5.53996C8.17247 5.4889 8.13139 5.42805 8.10389 5.36108C8.07638 5.29411 8.06302 5.22239 8.06459 5.15024C8.06617 5.0781 8.08265 5.007 8.11305 4.94124C8.14346 4.87547 8.18715 4.81639 8.24151 4.76755L8.25806 4.75138C8.32001 4.68886 8.36183 4.60996 8.37834 4.52444C8.39484 4.43892 8.38531 4.35055 8.35092 4.27028C8.31653 4.19001 8.25879 4.12136 8.18486 4.07285C8.11093 4.02434 8.02407 3.9981 7.93503 3.99738H7.88838C7.74324 3.99738 7.60404 3.94103 7.50141 3.84073C7.39878 3.74042 7.34113 3.60438 7.34113 3.46253C7.34113 3.32068 7.39878 3.18464 7.50141 3.08433C7.60404 2.98403 7.74324 2.92768 7.88838 2.92768H7.91296C8.00354 2.92565 8.09141 2.89702 8.16512 2.84552C8.23884 2.79402 8.29499 2.72204 8.32628 2.63892C8.36273 2.55825 8.37361 2.46876 8.35752 2.38199C8.34142 2.29521 8.29909 2.21515 8.23599 2.15211L8.21944 2.13594C8.16514 2.08703 8.12153 2.02789 8.09121 1.96209C8.0609 1.89629 8.04451 1.82517 8.04303 1.75302C8.04155 1.68087 8.05501 1.60917 8.0826 1.54223C8.1102 1.4753 8.15136 1.4145 8.2036 1.36351C8.25585 1.31251 8.3181 1.27236 8.38663 1.24548C8.45515 1.2186 8.52853 1.20554 8.60235 1.20707C8.67617 1.20861 8.74892 1.22472 8.81621 1.25444C8.88349 1.28415 8.94394 1.32686 8.99392 1.37998L9.01047 1.39616C9.07496 1.45784 9.15689 1.49921 9.24567 1.51493C9.33445 1.53066 9.42602 1.52003 9.50856 1.48441H9.53063C9.61154 1.45046 9.68053 1.39414 9.7291 1.32236C9.77767 1.25059 9.80371 1.1665 9.80401 1.08045V1.03485C9.80401 0.893002 9.86166 0.756959 9.96429 0.656655C10.0669 0.55635 10.2061 0.5 10.3513 0.5C10.4964 0.5 10.6356 0.55635 10.7382 0.656655C10.8409 0.756959 10.8985 0.893002 10.8985 1.03485V1.05888C10.8992 1.1459 10.9261 1.2308 10.9757 1.30305C11.0254 1.3753 11.0956 1.43173 11.1777 1.46534C11.2599 1.49896 11.3503 1.50827 11.4378 1.49214C11.5253 1.47601 11.606 1.43514 11.67 1.37459L11.6865 1.35841C11.737 1.30704 11.7974 1.26602 11.8643 1.23776C11.9312 1.2095 12.0032 1.19457 12.0761 1.19384C12.149 1.19312 12.2212 1.20661 12.2887 1.23353C12.3562 1.26045 12.4175 1.30025 12.469 1.35061C12.5205 1.40097 12.5612 1.46088 12.5888 1.52682C12.6163 1.59275 12.6301 1.6634 12.6294 1.73462C12.6287 1.80584 12.6134 1.87619 12.5845 1.94157C12.5555 2.00694 12.5136 2.06602 12.461 2.11535L12.4445 2.13152C12.3814 2.19456 12.339 2.27462 12.3229 2.3614C12.3068 2.44817 12.3177 2.53766 12.3542 2.61833V2.6399C12.3889 2.71898 12.4465 2.7864 12.52 2.83388C12.5934 2.88135 12.6794 2.9068 12.7675 2.90709H12.8141C12.9593 2.90709 13.0985 2.96344 13.2011 3.06374C13.3037 3.16405 13.3614 3.30009 13.3614 3.44194C13.3614 3.58379 13.3037 3.71983 13.2011 3.82014C13.0985 3.92044 12.9593 3.97679 12.8141 3.97679H12.7886C12.7006 3.97704 12.6146 4.00242 12.5411 4.0498C12.4677 4.09718 12.41 4.1645 12.3752 4.24348Z" stroke="black" stroke-width="0.8" stroke-linecap="round" stroke-linejoin="round"/>
</g>
<defs>
<clipPath id="clip0_421_14895">
<rect width="14" height="14" fill="white"/>
</clipPath>
</defs>
</svg>
