<svg width="14" height="14" viewBox="0 0 14 14" fill="none" xmlns="http://www.w3.org/2000/svg">
<g clip-path="url(#clip0_681_42617)">
<path d="M7 14C10.866 14 14 10.866 14 7C14 3.13401 10.866 0 7 0C3.13401 0 0 3.13401 0 7C0 10.866 3.13401 14 7 14Z" fill="#198019"/>
<path d="M5.88085 9.71267C5.88085 9.71267 5.88085 9.71267 5.8721 9.71267C5.6971 9.71267 5.53085 9.63392 5.40835 9.51142L3.4396 7.45517C3.18585 7.19267 3.20335 6.78142 3.4571 6.52767C3.7196 6.27392 4.13085 6.28267 4.3846 6.54517L5.8896 8.12017L9.6171 4.46267C9.8796 4.20892 10.2909 4.20892 10.5446 4.47142C10.7984 4.73392 10.7984 5.14517 10.5359 5.39892L6.33585 9.52017C6.21335 9.64267 6.0471 9.70392 5.8721 9.70392L5.88085 9.71267Z" fill="white"/>
</g>
<defs>
<clipPath id="clip0_681_42617">
<rect width="14" height="14" fill="white"/>
</clipPath>
</defs>
</svg>
