<svg width="14" height="14" viewBox="0 0 14 14" fill="none" xmlns="http://www.w3.org/2000/svg">
<path d="M5.13398 4.78884C5.28455 4.35958 5.58226 3.9975 5.97434 3.76683C6.36642 3.53615 6.82752 3.45178 7.27588 3.52867C7.72423 3.60556 8.13087 3.83875 8.42368 4.18689C8.71649 4.53502 8.87656 4.97561 8.87548 5.43051C8.87548 6.71384 6.95048 7.35551 6.95048 7.35551M6.94465 8.54551V7.48734M6.94465 10.8182V10.7948M13.4173 6.99967C13.4173 10.5435 10.5445 13.4163 7.00065 13.4163C3.45682 13.4163 0.583984 10.5435 0.583984 6.99967C0.583984 3.45585 3.45682 0.583008 7.00065 0.583008C10.5445 0.583008 13.4173 3.45585 13.4173 6.99967Z" stroke="#626262" stroke-linecap="round" stroke-linejoin="round"/>
</svg>
