<svg width="3" height="12" viewBox="0 0 3 12" fill="none" xmlns="http://www.w3.org/2000/svg">
<path d="M1.20001 2.4001C0.881755 2.4001 0.576507 2.27376 0.351466 2.04872C0.126426 1.82368 1.24991e-07 1.51848 1.28786e-07 1.20022C1.32581e-07 0.881968 0.126426 0.576765 0.351466 0.351725C0.576507 0.126685 0.881755 0.000167768 1.20001 0.000167772C1.51827 0.000167775 1.82347 0.126685 2.04851 0.351725C2.27355 0.576765 2.39998 0.881968 2.39998 1.20022C2.39998 1.51848 2.27355 1.82368 2.04851 2.04872C1.82347 2.27376 1.51827 2.4001 1.20001 2.4001ZM1.20001 7.20014C0.881755 7.20014 0.576507 7.07362 0.351466 6.84858C0.126426 6.62354 6.77531e-08 6.31834 7.15483e-08 6.00008C7.53434e-08 5.68183 0.126426 5.37663 0.351466 5.15159C0.576507 4.92654 0.881755 4.80003 1.20001 4.80003C1.51827 4.80003 1.82347 4.92654 2.04851 5.15159C2.27355 5.37663 2.39998 5.68183 2.39998 6.00008C2.39998 6.31834 2.27355 6.62354 2.04851 6.84858C1.82347 7.07362 1.51827 7.20014 1.20001 7.20014ZM1.20001 12C0.881755 12 0.576507 11.8735 0.351466 11.6484C0.126426 11.4234 1.05154e-08 11.1182 1.43105e-08 10.7999C1.81057e-08 10.4817 0.126426 10.1765 0.351466 9.95144C0.576507 9.7264 0.881755 9.60007 1.20001 9.60007C1.51827 9.60007 1.82347 9.7264 2.04851 9.95144C2.27355 10.1765 2.39998 10.4817 2.39998 10.7999C2.39998 11.1182 2.27355 11.4234 2.04851 11.6484C1.82347 11.8735 1.51827 12 1.20001 12Z" fill="black"/>
</svg>
