<svg width="15" height="15" viewBox="0 0 15 15" fill="none" xmlns="http://www.w3.org/2000/svg">
<path d="M0.875 13.625V12.1664C0.875 11.3929 1.18226 10.6511 1.72919 10.1042C2.27611 9.55726 3.0179 9.25 3.79138 9.25H5.25M9.625 3.41637C9.625 3.99318 9.45396 4.55703 9.1335 5.03663C8.81305 5.51622 8.35757 5.89002 7.82467 6.11075C7.29178 6.33149 6.70539 6.38924 6.13967 6.27671C5.57395 6.16418 5.0543 5.88643 4.64644 5.47856C4.23857 5.0707 3.96082 4.55105 3.84829 3.98533C3.73576 3.41961 3.79351 2.83322 4.01425 2.30033C4.23498 1.76743 4.60878 1.31195 5.08837 0.991498C5.56797 0.671042 6.13182 0.5 6.70862 0.5C7.4821 0.5 8.22389 0.80726 8.77081 1.35419C9.31774 1.90111 9.625 2.6429 9.625 3.41637Z" stroke="black" stroke-linecap="round" stroke-linejoin="round"/>
<path d="M10.4969 11.7653C11.1612 11.7653 11.6998 11.2267 11.6998 10.5623C11.6998 9.8979 11.1612 9.35929 10.4969 9.35929C9.8325 9.35929 9.29394 9.8979 9.29394 10.5623C9.29394 11.2267 9.8325 11.7653 10.4969 11.7653Z" stroke="black" stroke-width="0.8" stroke-linecap="round" stroke-linejoin="round"/>
<path d="M12.6546 11.437C12.6158 11.525 12.6042 11.6226 12.6213 11.7173C12.6385 11.8119 12.6836 11.8992 12.7509 11.968L12.7685 11.9856C12.8245 12.0394 12.8693 12.1039 12.9001 12.1752C12.9309 12.2465 12.9472 12.3232 12.948 12.4009C12.9488 12.4785 12.9341 12.5556 12.9047 12.6275C12.8754 12.6994 12.8319 12.7647 12.777 12.8197C12.7221 12.8746 12.6568 12.918 12.5849 12.9474C12.513 12.9767 12.4359 12.9914 12.3582 12.9907C12.2806 12.9899 12.2039 12.9736 12.1326 12.9428C12.0613 12.9119 11.9968 12.8672 11.943 12.8112L11.9254 12.7935C11.8572 12.7275 11.7712 12.6829 11.6779 12.6653C11.5847 12.6477 11.4883 12.6579 11.4007 12.6945C11.3132 12.7312 11.2383 12.7927 11.1854 12.8715C11.1325 12.9504 11.1039 13.0429 11.1031 13.1379V13.1876C11.1031 13.3423 11.0417 13.4907 10.9323 13.6001C10.8229 13.7095 10.6745 13.7709 10.5199 13.7709C10.3652 13.7709 10.2168 13.7095 10.1074 13.6001C9.99802 13.4907 9.93657 13.3423 9.93657 13.1876V13.1608C9.93435 13.0643 9.90313 12.9706 9.84697 12.8921C9.79081 12.8135 9.7123 12.7536 9.62167 12.7203C9.53369 12.6814 9.43609 12.6698 9.34146 12.687C9.24683 12.7041 9.15952 12.7493 9.09078 12.8165L9.07313 12.8342C9.01979 12.892 8.95531 12.9385 8.88354 12.9708C8.81178 13.0032 8.73423 13.0206 8.65554 13.0222C8.57686 13.0238 8.49867 13.0094 8.42567 12.98C8.35267 12.9506 8.28637 12.9067 8.23076 12.851C8.17515 12.7953 8.13136 12.729 8.10205 12.6559C8.07273 12.5829 8.05848 12.5047 8.06016 12.426C8.06184 12.3473 8.07941 12.2698 8.11182 12.198C8.14422 12.1263 8.19079 12.0619 8.24873 12.0086L8.26637 11.991C8.3324 11.9228 8.37697 11.8367 8.39457 11.7435C8.41216 11.6502 8.402 11.5538 8.36534 11.4663C8.32869 11.3787 8.26715 11.3039 8.18835 11.2509C8.10956 11.198 8.01697 11.1694 7.92207 11.1686H7.87235C7.71765 11.1686 7.56929 11.1072 7.4599 10.9978C7.35052 10.8884 7.28906 10.74 7.28906 10.5853C7.28906 10.4306 7.35052 10.2822 7.4599 10.1728C7.56929 10.0634 7.71765 10.002 7.87235 10.002H7.89854C7.9951 9.99976 8.08875 9.96853 8.16732 9.91237C8.24588 9.8562 8.30573 9.77769 8.33908 9.68705C8.37793 9.59906 8.38953 9.50146 8.37238 9.40682C8.35522 9.31218 8.31011 9.22486 8.24285 9.15611L8.22521 9.13847C8.16734 9.08512 8.12085 9.02063 8.08854 8.94886C8.05623 8.8771 8.03876 8.79954 8.03718 8.72084C8.0356 8.64215 8.04995 8.56395 8.07936 8.49095C8.10877 8.41795 8.15264 8.35164 8.20833 8.29602C8.26401 8.2404 8.33037 8.19662 8.4034 8.1673C8.47644 8.13798 8.55465 8.12373 8.63333 8.12541C8.71202 8.12709 8.78955 8.14466 8.86127 8.17707C8.93299 8.20948 8.99742 8.25605 9.05068 8.31399L9.06832 8.33164C9.13706 8.3989 9.22438 8.44402 9.31901 8.46118C9.41364 8.47833 9.51124 8.46673 9.59921 8.42788H9.62274C9.70897 8.39086 9.7825 8.32943 9.83427 8.25115C9.88604 8.17287 9.91379 8.08116 9.91411 7.98731V7.93758C9.91411 7.78287 9.97556 7.6345 10.085 7.5251C10.1943 7.41571 10.3427 7.35425 10.4974 7.35425C10.6521 7.35425 10.8005 7.41571 10.9098 7.5251C11.0192 7.6345 11.0807 7.78287 11.0807 7.93758V7.96378C11.0815 8.05869 11.1101 8.15129 11.163 8.23009C11.2159 8.30889 11.2907 8.37043 11.3783 8.40709C11.4658 8.44375 11.5622 8.45391 11.6555 8.43632C11.7487 8.41873 11.8348 8.37415 11.9029 8.30811L11.9206 8.29047C11.9744 8.23443 12.0388 8.1897 12.1101 8.15888C12.1814 8.12806 12.2581 8.11177 12.3358 8.11098C12.4135 8.11019 12.4905 8.1249 12.5624 8.15426C12.6343 8.18362 12.6996 8.22704 12.7546 8.28196C12.8095 8.33689 12.8529 8.40222 12.8823 8.47414C12.9116 8.54605 12.9263 8.6231 12.9255 8.70077C12.9247 8.77845 12.9085 8.85518 12.8776 8.92648C12.8468 8.99778 12.8021 9.06222 12.7461 9.11601L12.7284 9.13366C12.6612 9.2024 12.616 9.28973 12.5989 9.38436C12.5817 9.479 12.5933 9.57661 12.6322 9.66459V9.68812C12.6692 9.77436 12.7306 9.8479 12.8089 9.89967C12.8872 9.95145 12.9789 9.9792 13.0727 9.97952H13.1224C13.2771 9.97952 13.4255 10.041 13.5349 10.1504C13.6443 10.2598 13.7057 10.4081 13.7057 10.5628C13.7057 10.7176 13.6443 10.8659 13.5349 10.9753C13.4255 11.0847 13.2771 11.1462 13.1224 11.1462H13.0952C13.0014 11.1465 12.9097 11.1741 12.8315 11.2258C12.7532 11.2775 12.6917 11.3509 12.6546 11.437Z" stroke="black" stroke-width="0.8" stroke-linecap="round" stroke-linejoin="round"/>
</svg>
