<svg width="14" height="14" viewBox="0 0 14 14" fill="none" xmlns="http://www.w3.org/2000/svg">
<path d="M7.953 0C8.265 0 8.568.111 8.806.313c.239.201.398.481.45.79l.153.922.027.088c.013.028.029.055.047.079.019.025.039.048.063.067l.076.052c.067.036.13.073.188.108.052.033.11.054.172.06.06.007.122-.001.18-.021l.879-.329.111-.036c.262-.073.54-.063.798.029.258.092.479.261.636.483l.063.099.937 1.64c.156.27.21.588.154.895-.049.269-.18.515-.373.705l-.087.078-.724.595c-.046.04-.082.09-.107.147a.453.453 0 0 0-.033.178v.227c-.003.061.009.121.033.177.024.055.059.104.104.143l.726.599.087.078c.193.19.324.436.373.705.049.269.014.546-.1.793l-.054.103-.947 1.64c-.156.27-.404.477-.698.582-.296.105-.618.104-.91-.006l-.882-.331c-.057-.02-.118-.026-.179-.02a.453.453 0 0 0-.173.06l-.008.005c-.057.034-.114.069-.172.101l-.013.007a.454.454 0 0 0-.138.118.453.453 0 0 0-.073.167l-.152.922c-.052.308-.211.588-.449.79a1.116 1.116 0 0 1-.736.308l-.117.005H6.061a1.116 1.116 0 0 1-.853-.313 1.116 1.116 0 0 1-.45-.79l-.155-.93a.453.453 0 0 0-.07-.159.454.454 0 0 0-.139-.119l-.008-.003a5.18 5.18 0 0 1-.181-.107l-.005-.003a.454.454 0 0 0-.202-.039.454.454 0 0 0-.18.021l-.88.33c-.293.11-.615.112-.909.007a1.116 1.116 0 0 1-.698-.583L.417 9.774c-.156-.271-.211-.588-.155-.895.056-.308.219-.586.461-.784l.724-.598a.454.454 0 0 0 .116-.32v-.18a.454.454 0 0 0-.033-.206.454.454 0 0 0-.107-.146l-.724-.597a1.116 1.116 0 0 1-.461-.783 1.116 1.116 0 0 1 .155-.895l.944-1.636a1.116 1.116 0 0 1 .697-.584 1.116 1.116 0 0 1 .91.004l.88.33a.454.454 0 0 0 .181.021.454.454 0 0 0 .174-.061l.005-.003c.06-.037.124-.074.173-.1l.018-.01a.454.454 0 0 0 .138-.117.454.454 0 0 0 .072-.166l.153-.909c.001-.004 0-.009.001-.013a1.116 1.116 0 0 1 .449-.79A1.116 1.116 0 0 1 6.062 0h1.891zM6.062 1a.116.116 0 0 0-.082.038.116.116 0 0 0-.033.07v.008l-.156.935a1.453 1.453 0 0 1-.254.576c-.123.165-.28.3-.461.398-.056.032-.1.057-.143.083-.18.113-.383.185-.594.208a1.453 1.453 0 0 1-.626-.073l-.887-.332a.116.116 0 0 0-.082 0 .116.116 0 0 0-.057.052l-.001.002-.945 1.637a.116.116 0 0 0-.015.108.116.116 0 0 0 .057.075l.005.004.732.604a1.453 1.453 0 0 1 .45.686c.081.188.121.391.115.597v.187a1.453 1.453 0 0 1-.114.583 1.453 1.453 0 0 1-.45.686l-.733.604a.116.116 0 0 0-.057.076.116.116 0 0 0 .015.108l.943 1.64.032.046c.036.043.084.075.138.095a.116.116 0 0 0 .083-.001l.887-.332c.2-.071.415-.096.627-.073.209.023.41.093.588.204.046.028.094.055.142.082.185.098.344.236.468.404.095.128.166.27.213.422l.039.153.002.012.154.932a.116.116 0 0 0 .035.076.116.116 0 0 0 .082.037h1.885a.116.116 0 0 0 .082-.037.116.116 0 0 0 .035-.076l.154-.933.002-.013a1.453 1.453 0 0 1 .253-.574c.123-.166.282-.303.464-.4l.148-.086c.178-.11.378-.18.587-.203.158-.018.318-.008.472.027l.154.045.008.003.887.333a.116.116 0 0 0 .082 0 .116.116 0 0 0 .057-.052l.946-1.637a.116.116 0 0 0 .015-.109.116.116 0 0 0-.057-.075l-.732-.604a1.453 1.453 0 0 1-.451-.685 1.453 1.453 0 0 1-.115-.598v-.165a1.453 1.453 0 0 1 .116-.597 1.453 1.453 0 0 1 .451-.686l.731-.603a.116.116 0 0 0 .057-.075.116.116 0 0 0-.015-.109l-.938-1.642a.116.116 0 0 0-.057-.052.116.116 0 0 0-.083.001l-.886.333c-.201.071-.416.098-.628.076a1.453 1.453 0 0 1-.59-.206l-.134-.077a1.453 1.453 0 0 1-.465-.406 1.453 1.453 0 0 1-.252-.574l-.003-.012-.155-.934a.116.116 0 0 0-.035-.076.116.116 0 0 0-.082-.037H6.062z" fill="#006AFF"/>
<path d="M8.401 7.063a1.395 1.395 0 0 0-.408-.987 1.395 1.395 0 0 0-.986-.41 1.395 1.395 0 0 0-.777.236 1.395 1.395 0 0 0-.515.626 1.395 1.395 0 0 0-.08.807c.054.27.187.52.382.715.195.195.444.329.715.383.27.054.552.026.807-.08a1.395 1.395 0 0 0 .626-.514 1.395 1.395 0 0 0 .236-.776zm1 0a2.395 2.395 0 0 1-.403 1.331 2.395 2.395 0 0 1-1.076.883 2.395 2.395 0 0 1-1.384.06 2.395 2.395 0 0 1-1.228-.657 2.395 2.395 0 0 1-.655-1.227 2.395 2.395 0 0 1 .137-1.385 2.395 2.395 0 0 1 .883-1.075 2.395 2.395 0 0 1 1.332-.397 2.395 2.395 0 0 1 1.695.703 2.395 2.395 0 0 1 .7 1.694z" fill="#006AFF"/>
</svg>
