<svg width="14" height="14" viewBox="0 0 14 14" fill="none" xmlns="http://www.w3.org/2000/svg">
<path d="M3.62822 6.83046C3.62822 7.13079 3.509 7.41885 3.29663 7.63122C3.08426 7.84358 2.79625 7.96289 2.49591 7.96289C2.19558 7.96289 1.90757 7.84358 1.6952 7.63122C1.48283 7.41885 1.36344 7.13079 1.36344 6.83046C1.36344 6.53013 1.48283 6.24211 1.6952 6.02974C1.90757 5.81738 2.19558 5.69807 2.49591 5.69807C2.79625 5.69807 3.08426 5.81738 3.29663 6.02974C3.509 6.24211 3.62822 6.53013 3.62822 6.83046ZM8.15794 6.83046C8.15794 7.13079 8.03855 7.41885 7.82619 7.63122C7.61382 7.84358 7.3258 7.96289 7.02547 7.96289C6.72514 7.96289 6.43712 7.84358 6.22475 7.63122C6.01239 7.41885 5.89299 7.13079 5.89299 6.83046C5.89299 6.53013 6.01239 6.24211 6.22475 6.02974C6.43712 5.81738 6.72514 5.69807 7.02547 5.69807C7.3258 5.69807 7.61382 5.81738 7.82619 6.02974C8.03855 6.24211 8.15794 6.53013 8.15794 6.83046ZM12.6875 6.83046C12.6875 7.13079 12.5681 7.41885 12.3557 7.63122C12.1434 7.84358 11.8554 7.96289 11.555 7.96289C11.2547 7.96289 10.9667 7.84358 10.7543 7.63122C10.5419 7.41885 10.4227 7.13079 10.4227 6.83046C10.4227 6.53013 10.5419 6.24211 10.7543 6.02974C10.9667 5.81738 11.2547 5.69807 11.555 5.69807C11.8554 5.69807 12.1434 5.81738 12.3557 6.02974C12.5681 6.24211 12.6875 6.53013 12.6875 6.83046Z" fill="black"/>
</svg>
