<svg width="48" height="48" viewBox="0 0 48 48" fill="none" xmlns="http://www.w3.org/2000/svg">
<path d="M28.1529 5.7058C27.7308 5.01291 27.1251 4.43777 26.3962 4.03797C25.6674 3.63817 24.8411 3.42773 24 3.42773C23.1589 3.42773 22.3326 3.63817 21.6038 4.03797C20.8749 4.43777 20.2692 5.01291 19.8472 5.7058L0.643212 37.7121C0.222045 38.4068 0.00021641 39.1949 1.58263e-07 39.9971C-0.000216094 40.7993 0.221188 41.5875 0.641979 42.2824C1.06277 42.9773 1.66814 43.5546 2.3973 43.9563C3.12645 44.3579 3.95373 44.5698 4.79606 44.5706H43.2039C44.0463 44.5698 44.8735 44.3579 45.6027 43.9563C46.3319 43.5546 46.9372 42.9773 47.358 42.2824C47.7788 41.5875 48.0002 40.7993 48 39.9971C47.9998 39.1949 47.778 38.4068 47.3568 37.7121L28.1529 5.7058Z" fill="url(#paint0_linear_678_41215)"/>
<path d="M18.6706 16.5186C18.6706 15.9162 19.159 15.4277 19.7615 15.4277H28.4888C29.0913 15.4277 29.5797 15.9162 29.5797 16.5186V21.9732C29.5797 22.5757 29.0913 23.0641 28.4888 23.0641H19.7615C19.159 23.0641 18.6706 22.5757 18.6706 21.9732V16.5186Z" fill="white"/>
<path d="M9.94336 32.8823C9.94336 32.2798 10.4318 31.7914 11.0343 31.7914H19.7615C20.364 31.7914 20.8525 32.2798 20.8525 32.8823V38.3368C20.8525 38.9393 20.364 39.4277 19.7615 39.4277H11.0343C10.4318 39.4277 9.94336 38.9393 9.94336 38.3368V32.8823Z" fill="white"/>
<path d="M27.3979 32.8823C27.3979 32.2798 27.8863 31.7914 28.4888 31.7914H37.2161C37.8186 31.7914 38.307 32.2798 38.307 32.8823V38.3368C38.307 38.9393 37.8186 39.4277 37.2161 39.4277H28.4888C27.8863 39.4277 27.3979 38.9393 27.3979 38.3368V32.8823Z" fill="white"/>
<path d="M23.0343 23.0641H25.2161V28.5186H23.0343V23.0641Z" fill="white"/>
<path d="M14.307 28.5186H16.4888V32.8823H14.307V28.5186Z" fill="white"/>
<path d="M31.7615 28.5186H33.9434V32.8823H31.7615V28.5186Z" fill="white"/>
<path d="M14.307 26.3368H33.9434V28.5186H14.307V26.3368Z" fill="white"/>
<defs>
<linearGradient id="paint0_linear_678_41215" x1="53.1429" y1="44.9163" x2="28.8419" y2="3.60475" gradientUnits="userSpaceOnUse">
<stop stop-color="#004971"/>
<stop offset="1" stop-color="#009BF0"/>
</linearGradient>
</defs>
</svg>
