<svg width="14" height="14" viewBox="0 0 14 14" fill="none" xmlns="http://www.w3.org/2000/svg">
<path d="M7.10943 0.5H1.90939C1.5646 0.5 1.23394 0.636965 0.990139 0.880764C0.74634 1.12456 0.609375 1.45523 0.609375 1.80001V12.2001C0.609375 12.5449 0.74634 12.8755 0.990139 13.1193C1.23394 13.3631 1.5646 13.5001 1.90939 13.5001H4.50941M7.10943 0.5L11.0095 4.40003H7.10943V0.5ZM3.2094 7.65006H5.56179M3.2094 10.2501H4.50941M4.50941 5.05004H3.2094" stroke="black" stroke-linecap="round" stroke-linejoin="round"/>
<path d="M13.3871 12.748L11.4568 10.8946M12.1469 9.20438C12.1469 10.5038 11.0498 11.5572 9.69648 11.5572C8.34317 11.5572 7.24609 10.5038 7.24609 9.20438C7.24609 7.90496 8.34317 6.85156 9.69648 6.85156C11.0498 6.85156 12.1469 7.90496 12.1469 9.20438Z" stroke="black" stroke-linecap="round" stroke-linejoin="round"/>
</svg>
