<svg width="14" height="14" viewBox="0 0 14 14" fill="none" xmlns="http://www.w3.org/2000/svg">
<g clip-path="url(#clip0)">
<path d="M6.83801 2.18078C6.0637 2.18146 5.32132 2.45978 4.7738 2.95465C4.22628 3.44953 3.91835 4.12052 3.91759 4.82037M9.21824 12.2474H5.06285M8.35749 13.5H5.99921M4.997 11V10.4712C4.997 8.19564 2.1997 7.85419 2.1997 4.96788C2.19066 4.38412 2.31006 3.80455 2.55098 3.26285C2.79189 2.72115 3.1495 2.22813 3.60304 1.81243C4.05658 1.39673 4.597 1.06663 5.19289 0.841327C5.78879 0.616022 6.42828 0.5 7.07422 0.5C7.72015 0.5 8.35965 0.616022 8.95554 0.841327C9.55144 1.06663 10.0919 1.39673 10.5454 1.81243C10.9989 2.22813 11.3565 2.72115 11.5975 3.26285C11.8384 3.80455 11.9578 4.38412 11.9487 4.96788C11.9487 7.85419 9.15239 8.1965 9.15239 10.4712V11H4.997Z" stroke="black" stroke-linecap="round" stroke-linejoin="round"/>
</g>
<defs>
<clipPath id="clip0">
<rect width="14" height="14" fill="white"/>
</clipPath>
</defs>
</svg>
