<svg width="20" height="21" viewBox="0 0 20 21" fill="none" xmlns="http://www.w3.org/2000/svg">
<circle cx="10.0033" cy="10.1604" r="9.49675" fill="#E9E9E9" stroke="#C4C4C4"/>
<mask id="mask0_531_23240" style="mask-type:alpha" maskUnits="userSpaceOnUse" x="0" y="0" width="21" height="21">
<circle cx="10.0066" cy="10.1637" r="10" fill="#939393"/>
</mask>
<g mask="url(#mask0_531_23240)">
<path d="M6.72144 13.5863H13.2859C14.2375 13.5863 15.1508 13.9468 15.824 14.5883C16.497 15.2298 16.8757 16.0993 16.8757 17.0063V18.5707C16.8757 18.7262 16.7435 18.8617 16.5681 18.8617C16.3929 18.8613 16.2616 18.7257 16.2615 18.5707V17.0063C16.2614 16.2544 15.9482 15.534 15.3904 15.0023C14.8325 14.4707 14.0754 14.1713 13.2859 14.1713H6.72144C5.93203 14.1714 5.17482 14.4707 4.61694 15.0023C4.05943 15.534 3.74592 16.2546 3.74585 17.0063V18.5551L3.73706 18.6352C3.7071 18.7613 3.5894 18.8627 3.43921 18.8627C3.28893 18.8627 3.17025 18.7614 3.14038 18.6352L3.13257 18.5551V17.0063C3.13264 16.0995 3.51059 15.2297 4.18335 14.5883C4.85651 13.9468 5.76989 13.5864 6.72144 13.5863ZM10.0037 5.21231C11.8336 5.21231 13.3142 6.68617 13.3142 8.5004C13.314 10.3144 11.8335 11.7875 10.0037 11.7875C8.17395 11.7874 6.69332 10.3144 6.69312 8.5004C6.69312 6.68626 8.17382 5.21245 10.0037 5.21231ZM10.0037 5.72305C8.46259 5.72319 7.21069 6.9653 7.21069 8.5004C7.2109 10.0353 8.46272 11.2766 10.0037 11.2768C11.5447 11.2768 12.7974 10.0354 12.7976 8.5004C12.7976 6.96522 11.5449 5.72305 10.0037 5.72305Z" fill="#C4C4C4" stroke="#C4C4C4" stroke-width="0.5"/>
</g>
</svg>
