<svg width="50" height="20" viewBox="0 0 50 20" fill="none" xmlns="http://www.w3.org/2000/svg">
<rect width="24" height="20" rx="4" fill="white"/>
<path d="M7.625 6.125H18.5625M7.625 10.5H18.5625M7.625 14.875H18.5625" stroke="black" stroke-linecap="round"/>
<path d="M5.58789 14.9619C5.6366 14.9619 5.67676 15.0021 5.67676 15.0508C5.67659 15.0993 5.6365 15.1387 5.58789 15.1387C5.53942 15.1385 5.50016 15.0992 5.5 15.0508C5.5 15.0022 5.53932 14.9621 5.58789 14.9619ZM5.58789 10.4111C5.63652 10.4111 5.67663 10.4504 5.67676 10.499C5.67676 10.5477 5.6366 10.5879 5.58789 10.5879C5.53932 10.5877 5.5 10.5476 5.5 10.499C5.50013 10.4505 5.5394 10.4113 5.58789 10.4111ZM5.58789 5.85938C5.6365 5.85938 5.6766 5.8987 5.67676 5.94727C5.67676 5.99597 5.6366 6.03613 5.58789 6.03613C5.53932 6.03597 5.5 5.99587 5.5 5.94727C5.50016 5.8988 5.53942 5.85954 5.58789 5.85938Z" fill="black" stroke="black"/>
<rect x="31.6445" y="13.7656" width="2.70745" height="2.70745" rx="1.35372" stroke="#626262" stroke-width="1.10792"/>
<rect x="36.6445" y="13.7656" width="2.70745" height="2.70745" rx="1.35372" stroke="#626262" stroke-width="1.10792"/>
<rect x="41.6406" y="13.7656" width="2.70745" height="2.70745" rx="1.35372" stroke="#626262" stroke-width="1.10792"/>
<path d="M36.1758 6.3455L37.9949 4.52637L39.814 6.3455" stroke="#626262" stroke-width="1.10792" stroke-linecap="round" stroke-linejoin="round"/>
<path d="M37.9982 13.4147L37.9961 5.1875" stroke="#626262" stroke-width="1.10792" stroke-linecap="round" stroke-linejoin="round"/>
<path d="M32.8675 13.415C32.8675 12.5358 32.9412 12.0566 33.4252 11.547C33.8097 11.1422 34.3636 10.8006 34.9338 10.6116C35.5057 10.422 36.1072 10.2714 36.6052 9.93218L37.9961 8.98464V7.5166" stroke="#626262" stroke-linecap="round" stroke-linejoin="round"/>
<path d="M43.1286 13.415C43.1286 12.5358 43.0549 12.0566 42.5709 11.547C42.1864 11.1422 41.6325 10.8006 41.0623 10.6116C40.4904 10.422 39.8889 10.2714 39.3909 9.93218L38 8.98464V7.5166" stroke="#626262" stroke-linecap="round" stroke-linejoin="round"/>
</svg>
