<svg width="12" height="12" viewBox="0 0 12 12" fill="none" xmlns="http://www.w3.org/2000/svg">
<path d="M8.865 1.268L8.682 1.986C9.537 2.556 10.187 3.383 10.54 4.348C10.892 5.312 10.927 6.364 10.641 7.35C10.354 8.336 9.761 9.206 8.946 9.831C8.132 10.457 7.14 10.807 6.113 10.83L5.557 11.518C5.704 11.53 5.853 11.536 6.005 11.536C7.213 11.536 8.388 11.14 9.35 10.409C10.312 9.678 11.008 8.652 11.332 7.488C11.657 6.324 11.591 5.086 11.145 3.963C10.7 2.84 9.899 1.893 8.865 1.268ZM1.174 6.003C1.176 4.741 1.671 3.529 2.553 2.627C3.436 1.725 4.637 1.204 5.898 1.175L6.453 0.488C6.306 0.476 6.156 0.47 6.007 0.47C4.797 0.468 3.619 0.862 2.655 1.593C1.691 2.324 0.993 3.351 0.668 4.517C0.343 5.683 0.409 6.923 0.857 8.047C1.304 9.171 2.107 10.118 3.144 10.742L3.326 10.023C2.665 9.582 2.122 8.985 1.747 8.285C1.372 7.584 1.176 6.802 1.175 6.007" stroke="#2C66DD" stroke-width="1"/>
<path d="M9.15 4.96H7.153L8.285 0.492C8.3 0.441 8.302 0.388 8.292 0.336C8.282 0.284 8.26 0.235 8.228 0.194C8.194 0.149 8.15 0.112 8.1 0.086C8.05 0.061 7.994 0.047 7.938 0.046C7.886 0.046 7.835 0.058 7.789 0.081C7.743 0.104 7.702 0.138 7.671 0.179L2.588 6.476C2.545 6.527 2.518 6.589 2.511 6.655C2.503 6.721 2.514 6.788 2.544 6.848C2.572 6.908 2.618 6.958 2.674 6.993C2.73 7.029 2.795 7.047 2.862 7.046H4.859L3.726 11.514C3.712 11.565 3.71 11.618 3.72 11.67C3.73 11.722 3.752 11.771 3.784 11.812C3.818 11.856 3.862 11.892 3.913 11.917C3.963 11.941 4.018 11.954 4.074 11.954C4.126 11.954 4.177 11.942 4.223 11.919C4.269 11.896 4.31 11.862 4.341 11.821L9.424 5.524C9.466 5.473 9.493 5.411 9.5 5.345C9.508 5.279 9.497 5.212 9.468 5.152C9.44 5.098 9.395 5.047 9.338 5.012C9.282 4.977 9.217 4.958 9.15 4.96Z" stroke="#2C66DD" stroke-width="1"/>
</svg>
