<svg width="14" height="14" viewBox="0 0 14 14" fill="none" xmlns="http://www.w3.org/2000/svg">
<path d="M1 7C1 5.81331 1.35189 4.65328 2.01118 3.66658C2.67047 2.67989 3.60754 1.91085 4.7039 1.45673C5.80026 1.0026 7.00666 0.88378 8.17054 1.11529C9.33443 1.3468 10.4035 1.91825 11.2426 2.75736C12.0818 3.59648 12.6532 4.66558 12.8847 5.82946C13.1162 6.99335 12.9974 8.19975 12.5433 9.2961C12.0892 10.3925 11.3201 11.3295 10.3334 11.9888C9.34673 12.6481 8.18669 13 7 13V14C8.38447 14 9.73785 13.5895 10.889 12.8203C12.0401 12.0511 12.9373 10.9579 13.4672 9.67879C13.997 8.3997 14.1356 6.99224 13.8655 5.63437C13.5954 4.2765 12.9287 3.02922 11.9497 2.05026C10.9708 1.07129 9.7235 0.404603 8.36563 0.134506C7.00776 -0.13559 5.6003 0.00303298 4.32122 0.532846C3.04213 1.06266 1.94888 1.95987 1.17971 3.11101C0.410542 4.26216 0 5.61553 0 7C0 8.85652 0.737498 10.637 2.05025 11.9497C3.36301 13.2625 5.14348 14 7 14V13C5.4087 13 3.88258 12.3679 2.75736 11.2426C1.63214 10.1174 1 8.5913 1 7Z" fill="#0098C5"/>
<path d="M7 2.9C6.81824 2.9 6.64056 2.9539 6.48943 3.05488C6.3383 3.15586 6.22051 3.29939 6.15096 3.46732C6.0814 3.63524 6.0632 3.82002 6.09866 3.99829C6.13412 4.17656 6.22165 4.34031 6.35017 4.46883C6.4787 4.59736 6.64245 4.68488 6.82071 4.72034C6.99898 4.7558 7.18376 4.7376 7.35169 4.66805C7.51961 4.59849 7.66314 4.4807 7.76412 4.32957C7.8651 4.17844 7.919 4.00076 7.919 3.819C7.919 3.57527 7.82218 3.34152 7.64983 3.16917C7.47749 2.99682 7.24374 2.9 7 2.9Z" fill="#0098C5"/>
<path d="M7 5.723C6.90108 5.72287 6.8031 5.74226 6.71169 5.78005C6.62027 5.81785 6.53721 5.87331 6.46726 5.94326C6.39731 6.01321 6.34185 6.09627 6.30405 6.18769C6.26626 6.2791 6.24687 6.37708 6.247 6.476V10.089C6.25411 10.2838 6.3365 10.4683 6.47684 10.6036C6.61719 10.739 6.80455 10.8146 6.9995 10.8146C7.19446 10.8146 7.38182 10.739 7.52216 10.6036C7.66251 10.4683 7.7449 10.2838 7.752 10.089V6.475C7.752 6.27556 7.67277 6.08429 7.53175 5.94326C7.39072 5.80223 7.19945 5.723 7 5.723Z" fill="#0098C5"/>
</svg>
