<svg width="12" height="12" viewBox="0 0 12 12" fill="none" xmlns="http://www.w3.org/2000/svg">
<path d="M0 10.4386V1.53992C4.50934e-05 1.13024 0.165712 0.737981 0.459576 0.449527C0.753398 0.161163 1.15133 0 1.56509 0H6.09845L6.18278 0.00835553C6.26509 0.0246035 6.34148 0.0643337 6.40202 0.123662L9.80204 3.46086C9.92634 3.58285 9.96384 3.76677 9.89733 3.9271C9.83075 4.08746 9.67347 4.1928 9.49847 4.1928H6.09845C5.86011 4.1928 5.66688 4.00112 5.6667 3.765V0.855606H1.56509C1.37769 0.855606 1.19883 0.928985 1.06757 1.05781C0.936559 1.18645 0.863542 1.35983 0.863497 1.53992V10.4386C0.863542 10.6187 0.936558 10.792 1.06757 10.9207C1.19883 11.0495 1.37769 11.1229 1.56509 11.1229H3.83177C4.07022 11.1229 4.26352 11.3144 4.26352 11.5507C4.26352 11.787 4.07022 11.9785 3.83177 11.9785H1.56509C1.15133 11.9785 0.753398 11.8173 0.459576 11.529C0.165712 11.2405 4.50917e-05 10.8482 0 10.4386ZM3.88574 8.34216C4.12419 8.34216 4.31749 8.53369 4.31749 8.76996C4.31749 9.00623 4.12419 9.19776 3.88574 9.19776H2.69843C2.45998 9.19776 2.26668 9.00623 2.26668 8.76996C2.26668 8.53369 2.45998 8.34216 2.69843 8.34216H3.88574ZM3.88574 6.11792C4.12419 6.11792 4.31749 6.30945 4.31749 6.54572C4.31731 6.78184 4.12407 6.97352 3.88574 6.97352H2.69843C2.46009 6.97352 2.26686 6.78184 2.26668 6.54572C2.26668 6.30945 2.45998 6.11792 2.69843 6.11792H3.88574ZM3.83177 3.89284C4.07016 3.89284 4.26343 4.08445 4.26352 4.32064C4.26352 4.55691 4.07022 4.74845 3.83177 4.74845H2.69843C2.45998 4.74845 2.26668 4.55691 2.26668 4.32064C2.26677 4.08445 2.46004 3.89284 2.69843 3.89284H3.83177ZM6.5302 3.3372H8.44946L6.5302 1.45303V3.3372Z" fill="black"/>
<path d="M11.1365 8.57758C11.1365 7.15895 9.97909 6.01076 8.5536 6.01076C7.12812 6.01077 5.9707 7.15896 5.9707 8.57758C5.9707 9.99619 7.12812 11.1444 8.5536 11.1444C9.97909 11.1444 11.1365 9.9962 11.1365 8.57758ZM7.98271 7.24654C7.98276 7.01045 8.17623 6.81895 8.41446 6.81874C8.65288 6.81874 8.84616 7.01031 8.84621 7.24654V8.75638L9.84041 9.58024C10.0231 9.73176 10.0471 10.0015 9.89438 10.1827C9.74152 10.3639 9.46935 10.3883 9.28639 10.237L8.13787 9.28612C8.03978 9.20488 7.98277 9.08443 7.98271 8.95775V7.24654ZM12 8.57758C12 10.4667 10.458 12 8.5536 12C6.64918 12 5.1072 10.4667 5.1072 8.57758C5.1072 6.68844 6.64918 5.15517 8.5536 5.15515C10.458 5.15515 12 6.68843 12 8.57758Z" fill="black"/>
</svg>
