<svg width="20" height="20" viewBox="0 0 20 20" fill="none" xmlns="http://www.w3.org/2000/svg">
<path d="M17.5383 10.9125L15.9258 9.3C15.809 9.18392 15.7418 9.0271 15.7383 8.8625V6.25C15.7383 4.5924 15.0798 3.00269 13.9077 1.83058C12.7356 0.65848 11.1459 0 9.48828 0C7.83068 0 6.24097 0.65848 5.06887 1.83058C3.89676 3.00269 3.23828 4.5924 3.23828 6.25V8.8625C3.23936 8.94448 3.22323 9.02578 3.19093 9.10114C3.15864 9.1765 3.11089 9.24424 3.05078 9.3L1.43828 10.9125C1.21599 11.1336 1.03968 11.3966 0.919534 11.6863C0.79939 11.9759 0.737789 12.2864 0.738284 12.6V13.1125C0.738284 13.6098 0.935828 14.0867 1.28746 14.4383C1.63909 14.79 2.116 14.9875 2.61328 14.9875H16.3633C16.8606 14.9875 17.3375 14.79 17.6891 14.4383C18.0407 14.0867 18.2383 13.6098 18.2383 13.1125V12.6C18.2388 12.2864 18.1772 11.9759 18.057 11.6863C17.9369 11.3966 17.7606 11.1336 17.5383 10.9125Z" fill="#2C66DD"/>
<path d="M11.9883 16.25C11.8225 16.25 11.6636 16.3158 11.5463 16.4331C11.4291 16.5503 11.3633 16.7092 11.3633 16.875C11.3633 17.3723 11.1657 17.8492 10.8141 18.2008C10.4625 18.5525 9.98557 18.75 9.48828 18.75C8.991 18.75 8.51409 18.5525 8.16246 18.2008C7.81083 17.8492 7.61328 17.3723 7.61328 16.875C7.61328 16.7092 7.54744 16.5503 7.43023 16.4331C7.31302 16.3158 7.15404 16.25 6.98828 16.25C6.82252 16.25 6.66355 16.3158 6.54634 16.4331C6.42913 16.5503 6.36328 16.7092 6.36328 16.875C6.36328 17.7038 6.69252 18.4987 7.27858 19.0847C7.86463 19.6708 8.65948 20 9.48828 20C10.3171 20 11.1119 19.6708 11.698 19.0847C12.284 18.4987 12.6133 17.7038 12.6133 16.875C12.6133 16.7092 12.5474 16.5503 12.4302 16.4331C12.313 16.3158 12.154 16.25 11.9883 16.25Z" fill="#2C66DD"/>
<path d="M1.92969 1.45898L18.0681 17.5977" stroke="#2C66DD" stroke-width="1.2" stroke-linecap="round"/>
</svg>
