<svg width="14" height="14" viewBox="0 0 14 14" fill="none" xmlns="http://www.w3.org/2000/svg">
<path d="M8.75 11.375C8.63397 11.375 8.52269 11.4211 8.44064 11.5031C8.35859 11.5852 8.3125 11.6965 8.3125 11.8125C8.3125 12.1606 8.17422 12.4944 7.92808 12.7406C7.68194 12.9867 7.3481 13.125 7 13.125C6.6519 13.125 6.31806 12.9867 6.07192 12.7406C5.82578 12.4944 5.6875 12.1606 5.6875 11.8125C5.6875 11.6965 5.64141 11.5852 5.55936 11.5031C5.47731 11.4211 5.36603 11.375 5.25 11.375C5.13397 11.375 5.02269 11.4211 4.94064 11.5031C4.85859 11.5852 4.8125 11.6965 4.8125 11.8125C4.8125 12.3927 5.04297 12.9491 5.4532 13.3593C5.86344 13.7695 6.41984 14 7 14C7.58016 14 8.13656 13.7695 8.5468 13.3593C8.95703 12.9491 9.1875 12.3927 9.1875 11.8125C9.1875 11.6965 9.14141 11.5852 9.05936 11.5031C8.97731 11.4211 8.86603 11.375 8.75 11.375Z" fill="#626262"/>
<path d="M7 0C8.16032 0 9.27312 0.460936 10.0936 1.28141C10.5093 1.60564 9.97906 2.40431 9.47487 1.90013C8.8185 1.24375 7.92826 0.875 7 0.875C6.07174 0.875 5.18151 1.24375 4.52513 1.90013C3.86875 2.5565 3.5 3.44674 3.5 4.375V6.20375C3.49818 6.55142 3.35993 6.88448 3.115 7.13125L1.98625 8.26C1.91031 8.33379 1.8502 8.42227 1.80959 8.52006C1.76897 8.61784 1.7487 8.72287 1.75 8.82875V9.1875C1.75 9.30294 1.79563 9.41368 1.8769 9.49561C1.94052 9.4958 2.03923 9.49618 2.1875 9.49686C2.875 9.5 2.875 10.5 2.1875 10.4913C1.875 10.5 1.50557 10.353 1.25942 10.1068C1.01328 9.86069 0.875002 9.52685 0.875002 9.17875V8.82C0.874655 8.60051 0.917776 8.38312 1.00188 8.18038C1.08598 7.97763 1.20939 7.79355 1.365 7.63875L2.49375 6.51C2.53583 6.47097 2.56925 6.42355 2.59186 6.3708C2.61446 6.31804 2.62576 6.26114 2.625 6.20375V4.375C2.625 3.21468 3.08594 2.10188 3.90641 1.28141C4.72688 0.460936 5.83968 0 7 0Z" fill="#626262"/>
<path d="M11.5063 6.51L12.635 7.63875C12.7906 7.79355 12.914 7.97763 12.9981 8.18038C13.0822 8.38312 13.1253 8.60051 13.125 8.82V9.17875C13.125 9.52685 12.9867 9.86069 12.7406 10.1068C12.4944 10.353 12.1606 10.4913 11.8125 10.4913H2.25C2.25 10.4913 1.875 10.5 1.875 10C1.875 9.5 2.25 9.49686 2.25 9.49686H12.1219C12.2039 9.41481 12.25 9.30353 12.25 9.1875V8.82875C12.2501 8.72305 12.2293 8.61837 12.1888 8.52075C12.1482 8.42314 12.0887 8.33451 12.0138 8.26L10.885 7.13125C10.6401 6.88449 10.5018 6.55143 10.5 6.20375C10.375 5.5 11.375 5.5 11.375 6.20375C11.3775 6.31897 11.4245 6.42874 11.5063 6.51Z" fill="#626262"/>
<circle cx="9.80737" cy="3.48804" r="2.6355" fill="#198019" stroke="white"/>
</svg>
