<svg width="24" height="24" viewBox="0 0 24 24" fill="none" xmlns="http://www.w3.org/2000/svg">
<g clip-path="url(#clip0_alert_warning)">
<rect x="12" y="-1.45605" width="19.0286" height="19.0286" rx="2" transform="rotate(45 12 -1.45605)" fill="#FF5900"/>
<path d="M11.8602 18.7626C12.73 18.7626 13.4352 18.0574 13.4352 17.1876C13.4352 16.3177 12.73 15.6126 11.8602 15.6126C10.9903 15.6126 10.2852 16.3177 10.2852 17.1876C10.2852 18.0574 10.9903 18.7626 11.8602 18.7626Z" fill="white"/>
<path d="M11.8602 13.9176C12.5652 13.9176 13.1502 13.3476 13.1502 12.6276V6.43258C13.1502 5.72758 12.5802 5.14258 11.8602 5.14258C11.1402 5.14258 10.5702 5.71258 10.5702 6.43258V12.6276C10.5702 13.3326 11.1402 13.9176 11.8602 13.9176Z" fill="white"/>
</g>
<defs>
<clipPath id="clip0_alert_warning">
<rect width="24" height="24" fill="white"/>
</clipPath>
</defs>
</svg>
