<svg width="14" height="14" viewBox="0 0 14 14" fill="none" xmlns="http://www.w3.org/2000/svg">
<path d="M12.3444 11.0448C12.2442 10.9325 12.1981 10.725 12.1469 10.5034C12.0968 10.2829 12.0397 10.0453 11.8582 9.89188V9.89087C11.792 9.83351 11.7164 9.78806 11.6347 9.75654C11.8873 9.00966 11.788 8.26579 11.5344 7.5941C11.2216 6.76902 10.6772 6.05021 10.2612 5.55898C9.79603 4.9715 9.34088 4.4141 9.34891 3.59103C9.36294 2.33387 9.48725 0.00300756 7.27569 0C7.18546 0 7.09223 0.00401005 6.99498 0.0120302C4.52277 0.210529 5.17842 2.8221 5.14132 3.6963C5.09621 4.3359 4.96688 4.83917 4.52678 5.46474C4.01048 6.07929 3.28365 7.07279 2.93878 8.10839C2.77638 8.59662 2.69818 9.09487 2.77036 9.56606C2.7473 9.58611 2.72625 9.60716 2.7062 9.62922C2.55482 9.79062 2.44254 9.98711 2.31722 10.1194C2.20093 10.2357 2.03451 10.2799 1.85205 10.345C1.66859 10.4112 1.46809 10.5074 1.34678 10.741V10.742C1.29296 10.847 1.26642 10.9639 1.26959 11.0819C1.26959 11.1901 1.28563 11.2994 1.30167 11.4047C1.33575 11.6252 1.36984 11.8328 1.32473 11.9731C1.18036 12.3691 1.16131 12.6418 1.26357 12.8403C1.36583 13.0398 1.57435 13.127 1.81195 13.1761C2.28614 13.2764 2.92876 13.2513 3.43503 13.519C3.97639 13.8027 4.52678 13.903 4.96488 13.8037C5.11806 13.7736 5.26199 13.7078 5.38497 13.6117C5.50795 13.5155 5.60652 13.3917 5.67266 13.2503C6.01552 13.2483 6.39147 13.104 6.99398 13.0699C7.40301 13.0378 7.9143 13.2152 8.50077 13.1832C8.51598 13.2468 8.53887 13.3084 8.56894 13.3666L8.56995 13.3676C8.79752 13.8238 9.22158 14.0313 9.67272 13.9962C10.1239 13.9601 10.6031 13.6944 10.991 13.2323C11.362 12.7831 11.9755 12.5977 12.3825 12.3521C12.586 12.2288 12.7515 12.0754 12.7635 11.8518C12.7765 11.6292 12.6452 11.3796 12.3444 11.0448Z" fill="#202020"/>
<path d="M12.578 11.842C12.571 11.9794 12.4707 12.0826 12.2873 12.1929C11.9183 12.4155 11.2657 12.608 10.8497 13.1132C10.4867 13.5443 10.0456 13.7799 9.65666 13.811C9.26869 13.8411 8.93384 13.6807 8.73535 13.2837V13.2817C8.61204 13.0481 8.66316 12.6801 8.76642 12.2922C8.86968 11.9042 9.01806 11.5052 9.03811 11.1814C9.05816 10.7653 9.08222 10.4024 9.15239 10.1227C9.22257 9.84201 9.33185 9.65353 9.52633 9.54626C9.53528 9.54143 9.5443 9.53675 9.5534 9.53223C9.57546 9.89213 9.75391 10.2591 10.0687 10.3383C10.4126 10.4285 10.9088 10.1337 11.1183 9.89213L11.2406 9.88812C11.4251 9.88311 11.5785 9.89414 11.7369 10.0315C11.8582 10.1337 11.9163 10.3292 11.9665 10.5458C12.0166 10.7633 12.0567 10.9999 12.2061 11.1683C12.4938 11.4891 12.587 11.7037 12.578 11.842ZM5.58141 12.8596V12.8626C5.54733 13.2987 5.30071 13.5363 4.92376 13.6225C4.54581 13.7087 4.03352 13.6225 3.52224 13.3558C2.95581 13.0551 2.28212 13.0852 1.85103 12.9949C1.63449 12.9498 1.49313 12.8816 1.42897 12.7563C1.36481 12.63 1.36281 12.4105 1.50015 12.0345V12.0335L1.50115 12.0315C1.56932 11.822 1.5192 11.5924 1.48612 11.3769C1.45303 11.1623 1.43699 10.9658 1.51018 10.8295L1.51118 10.8285C1.60542 10.647 1.74376 10.5819 1.91519 10.5207C2.08562 10.4586 2.28913 10.4104 2.44954 10.25L2.45054 10.249C2.59891 10.0916 2.7122 9.89514 2.84253 9.75579C2.9528 9.63849 3.06308 9.5603 3.2285 9.55929H3.23351C3.26475 9.55958 3.29592 9.56226 3.32674 9.56731C3.5473 9.6004 3.73878 9.75479 3.92425 10.0054L4.45859 10.9789V10.9799C4.60095 11.2766 4.9007 11.6034 5.15534 11.9363C5.40998 12.2701 5.60648 12.604 5.58141 12.8596Z" fill="#F8BF11"/>
<path d="M8.24516 3.78146C8.20206 3.69725 8.11484 3.61705 7.96446 3.5559C7.65368 3.42256 7.51934 3.41354 7.3459 3.30126C7.0652 3.1198 6.83161 3.05664 6.63812 3.05664C6.54524 3.05709 6.45308 3.07302 6.36544 3.10376C6.12884 3.18396 5.97245 3.35439 5.8742 3.44662C5.85415 3.46567 5.83009 3.48171 5.76994 3.52682C5.70979 3.56993 5.61956 3.6371 5.48923 3.73535C5.37194 3.82156 5.33485 3.93585 5.37495 4.06818C5.41505 4.20052 5.54237 4.3539 5.77595 4.48624C5.92132 4.57145 6.02157 4.68674 6.13586 4.77797C6.19326 4.82568 6.25703 4.86516 6.32534 4.89526C6.39752 4.92634 6.48173 4.9474 6.58599 4.95341C6.83462 4.96845 7.01708 4.89326 7.17748 4.80203C7.33788 4.7098 7.47423 4.59752 7.63062 4.54639C7.95143 4.44613 8.181 4.24463 8.25318 4.05214C8.2714 4.00911 8.28011 3.96264 8.27873 3.91593C8.27734 3.86921 8.26589 3.82335 8.24516 3.78146Z" fill="#D6A312"/>
<path d="M7.43024 4.2549C7.17459 4.38824 6.87685 4.54965 6.55905 4.54965C6.24225 4.54965 5.99162 4.40328 5.81217 4.25992C5.72194 4.18974 5.64876 4.11756 5.59362 4.06643C5.49738 3.99124 5.50941 3.88497 5.5485 3.88798C5.61467 3.896 5.6247 3.98322 5.6658 4.02232C5.72194 4.07445 5.79212 4.14262 5.87733 4.20979C6.04776 4.34513 6.27533 4.47646 6.55905 4.47646C6.84376 4.47646 7.17459 4.31004 7.3771 4.19576C7.49239 4.13159 7.63776 4.0163 7.75706 3.92909C7.84729 3.86192 7.84428 3.78171 7.91947 3.79074C7.99466 3.79976 7.93952 3.87996 7.83425 3.97119C7.72899 4.06342 7.56357 4.18573 7.43024 4.2549Z" fill="#202020"/>
<path d="M11.342 9.70207C11.3072 9.70102 11.2724 9.70102 11.2377 9.70207H11.2277C11.3159 9.42437 11.1214 9.22086 10.6051 8.98728C10.0698 8.75168 9.64268 8.77474 9.5705 9.25294C9.56548 9.27801 9.56147 9.30307 9.55947 9.32913C9.51795 9.34385 9.47771 9.36196 9.43917 9.38327C9.18653 9.52062 9.04918 9.77024 8.97299 10.077C8.8968 10.3828 8.87475 10.7527 8.85369 11.1698C8.84066 11.3783 8.75444 11.661 8.66722 11.9618C7.79002 12.5873 6.57195 12.858 5.53735 12.1522C5.46718 12.042 5.38698 11.9317 5.30377 11.8234C5.25094 11.7544 5.19747 11.6859 5.14336 11.6179C5.23546 11.6204 5.32703 11.6033 5.41204 11.5678C5.45451 11.5499 5.49293 11.5237 5.52498 11.4906C5.55703 11.4575 5.58204 11.4183 5.59851 11.3753C5.66167 11.2049 5.59851 10.9663 5.396 10.6936C5.19449 10.4199 4.85263 10.1121 4.35037 9.80333C3.98144 9.57275 3.77492 9.29204 3.67868 8.98728C3.58143 8.68151 3.59447 8.35067 3.66865 8.02485C3.81201 7.39828 4.17994 6.78875 4.41353 6.40679C4.47669 6.36067 4.43659 6.493 4.17693 6.97522C3.94435 7.41632 3.50825 8.43388 4.10475 9.22888C4.12079 8.66346 4.25513 8.08601 4.4827 7.54766C4.81253 6.79877 5.50327 5.50151 5.5574 4.46691C5.58648 4.48696 5.68272 4.55312 5.72683 4.57718C5.85315 4.65237 5.94839 4.76165 6.0717 4.8609C6.2325 4.99661 6.43783 5.06803 6.64815 5.0614C6.88875 5.0614 7.07622 4.9822 7.23161 4.89298C7.40204 4.79674 7.53638 4.68846 7.66571 4.64736C7.93639 4.56215 8.15293 4.41177 8.27524 4.23633C8.48577 5.06842 8.977 6.26844 9.29179 6.85391C9.45922 7.16469 9.79306 7.82535 9.93642 8.62035C10.0276 8.61835 10.1279 8.63038 10.2362 8.65845C10.6121 7.683 9.91636 6.63135 9.59857 6.33861C9.47024 6.2143 9.46323 6.15816 9.52839 6.16117C9.87225 6.46593 10.3254 7.08048 10.4908 7.77322C10.566 8.08902 10.581 8.42085 10.5008 8.74868C10.5409 8.76572 10.581 8.78276 10.6211 8.80281C11.2257 9.09655 11.4492 9.35219 11.342 9.70207Z" fill="white"/>
<path d="M7.03171 7.06348C6.47431 7.06548 5.92994 7.31511 5.46978 7.78128C5.00863 8.24645 4.65373 8.90611 4.44922 9.67404L4.51037 9.71214V9.71615C4.98156 10.0149 5.3174 10.3157 5.52492 10.5964C5.74448 10.8931 5.84172 11.1818 5.74849 11.4325C5.69927 11.5591 5.60196 11.6611 5.47781 11.7162L5.4367 11.7312C5.51089 11.8285 5.58307 11.9287 5.65024 12.032C6.59662 12.6616 7.69739 12.429 8.52447 11.8595C8.60467 11.5808 8.67785 11.3222 8.68788 11.1598C8.70893 10.7437 8.72998 10.3658 8.81219 10.037C8.8944 9.70612 9.0548 9.40537 9.35756 9.23995C9.3746 9.22992 9.39165 9.22491 9.40869 9.21689C9.41403 9.18504 9.42139 9.15357 9.43075 9.12265C9.18814 8.49909 8.83826 7.97978 8.4182 7.61887C7.99714 7.25797 7.51894 7.06648 7.03272 7.06348H7.03171ZM9.40769 9.22391L9.40568 9.22892V9.22692L9.40669 9.22291L9.40769 9.22391Z" fill="#E6E6E6"/>
<path d="M8.27577 2.82473C8.2801 3.06198 8.20415 3.29373 8.06023 3.48238C7.98826 3.45023 7.91538 3.42014 7.84168 3.39216L7.71436 3.34704C7.74343 3.31196 7.79957 3.27186 7.82163 3.21972C7.85338 3.14236 7.87038 3.05973 7.87176 2.97611L7.87276 2.96609C7.87525 2.88576 7.86336 2.80564 7.83767 2.72949C7.81749 2.65995 7.78028 2.59655 7.7294 2.54503C7.70923 2.52362 7.68503 2.5064 7.6582 2.49435C7.63136 2.48231 7.60241 2.47568 7.57301 2.47485H7.56599C7.50985 2.47563 7.45597 2.49704 7.41461 2.535C7.35988 2.5824 7.31784 2.6427 7.2923 2.71044C7.26071 2.78786 7.24371 2.87046 7.24217 2.95406V2.96408C7.24059 3.01105 7.24361 3.05806 7.2512 3.10443C7.13747 3.05194 7.01851 3.01162 6.8963 2.98413C6.89048 2.93991 6.88714 2.89539 6.88628 2.8508V2.83776C6.88204 2.68369 6.91217 2.53061 6.9745 2.38964C7.02758 2.25984 7.11405 2.1464 7.22513 2.06081C7.32337 1.98147 7.44572 1.93797 7.572 1.9375H7.57802C7.70333 1.9375 7.8106 1.97359 7.92088 2.05379C8.03442 2.13691 8.12344 2.24913 8.17853 2.37861C8.24169 2.51696 8.27277 2.6523 8.27577 2.8127L8.27678 2.82473H8.27577ZM6.38101 2.98914C6.28285 3.01723 6.18931 3.05944 6.10331 3.11446C6.11003 3.0646 6.11071 3.01411 6.10531 2.96408V2.95606C6.09918 2.88982 6.08295 2.82491 6.05719 2.76358C6.03656 2.70961 6.0036 2.6612 5.96095 2.62222C5.94528 2.60684 5.92658 2.59489 5.90604 2.58713C5.88551 2.57936 5.86358 2.57595 5.84165 2.57711C5.79955 2.58112 5.76446 2.60117 5.73137 2.64227C5.69616 2.68825 5.67213 2.74179 5.6612 2.79867C5.64557 2.86599 5.64116 2.93543 5.64817 3.00418V3.0122C5.65393 3.07883 5.67017 3.14413 5.69629 3.20569C5.72029 3.26733 5.76046 3.32135 5.81258 3.36208L5.71032 3.44228L5.63212 3.49843C5.56267 3.43012 5.50806 3.34821 5.47172 3.25782C5.41859 3.13752 5.38951 3.01722 5.38149 2.87586V2.87486C5.37231 2.74286 5.38761 2.61031 5.42661 2.48387C5.45653 2.37361 5.51416 2.27284 5.59403 2.19114C5.62753 2.15415 5.66836 2.12453 5.71392 2.10416C5.75949 2.0838 5.80879 2.07313 5.85869 2.07284C5.94291 2.07284 6.01709 2.10091 6.09429 2.16307C6.18248 2.2355 6.25108 2.32892 6.29379 2.43475C6.34692 2.55505 6.37399 2.67536 6.38301 2.81771C6.38602 2.87786 6.38602 2.93401 6.38101 2.98914Z" fill="white"/>
<path d="M6.79952 3.32761C6.80954 3.3617 6.86468 3.35669 6.89676 3.37273C6.92383 3.38676 6.94689 3.41784 6.97696 3.41884C7.00704 3.41985 7.05316 3.40882 7.05717 3.37874C7.06218 3.34065 7.00504 3.31558 6.96894 3.30155C6.92183 3.2825 6.86167 3.27348 6.81756 3.29854C6.80754 3.30355 6.79651 3.31558 6.79952 3.32761ZM6.47671 3.32761C6.46668 3.3617 6.41154 3.35669 6.38046 3.37273C6.35239 3.38676 6.33034 3.41784 6.29926 3.41884C6.26918 3.41985 6.22307 3.40882 6.21906 3.37874C6.21405 3.34065 6.27119 3.31558 6.30728 3.30155C6.3544 3.2825 6.41555 3.27348 6.45966 3.29854C6.46969 3.30355 6.47971 3.31558 6.47671 3.32761Z" fill="#202020"/>
</svg>
