<svg width="14" height="14" viewBox="0 0 14 14" fill="none" xmlns="http://www.w3.org/2000/svg">
<path d="M3.62822 6.83006C3.62822 7.13039 3.509 7.41845 3.29663 7.63082C3.08426 7.84319 2.79625 7.96249 2.49591 7.96249C2.19558 7.96249 1.90757 7.84319 1.6952 7.63082C1.48283 7.41845 1.36344 7.13039 1.36344 6.83006C1.36344 6.52973 1.48283 6.24171 1.6952 6.02935C1.90757 5.81698 2.19558 5.69767 2.49591 5.69767C2.79625 5.69767 3.08426 5.81698 3.29663 6.02935C3.509 6.24171 3.62822 6.52973 3.62822 6.83006ZM8.15794 6.83006C8.15794 7.13039 8.03855 7.41845 7.82619 7.63082C7.61382 7.84319 7.3258 7.96249 7.02547 7.96249C6.72514 7.96249 6.43712 7.84319 6.22475 7.63082C6.01239 7.41845 5.89299 7.13039 5.89299 6.83006C5.89299 6.52973 6.01239 6.24171 6.22475 6.02935C6.43712 5.81698 6.72514 5.69767 7.02547 5.69767C7.3258 5.69767 7.61382 5.81698 7.82619 6.02935C8.03855 6.24171 8.15794 6.52973 8.15794 6.83006ZM12.6875 6.83006C12.6875 7.13039 12.5681 7.41845 12.3557 7.63082C12.1434 7.84319 11.8554 7.96249 11.555 7.96249C11.2547 7.96249 10.9667 7.84319 10.7543 7.63082C10.5419 7.41845 10.4227 7.13039 10.4227 6.83006C10.4227 6.52973 10.5419 6.24171 10.7543 6.02935C10.9667 5.81698 11.2547 5.69767 11.555 5.69767C11.8554 5.69767 12.1434 5.81698 12.3557 6.02935C12.5681 6.24171 12.6875 6.52973 12.6875 6.83006Z" fill="black"/>
</svg>
