<svg width="14" height="14" viewBox="0 0 14 14" fill="none" xmlns="http://www.w3.org/2000/svg">
<path d="M4.97362 13.5C5.24976 13.5 5.47362 13.2761 5.47362 13C5.47362 12.7238 5.24976 12.5 4.97362 12.5V13V13.5ZM13 5.1692C13 5.44534 13.2239 5.6692 13.5 5.6692C13.7761 5.6692 14 5.44534 14 5.1692H13.5H13ZM1.58333 1V1.5H12.4167V1V0.5H1.58333V1ZM0.5 11.9091H1V4.27272H0.5H0V11.9091H0.5ZM0.5 4.27272H1V2.09091H0.5H0V4.27272H0.5ZM4.97362 13V12.5H4.29167V13V13.5H4.97362V13ZM4.29167 13V12.5H1.58333V13V13.5H4.29167V13ZM13.5 2.09091H13V5.1692H13.5H14V2.09091H13.5ZM0.5 11.9091H0C0 12.7844 0.705604 13.5 1.58333 13.5V13V12.5C1.26445 12.5 1 12.2387 1 11.9091H0.5ZM12.4167 1V1.5C12.7356 1.5 13 1.76127 13 2.09091H13.5H14C14 1.21556 13.2944 0.5 12.4167 0.5V1ZM1.58333 1V0.5C0.705604 0.5 0 1.21556 0 2.09091H0.5H1C1 1.76127 1.26445 1.5 1.58333 1.5V1ZM0.5 4.27272V4.77272H13.5V4.27272V3.77272H0.5V4.27272ZM4.29167 4.27272H3.79167V13H4.29167H4.79167V4.27272H4.29167Z" fill="black"/>
<path d="M9.99395 6.9707L9.99395 13.0005M12.9879 9.98559H7" stroke="black" stroke-linecap="round"/>
</svg>
