<svg width="14" height="14" viewBox="0 0 14 14" fill="none" xmlns="http://www.w3.org/2000/svg">
<path d="M5.65114 14.0003H1.46211C1.18782 14.0003 0.922145 13.9252 0.693933 13.7833C0.479805 13.6501 0.302596 13.461 0.181175 13.2366C0.0598902 13.0123 -0.00109388 12.7604 0.00478574 12.5083C0.0110756 12.2396 0.0938006 11.9762 0.244073 11.7466L3.5837 6.63683C3.71661 6.43391 3.72796 6.18751 3.61433 5.97735C3.56155 5.87972 3.40266 5.65274 3.06753 5.65274H0.410207C0.183636 5.65274 0 5.46911 0 5.24253C0 5.01596 0.183636 4.83233 0.410207 4.83233H3.06753C3.60626 4.83233 4.08046 5.11455 4.33602 5.58725C4.59144 6.0598 4.56615 6.63409 4.27025 7.086L0.930622 12.1958C0.80045 12.3946 0.790195 12.6377 0.903002 12.8465C1.01581 13.0553 1.22488 13.1799 1.46211 13.1799H5.65114C5.8371 13.1799 6.00843 13.0866 6.10962 12.9306L6.99662 11.5605L6.13532 11.2458C5.68806 11.1175 5.33857 10.795 5.17462 10.3584C5.00876 9.91657 5.06277 9.43758 5.3227 9.04392L6.97666 6.50091C7.10013 6.31099 7.35432 6.25711 7.54425 6.38072C7.73417 6.50419 7.78805 6.75839 7.66444 6.94831L6.00966 9.49269C6.00898 9.49364 6.00843 9.4946 6.00775 9.49556C5.89385 9.66757 5.87019 9.87691 5.94266 10.07C6.01513 10.2631 6.17088 10.4051 6.36983 10.4595C6.38076 10.4626 6.39157 10.466 6.40223 10.4699L7.454 10.8543L10.0795 6.79886C10.3704 6.34941 10.8807 6.11518 11.411 6.18751C11.9414 6.25985 12.3703 6.62206 12.5304 7.1329L13.9321 11.6057C14.0138 11.8663 14.022 12.141 13.9556 12.4002C13.8934 12.6436 13.7672 12.8688 13.591 13.0518C13.4146 13.2347 13.194 13.3689 12.9531 13.44C12.6964 13.5157 12.4216 13.5176 12.1583 13.4454C12.1473 13.4424 12.1365 13.439 12.1258 13.435L7.78709 11.8495L6.79849 13.3765C6.54553 13.7672 6.11673 14.0004 5.65142 14.0004H5.65114V14.0003ZM12.3893 12.6578C12.6125 12.7136 12.8399 12.6485 13.0003 12.4821C13.1642 12.3122 13.2199 12.0762 13.1493 11.8508L11.7476 7.37807C11.6827 7.17078 11.5155 7.02967 11.3002 7.00027C11.085 6.97101 10.8861 7.06221 10.7681 7.24462L8.2442 11.1429L12.3893 12.6577V12.6578Z" fill="#226DB4"/>
<path d="M5.85488 3.20149C7.33053 2.87551 7.77068 2.43536 8.09666 0.959708C8.11334 0.884093 8.18089 0.830356 8.25828 0.830356C8.33567 0.830356 8.40322 0.884093 8.4199 0.959708C8.74588 2.43536 9.18603 2.87551 10.6617 3.20149C10.7373 3.21817 10.791 3.28572 10.791 3.36311C10.791 3.4405 10.7373 3.50805 10.6617 3.52473C9.18603 3.85071 8.74588 4.29086 8.4199 5.76651C8.40322 5.84212 8.33567 5.89586 8.25828 5.89586C8.18089 5.89586 8.11334 5.84212 8.09666 5.76651C7.77068 4.29086 7.33053 3.85071 5.85488 3.52473C5.77926 3.50805 5.72553 3.4405 5.72553 3.36311C5.72553 3.28572 5.77926 3.21817 5.85488 3.20149Z" fill="#089949"/>
<path d="M9.17263 1.23646C9.93479 1.06814 10.1622 0.840746 10.3305 0.0785824C10.3391 0.0394761 10.374 0.0117188 10.4141 0.0117188C10.4541 0.0117188 10.489 0.0394761 10.4976 0.0785824C10.6659 0.840746 10.8933 1.06814 11.6555 1.23646C11.6946 1.24507 11.7223 1.27994 11.7223 1.32C11.7223 1.36007 11.6946 1.39494 11.6555 1.40355C10.8933 1.57187 10.6659 1.79926 10.4976 2.56143C10.489 2.60053 10.4541 2.62829 10.4141 2.62829C10.374 2.62829 10.3391 2.60053 10.3305 2.56143C10.1622 1.79926 9.93479 1.57187 9.17263 1.40355C9.13352 1.39494 9.10577 1.36007 9.10577 1.32C9.10577 1.27994 9.13352 1.24507 9.17263 1.23646Z" fill="#E42527"/>
</svg>
