<svg width="24" height="24" viewBox="0 0 24 24" fill="none" xmlns="http://www.w3.org/2000/svg">
<path d="M23.182 11.403C23.606 12.0818 23.606 12.9182 23.182 13.597L18.6187 20.903C18.1948 21.5818 17.4112 22 16.5633 22L7.43672 22C6.58877 22 5.80524 21.5818 5.38126 20.903L0.817982 13.597C0.394009 12.9182 0.394009 12.0818 0.817982 11.403L5.38126 4.09696C5.80524 3.41816 6.58877 3 7.43672 3L16.5633 3C17.4112 3 18.1948 3.41816 18.6187 4.09697L23.182 11.403Z" fill="#DD1616"/>
<path d="M16.7311 17.8717C17.2772 17.3256 17.2888 16.4309 16.7311 15.8731L9.27626 8.41831C8.73014 7.87219 7.83543 7.86057 7.27768 8.41831C6.71994 8.97606 6.71994 9.85915 7.27768 10.4169L14.7325 17.8717C15.2786 18.4179 16.1734 18.4295 16.7311 17.8717Z" fill="white"/>
<path d="M7.27771 17.8717C7.82384 18.4178 8.71855 18.4295 9.27629 17.8717L16.7311 10.4169C17.2773 9.87076 17.2889 8.97605 16.7311 8.41831C16.1734 7.86056 15.2903 7.86056 14.7325 8.41831L7.27771 15.8731C6.73159 16.4193 6.71997 17.314 7.27771 17.8717Z" fill="white"/>
</svg>
