<svg width="48" height="48" viewBox="0 0 48 48" fill="none" xmlns="http://www.w3.org/2000/svg">
<g clip-path="url(#clip0_671_41176)">
<path d="M34.1667 42.5H13.1717C13.09 42.5 13.01 42.4967 12.9333 42.4918V42.5C5.80167 42.5 0 36.7675 0 29.7209C0 25.3981 2.21667 21.3833 5.84167 19.0333C6.65 15.3939 8.65 12.0871 11.5383 9.64332C14.695 6.97058 18.725 5.5 22.8867 5.5C29.8967 5.5 36.235 9.68448 38.9517 16.0065C44.2283 17.9349 48 22.9559 48 28.8317C48 36.369 41.795 42.5 34.1667 42.5ZM14.23 38.6663C18.8367 38.6663 34.1667 38.6663 34.1667 38.6663C39.655 38.6663 44.12 34.2545 44.12 28.8317C44.12 23.4088 39.655 18.9971 34.1667 18.9971C28.6783 18.9971 24.2133 23.4088 24.2133 28.8317H20.3333C20.3333 21.324 26.4933 15.2095 34.08 15.1633C31.5883 11.5816 27.4167 9.33207 22.885 9.33207C16.21 9.33207 10.58 14.0452 9.49667 20.5401L9.345 21.4524L8.52833 21.902C5.66 23.4813 3.87833 26.4768 3.87833 29.7193C3.87833 34.6514 7.94 38.6646 12.9317 38.6646H14.2283L14.23 38.6663Z" fill="#067BC0"/>
<path d="M35.0862 29.4686L35.7645 34.0961H32.2845L32.9662 29.4439C32.2529 29.0602 31.7695 28.3175 31.7695 27.4612C31.7695 26.2146 32.7929 25.2051 34.0529 25.2051C35.3129 25.2051 36.3329 26.2129 36.3329 27.4612C36.3329 28.3389 35.8279 29.0981 35.0862 29.4686Z" fill="#049D54"/>
</g>
<defs>
<clipPath id="clip0_671_41176">
<rect width="48" height="37" fill="white" transform="translate(0 5.5)"/>
</clipPath>
</defs>
</svg>