<svg width="14" height="14" viewBox="0 0 14 14" fill="none" xmlns="http://www.w3.org/2000/svg">
<g clip-path="url(#clip0)">
<path fill-rule="evenodd" clip-rule="evenodd" d="M6.44481 7.28215C6.44807 8.58144 6.45198 10.789 6.45524 12.5047C8.80436 12.8224 11.1535 13.1498 13.4987 13.5C13.4987 11.4517 13.5013 9.41231 13.4987 7.46338C11.1476 7.46338 8.79719 7.28215 6.44481 7.28215ZM0.5 7.28279V11.6941C2.27178 11.9332 4.04356 12.1616 5.81208 12.4228C5.81534 10.7162 5.81078 9.00908 5.81078 7.30247C4.0403 7.30572 2.27048 7.27694 0.5 7.28279ZM0.5 2.34812V6.74705C2.27178 6.7516 4.04356 6.72478 5.81534 6.72673C5.81403 5.02402 5.81403 3.32339 5.81208 1.62068C4.039 1.84221 2.26591 2.07657 0.5 2.34812ZM13.5 6.65659C11.1522 6.66569 8.80436 6.70149 6.45524 6.70864C6.45393 4.97799 6.45393 3.24941 6.45524 1.52007C8.7998 1.16211 11.1496 0.825468 13.4987 0.5C13.5 2.55287 13.4987 4.60372 13.5 6.65659Z" fill="#019EE4"/>
</g>
<defs>
<clipPath id="clip0">
<rect width="14" height="14" fill="white"/>
</clipPath>
</defs>
</svg>
