<svg width="48" height="48" viewBox="0 0 48 48" fill="none" xmlns="http://www.w3.org/2000/svg">
<g clip-path="url(#clip0_678_41223)">
<path d="M36.5358 35.8903C36.8679 33.1235 36.7684 32.7178 38.8293 33.1659L39.3525 33.2119C40.9371 33.284 43.01 32.957 44.2278 32.3913C46.8494 31.1749 48.4039 29.1439 45.8189 29.6776C39.9224 30.894 39.5171 28.8974 39.5171 28.8974C45.7434 19.6591 48.3462 7.93195 46.0996 5.06139C39.9718 -2.76847 29.3648 0.934092 29.1873 1.03022L29.1308 1.04066C27.9658 0.798923 26.6619 0.654492 25.1972 0.630811C22.5289 0.586966 20.5041 1.33034 18.9683 2.49528C18.9683 2.49528 0.0459733 -5.30046 0.926274 12.2992C1.11349 16.0432 6.29284 40.6291 12.4702 33.203C14.728 30.4875 16.9099 28.1915 16.9099 28.1915C17.9934 28.9113 19.2905 29.2785 20.651 29.1466L20.7562 29.0569C20.7232 29.3941 20.7378 29.7239 20.7983 30.1143C19.2072 31.8923 19.6747 32.2045 16.4931 32.8594C13.2743 33.5228 15.1654 34.7039 16.3997 35.0126C17.8965 35.3869 21.3592 35.9172 23.6995 32.6417L23.6063 33.0154C24.2306 33.5148 24.1884 36.605 24.2769 38.8128C24.3655 41.0208 24.5134 43.0811 24.9634 44.2959C25.4135 45.5104 25.9446 48.6394 30.1259 47.7432C33.6205 46.9944 36.2923 45.9166 36.5358 35.8903Z" fill="black" stroke="black"/>
<path d="M45.8201 29.6775C39.923 30.8939 39.5176 28.8973 39.5176 28.8973C45.744 19.6584 48.3468 7.93106 46.1006 5.06085C39.9728 -2.76853 29.3654 0.934261 29.1884 1.03039L29.1314 1.04059C27.9663 0.79874 26.6625 0.654661 25.1971 0.630745C22.5287 0.587018 20.5047 1.33027 18.9688 2.49498C18.9688 2.49498 0.0461915 -5.30041 0.926257 12.2992C1.11348 16.0433 6.2927 40.6293 12.4703 33.2031C14.7282 30.4877 16.9098 28.1917 16.9098 28.1917C17.9933 28.9115 19.2905 29.2787 20.6504 29.1468L20.7561 29.0571C20.7232 29.3943 20.7382 29.724 20.7984 30.1144C19.2069 31.8925 19.6746 32.2047 16.4932 32.8595C13.2741 33.523 15.1652 34.7041 16.3999 35.0128C17.8967 35.3871 21.3597 35.9173 23.6995 32.6418L23.6062 33.0156C24.2298 33.515 24.6676 36.2642 24.5943 38.7563C24.5209 41.2486 24.4719 42.9596 24.9632 44.2961C25.4545 45.6325 25.9442 48.6395 30.1263 47.7434C33.6209 46.9945 35.4318 45.0539 35.6838 41.8167C35.8625 39.5153 36.2671 39.8555 36.2927 37.798L36.6172 36.8239C36.9914 33.7042 36.6766 32.6978 38.8296 33.1659L39.3528 33.2118C40.9374 33.2839 43.0114 32.957 44.2286 32.3912C46.8497 31.1748 48.4042 29.1439 45.8198 29.6775H45.8201Z" fill="#336791"/>
<path d="M23.9525 31.4668C23.7902 37.2717 23.9933 43.117 24.5613 44.5377C25.1297 45.9583 26.346 48.7215 30.5285 47.8254C34.0227 47.0763 35.2941 45.6266 35.8458 42.4268C36.2521 40.0725 37.0355 33.5342 37.1359 32.1946" stroke="white" stroke-linecap="round" stroke-linejoin="round"/>
<path d="M18.9385 2.3665C18.9385 2.3665 0.00298431 -5.37273 0.883285 12.2268C1.07051 15.971 6.25008 40.5578 12.4275 33.1313C14.685 30.4155 16.7266 28.2855 16.7266 28.2855" stroke="white" stroke-linecap="round" stroke-linejoin="round"/>
<path d="M29.1662 0.95318C28.5108 1.15869 39.6994 -3.13695 46.0579 4.98798C48.304 7.8583 45.7012 19.5857 39.475 28.8248" stroke="white" stroke-linecap="round" stroke-linejoin="round"/>
<path d="M39.4759 28.8256C39.4759 28.8256 39.8817 30.8228 45.7788 29.6056C48.3626 29.0719 46.8077 31.1031 44.1872 32.3201C42.0365 33.3182 37.2149 33.574 37.1361 32.1948C36.9334 28.6362 39.6737 29.7173 39.4759 28.8256ZM39.4759 28.8256C39.2971 28.0226 38.0717 27.2344 37.2611 25.269C36.5533 23.5536 27.5546 10.3982 39.7566 12.352C40.2036 12.2595 36.5742 0.745693 25.1549 0.558472C13.7382 0.371252 14.1127 14.5985 14.1127 14.5985" stroke="white" stroke-linecap="round" stroke-linejoin="bevel"/>
<path d="M20.7549 30.0417C19.1632 31.8197 19.6313 32.1319 16.4497 32.787C13.2306 33.4505 15.1219 34.6314 16.3563 34.9399C17.8531 35.3145 21.3161 35.8447 23.6559 32.5684C24.3684 31.5709 23.6517 29.9792 22.6729 29.5735C22.2 29.3776 21.5676 29.1321 20.7549 30.0417Z" stroke="white" stroke-linecap="round" stroke-linejoin="round"/>
<path d="M20.6516 30.0104C20.4912 28.965 20.9951 27.7211 21.5351 26.2657C22.3466 24.0822 24.2189 21.8982 22.7211 14.9717C21.6047 9.81003 14.1167 13.8975 14.112 14.5973C14.1074 15.297 14.4507 18.1448 13.9869 21.4611C13.3818 25.7885 16.7405 29.4484 20.6081 29.0739" stroke="white" stroke-linecap="round" stroke-linejoin="round"/>
<path d="M18.8708 14.492C18.8371 14.7311 19.3085 15.3689 19.9231 15.4542C20.5367 15.5398 21.0619 15.0413 21.0952 14.8025C21.1285 14.5634 20.6577 14.3001 20.0428 14.2146C19.4289 14.1289 18.9034 14.2536 18.871 14.492H18.8708Z" fill="white" stroke="white"/>
<path d="M37.5588 14.0057C37.5921 14.2447 37.1213 14.8826 36.5065 14.9678C35.8925 15.0534 35.3673 14.5549 35.3336 14.3161C35.3011 14.0771 35.7721 13.8138 36.3862 13.7282C37.0004 13.6426 37.5255 13.7672 37.5588 14.0058V14.0057Z" fill="white" stroke="white"/>
<path d="M39.7559 12.3516C39.857 14.2266 39.352 15.5037 39.2883 17.4997C39.1941 20.401 40.6716 23.7217 38.4453 27.0466" stroke="white" stroke-linecap="round" stroke-linejoin="round"/>
</g>
<defs>
<clipPath id="clip0_678_41223">
<rect width="48" height="48" fill="white"/>
</clipPath>
</defs>
</svg>
