<svg width="48" height="48" viewBox="0 0 48 48" fill="none" xmlns="http://www.w3.org/2000/svg">
<path d="M19.9747 13.9494C21.5228 12.3365 23.678 11.3361 26.0616 11.3361C29.2301 11.3361 31.9945 13.1029 33.4667 15.7258C34.746 15.1542 36.1621 14.8362 37.652 14.8362C43.3668 14.8362 48 19.5098 48 25.2745C48 31.0399 43.3668 35.7135 37.652 35.7135C36.9675 35.7139 36.2847 35.6458 35.6137 35.5104C34.3173 37.8228 31.8469 39.3853 29.0113 39.3853C27.8243 39.3853 26.7016 39.1111 25.7019 38.6236C24.3877 41.7148 21.3258 43.8823 17.7573 43.8823C14.041 43.8823 10.8739 41.5309 9.65814 38.2331C9.12687 38.3459 8.57643 38.4047 8.01163 38.4047C3.58703 38.4048 0 34.7809 0 30.3098C0 27.3135 1.61163 24.6974 4.00615 23.2978C3.51318 22.1635 3.23897 20.9115 3.23897 19.5952C3.23897 14.4533 7.41333 10.2852 12.5621 10.2852C15.585 10.2852 18.2715 11.7224 19.9747 13.9494Z" fill="#00A1E0"/>
<path d="M6.86631 27.9785C6.83623 28.0572 6.87727 28.0736 6.88683 28.0873C6.97706 28.1529 7.06874 28.2001 7.16104 28.2527C7.6506 28.5125 8.11287 28.5884 8.59628 28.5884C9.58088 28.5884 10.1921 28.0647 10.1921 27.2216V27.2052C10.1921 26.4257 9.50228 26.1426 8.85473 25.9382L8.77065 25.9108C8.28243 25.7522 7.86124 25.6155 7.86124 25.2941V25.277C7.86124 25.0021 8.10739 24.7997 8.48894 24.7997C8.91287 24.7997 9.41613 24.9406 9.74021 25.1197C9.74021 25.1197 9.83525 25.1813 9.87013 25.089C9.88925 25.0397 10.0534 24.598 10.0705 24.5502C10.0889 24.4982 10.0561 24.4599 10.0226 24.4394C9.65271 24.2144 9.14124 24.0605 8.61204 24.0605L8.51359 24.0612C7.6124 24.0612 6.98336 24.6055 6.98336 25.3857V25.4021C6.98336 26.2246 7.67736 26.4913 8.32764 26.6773L8.43225 26.7094C8.9061 26.8551 9.31431 26.9802 9.31431 27.3139V27.3303C9.31431 27.6353 9.04904 27.8623 8.62098 27.8623C8.45483 27.8623 7.92491 27.8588 7.35261 27.4971C7.28351 27.4567 7.2432 27.4274 7.18987 27.3952C7.16185 27.3774 7.09142 27.3466 7.06067 27.4397L6.86631 27.9785ZM21.2806 27.9785C21.2506 28.0572 21.2916 28.0736 21.3011 28.0873C21.3914 28.1529 21.4831 28.2001 21.5753 28.2527C22.0649 28.5125 22.5272 28.5884 23.0106 28.5884C23.9952 28.5884 24.6065 28.0647 24.6065 27.2216V27.2052C24.6065 26.4257 23.9165 26.1426 23.269 25.9382L23.1849 25.9108C22.6967 25.7522 22.2755 25.6155 22.2755 25.2941V25.277C22.2755 25.0021 22.5216 24.7997 22.9032 24.7997C23.3271 24.7997 23.8303 24.9406 24.1545 25.1197C24.1545 25.1197 24.2495 25.1813 24.2844 25.089C24.3035 25.0397 24.4676 24.598 24.4847 24.5502C24.5032 24.4982 24.4703 24.4599 24.4369 24.4394C24.0669 24.2144 23.5555 24.0605 23.0263 24.0605L22.9278 24.0612C22.0266 24.0612 21.3975 24.6055 21.3975 25.3857V25.4021C21.3975 26.2246 22.0915 26.4913 22.7418 26.6773L22.8464 26.7094C23.3203 26.8551 23.7292 26.9802 23.7292 27.3139V27.3303C23.7292 27.6353 23.4632 27.8623 23.0352 27.8623C22.869 27.8623 22.3391 27.8588 21.7668 27.4971C21.6977 27.4567 21.6567 27.4287 21.6048 27.3952C21.587 27.3836 21.5036 27.3515 21.4748 27.4397L21.2806 27.9785ZM31.1209 26.3271C31.1209 26.8037 31.032 27.1791 30.857 27.4444C30.684 27.707 30.4221 27.8348 30.057 27.8348C29.6912 27.8348 29.4307 27.7076 29.2604 27.4444C29.0881 27.1798 29.0007 26.8037 29.0007 26.3271C29.0007 25.8512 29.0881 25.4765 29.2604 25.2139C29.4307 24.9541 29.6912 24.8276 30.057 24.8276C30.4222 24.8276 30.684 24.9541 30.8577 25.2139C31.0321 25.4765 31.1209 25.8512 31.1209 26.3271ZM31.9428 25.4437C31.8621 25.1708 31.7363 24.9302 31.5688 24.7299C31.4013 24.5288 31.1893 24.3675 30.9377 24.2499C30.6867 24.133 30.39 24.0735 30.057 24.0735C29.7233 24.0735 29.4266 24.133 29.1756 24.2499C28.924 24.3675 28.7121 24.5289 28.5439 24.7299C28.377 24.9309 28.2512 25.1716 28.1699 25.4437C28.0899 25.7151 28.0495 26.0119 28.0495 26.3271C28.0495 26.6424 28.0899 26.9398 28.1699 27.2105C28.2512 27.4827 28.3764 27.7234 28.5446 27.9244C28.7121 28.1254 28.9247 28.2861 29.1757 28.4002C29.4273 28.5145 29.7233 28.5725 30.0571 28.5725C30.3901 28.5725 30.6861 28.5145 30.9377 28.4002C31.1887 28.2861 31.4013 28.1254 31.5689 27.9244C31.7364 27.724 31.8622 27.4833 31.9429 27.2105C32.0236 26.9391 32.0639 26.6416 32.0639 26.3271C32.0639 26.0126 32.0235 25.7151 31.9428 25.4437ZM38.692 27.7075C38.6647 27.6275 38.5874 27.6576 38.5874 27.6576C38.4678 27.7035 38.3405 27.7458 38.2052 27.767C38.0677 27.7882 37.9166 27.7992 37.7545 27.7992C37.3566 27.7992 37.0407 27.6809 36.8144 27.447C36.5874 27.2132 36.4602 26.8351 36.4616 26.3236C36.4629 25.858 36.575 25.5079 36.7768 25.2412C36.9772 24.976 37.2821 24.8398 37.6889 24.8398C38.0281 24.8398 38.2866 24.8788 38.5573 24.9643C38.5573 24.9643 38.6222 24.9923 38.653 24.9075C38.7248 24.7079 38.7781 24.565 38.8547 24.3455C38.8766 24.2833 38.8233 24.2566 38.8041 24.249C38.6974 24.2073 38.4458 24.1397 38.2557 24.1109C38.0779 24.0836 37.8701 24.0692 37.639 24.0692C37.2936 24.0692 36.9859 24.1281 36.7227 24.2457C36.4602 24.3626 36.2373 24.5239 36.0609 24.725C35.8844 24.926 35.7504 25.1667 35.6609 25.4388C35.572 25.7102 35.5269 26.0084 35.5269 26.3236C35.5269 27.0053 35.7108 27.5564 36.0739 27.9598C36.4376 28.3646 36.984 28.5704 37.6965 28.5704C38.1177 28.5704 38.5498 28.485 38.8603 28.3626C38.8603 28.3626 38.9197 28.3338 38.8937 28.2648L38.692 27.7075ZM40.13 25.8706C40.169 25.606 40.2422 25.3858 40.355 25.2142C40.5253 24.9537 40.7851 24.8108 41.1502 24.8108C41.5154 24.8108 41.7567 24.9543 41.9297 25.2142C42.0446 25.3858 42.0945 25.6156 42.1144 25.8706H40.13ZM42.8972 25.2887C42.8275 25.0254 42.6545 24.7594 42.541 24.6377C42.3618 24.4449 42.1868 24.3102 42.0131 24.235C41.7861 24.1379 41.5139 24.0736 41.2159 24.0736C40.8685 24.0736 40.5533 24.1318 40.2976 24.2521C40.0412 24.3724 39.8258 24.5366 39.6569 24.741C39.488 24.9447 39.3608 25.1875 39.2801 25.463C39.1988 25.7372 39.1577 26.036 39.1577 26.3512C39.1577 26.6719 39.2001 26.9707 39.2842 27.2394C39.369 27.5102 39.5044 27.7488 39.6876 27.9464C39.8702 28.1454 40.1054 28.3013 40.3871 28.41C40.6668 28.518 41.0067 28.5741 41.397 28.5734C42.2005 28.5706 42.6237 28.3915 42.7981 28.2951C42.8289 28.278 42.8583 28.2479 42.8213 28.1618L42.6394 27.6523C42.6121 27.5765 42.5348 27.6045 42.5348 27.6045C42.3358 27.6783 42.0528 27.811 41.3929 27.8096C40.9615 27.809 40.6414 27.6818 40.4411 27.4828C40.2353 27.279 40.1348 26.9795 40.117 26.557L42.8992 26.5597C42.8992 26.5597 42.9724 26.5584 42.9799 26.4872C42.9827 26.4572 43.0757 25.9157 42.8972 25.2887ZM17.8485 25.8706C17.8881 25.606 17.9606 25.3858 18.0734 25.2142C18.2437 24.9537 18.5035 24.8108 18.8686 24.8108C19.2337 24.8108 19.4751 24.9543 19.6488 25.2142C19.7629 25.3858 19.8129 25.6156 19.8327 25.8706H17.8485ZM20.6149 25.2887C20.5452 25.0254 20.3729 24.7594 20.2594 24.6377C20.0802 24.4449 19.9052 24.3102 19.7316 24.235C19.5045 24.1379 19.2324 24.0736 18.9343 24.0736C18.5876 24.0736 18.2717 24.1318 18.016 24.2521C17.7596 24.3724 17.5442 24.5366 17.3753 24.741C17.2064 24.9447 17.0793 25.1875 16.9986 25.463C16.9179 25.7372 16.8762 26.036 16.8762 26.3512C16.8762 26.6719 16.9186 26.9707 17.0027 27.2394C17.0875 27.5102 17.2229 27.7488 17.4061 27.9464C17.5887 28.1454 17.8239 28.3013 18.1056 28.41C18.3853 28.518 18.7251 28.5741 19.1155 28.5734C19.9189 28.5706 20.3422 28.3915 20.5166 28.2951C20.5474 28.278 20.5767 28.2479 20.5398 28.1618L20.3586 27.6523C20.3306 27.5765 20.2534 27.6045 20.2534 27.6045C20.0544 27.6783 19.772 27.811 19.1108 27.8096C18.68 27.809 18.36 27.6818 18.1597 27.4828C17.9538 27.279 17.8534 26.9795 17.8355 26.557L20.6178 26.5597C20.6178 26.5597 20.6909 26.5584 20.6984 26.4872C20.7011 26.4572 20.794 25.9157 20.6149 25.2887ZM11.8347 27.6923C11.726 27.6054 11.7109 27.5836 11.674 27.5275C11.6193 27.442 11.5913 27.3203 11.5913 27.1658C11.5913 26.921 11.672 26.7453 11.8395 26.627C11.8375 26.6277 12.0789 26.4185 12.6463 26.426C13.045 26.4314 13.4012 26.4902 13.4012 26.4902V27.7552H13.4019C13.4019 27.7552 13.0484 27.8311 12.6504 27.855C12.0843 27.8892 11.8327 27.6916 11.8347 27.6923ZM12.9417 25.7374C12.8289 25.7292 12.6825 25.7244 12.5075 25.7244C12.2689 25.7244 12.0384 25.7545 11.8224 25.8126C11.605 25.8707 11.4094 25.9617 11.2412 26.082C11.0732 26.2019 10.9352 26.3589 10.8378 26.5408C10.7393 26.724 10.6894 26.9401 10.6894 27.1822C10.6894 27.4283 10.7318 27.6423 10.8166 27.8174C10.9014 27.9931 11.0238 28.1394 11.1796 28.2523C11.3342 28.3651 11.525 28.4478 11.7465 28.4977C11.9646 28.5477 12.2121 28.5729 12.4829 28.5729C12.768 28.5729 13.0524 28.5497 13.328 28.5025C13.6008 28.456 13.9359 28.3883 14.0288 28.3671C14.094 28.3514 14.159 28.3348 14.2237 28.3172C14.2928 28.3002 14.2873 28.2263 14.2873 28.2263L14.2859 25.682C14.2859 25.124 14.1369 24.7103 13.8436 24.454C13.5516 24.1983 13.1215 24.069 12.5656 24.069C12.357 24.069 12.0213 24.0977 11.8203 24.138C11.8203 24.138 11.2124 24.2557 10.9622 24.4512C10.9622 24.4512 10.9075 24.4854 10.9376 24.562L11.1345 25.0913C11.1591 25.1596 11.2255 25.1364 11.2255 25.1364C11.2255 25.1364 11.2467 25.1282 11.2713 25.1138C11.8067 24.8225 12.4836 24.8314 12.4836 24.8314C12.7845 24.8314 13.0156 24.8916 13.1715 25.0112C13.3232 25.1275 13.4005 25.3032 13.4005 25.6738V25.7914C13.1612 25.7572 12.9417 25.7374 12.9417 25.7374ZM35.3815 24.3039C35.4027 24.2409 35.3583 24.2108 35.3398 24.204C35.2926 24.1856 35.0561 24.1356 34.8735 24.124C34.5241 24.1028 34.3299 24.1616 34.1562 24.2396C33.9839 24.3175 33.7925 24.4433 33.6858 24.5862V24.2478C33.6858 24.2006 33.6523 24.163 33.6058 24.163H32.8926C32.8461 24.163 32.8126 24.2006 32.8126 24.2478V28.3975C32.8126 28.444 32.8509 28.4823 32.8974 28.4823H33.6284C33.6507 28.4822 33.6722 28.4732 33.6879 28.4573C33.7037 28.4414 33.7125 28.4199 33.7124 28.3975V26.3244C33.7124 26.0461 33.7432 25.7685 33.8048 25.5941C33.8649 25.4218 33.947 25.2837 34.0482 25.1845C34.1501 25.0861 34.2656 25.017 34.3921 24.9781C34.5213 24.9384 34.6642 24.9254 34.7655 24.9254C34.9111 24.9254 35.0711 24.963 35.0711 24.963C35.1244 24.9691 35.1545 24.9363 35.1722 24.8878C35.2201 24.7606 35.3555 24.3797 35.3815 24.3039Z" fill="white"/>
<path d="M28.5215 22.3795C28.4326 22.3522 28.3519 22.3337 28.2466 22.3139C28.1399 22.2948 28.0128 22.2852 27.8685 22.2852C27.3652 22.2852 26.9686 22.4274 26.6904 22.7077C26.4134 22.9867 26.2254 23.4113 26.131 23.97L26.0968 24.158H25.4651C25.4651 24.158 25.3885 24.1552 25.372 24.2387L25.2688 24.8178C25.2613 24.8725 25.2853 24.9074 25.3591 24.9074H25.9738L25.3502 28.3891C25.3016 28.6694 25.2455 28.8999 25.1833 29.0749C25.1224 29.2472 25.063 29.3764 24.9891 29.4708C24.918 29.5611 24.851 29.6281 24.7347 29.667C24.639 29.6992 24.5283 29.7142 24.4072 29.7142C24.3402 29.7142 24.2507 29.7032 24.1843 29.6896C24.1187 29.6765 24.0838 29.6622 24.0339 29.641C24.0339 29.641 23.9621 29.6137 23.9334 29.6855C23.9108 29.745 23.7467 30.1955 23.7269 30.2509C23.7077 30.3063 23.7351 30.3494 23.7699 30.3624C23.852 30.3911 23.9128 30.4102 24.0243 30.4369C24.1789 30.4732 24.3094 30.4752 24.4318 30.4752C24.6875 30.4752 24.9213 30.439 25.1149 30.3692C25.3091 30.2988 25.4786 30.1764 25.629 30.0109C25.7911 29.8318 25.893 29.6444 25.9901 29.3881C26.0865 29.135 26.1693 28.8205 26.2349 28.454L26.8619 24.9074H27.7781C27.7781 24.9074 27.8553 24.9101 27.8712 24.826L27.975 24.2476C27.9819 24.1922 27.9587 24.158 27.8841 24.158H26.9945C26.9993 24.1382 27.0396 23.825 27.1415 23.5304C27.1853 23.4053 27.2673 23.3033 27.3364 23.2336C27.4049 23.1652 27.4835 23.1167 27.5697 23.0886C27.6578 23.0599 27.7584 23.0462 27.8685 23.0462C27.9519 23.0462 28.0346 23.0558 28.0968 23.0688C28.1829 23.0873 28.2164 23.0968 28.2391 23.1037C28.33 23.131 28.3423 23.1044 28.3601 23.0607L28.5728 22.4767C28.5946 22.4137 28.5406 22.387 28.5215 22.3795ZM16.0924 28.3966C16.0924 28.4431 16.0589 28.4808 16.0124 28.4808H15.2746C15.2281 28.4808 15.1953 28.4431 15.1953 28.3966V22.4588C15.1953 22.4124 15.2281 22.3748 15.2746 22.3748H16.0124C16.0589 22.3748 16.0924 22.4124 16.0924 22.4588V28.3966Z" fill="white"/>
</svg>
