<svg width="40" height="40" viewBox="0 0 40 40" fill="none" xmlns="http://www.w3.org/2000/svg">
<mask id="mask0_570_51495" style="mask-type:alpha" maskUnits="userSpaceOnUse" x="0" y="0" width="40" height="40">
<circle cx="20" cy="20" r="20" fill="#D5E0F8"/>
</mask>
<g mask="url(#mask0_570_51495)">
<circle cx="20" cy="20" r="19.5" fill="url(#paint0_linear_570_51495)" stroke="#C4D0F3"/>
<path d="M3.82805 35.1839C5.57059 32.3228 11.3544 32.2403 13.8461 32.2581C15.4499 32.2581 16.0311 30.6762 15.9977 29.085C17.2039 29.9677 18.5937 30.4738 20.0744 30.4738C21.555 30.4738 22.9459 29.9688 24.1511 29.085C24.1167 30.6783 24.6968 32.257 26.3027 32.2581C28.7944 32.2414 34.5782 32.3228 36.3207 35.1839C38.0633 38.045 38.9961 41.6219 38.9961 41.6219H1.15163C1.15163 41.6219 2.0855 38.045 3.827 35.1839H3.82805Z" fill="#FDBC91"/>
<path d="M3.82882 35.1832C5.57136 32.3221 11.3551 32.2396 13.8479 32.2563C14.6388 32.2563 15.1814 31.8713 15.5237 31.2891C19.9771 33.618 23.6542 31.8682 24.6381 31.3047C24.9804 31.8765 25.5198 32.2553 26.3055 32.2563C28.7973 32.2396 34.5821 32.321 36.3246 35.1832C38.0672 38.0443 39 41.6212 39 41.6212H1.1524C1.1524 41.6212 2.08628 38.0443 3.82778 35.1832H3.82882Z" fill="#E3E3E3"/>
<path d="M20.0702 32.4453L21.3359 34.2797L20.0692 35.6748L18.8985 34.2797L20.0702 32.4453Z" fill="#0055F2"/>
<path d="M22.0781 41.6203L20.0685 32.4453L18.2216 41.6203H22.0781Z" fill="#0055F2"/>
<path d="M24.22 30.0996L20.0744 32.4505L22.0789 35.3523L25.4648 32.031L24.22 30.0996Z" fill="white"/>
<path d="M15.9325 30.0996L20.0781 32.4505L18.225 35.3523L14.6877 32.031L15.9325 30.0996Z" fill="white"/>
<path d="M15.8202 27.8246C14.5055 26.6341 13.5195 24.9155 12.884 22.9862C12.499 23.5152 11.9147 22.982 11.8437 22.4885C11.85 21.7309 10.4445 18.3012 12.0326 18.4326C12.0326 18.4326 12.0399 18.4483 12.0534 18.4754C10.9745 3.87875 29.1846 3.89858 28.0942 18.4817C28.1088 18.4514 28.1182 18.4337 28.1182 18.4337C29.7063 18.3064 28.3008 21.7257 28.3071 22.4895C28.2361 22.9841 27.6497 23.5173 27.2647 22.9852C26.6292 24.9155 25.6432 26.6361 24.3274 27.8267C23.0815 28.7919 21.628 29.347 20.0743 29.347C18.5207 29.347 17.0672 28.7919 15.8213 27.8267L15.8202 27.8246Z" fill="#FDBC91"/>
<path d="M15.9994 29.0847C15.9911 28.6652 15.9399 28.2447 15.8523 27.8524C15.8418 27.843 15.8325 27.8336 15.822 27.8242C17.0679 28.7894 18.5214 29.3445 20.0751 29.3445C21.6288 29.3445 23.0823 28.7894 24.3281 27.8242C24.3177 27.8336 24.3083 27.843 24.2989 27.8524C24.2123 28.2447 24.1612 28.6652 24.1528 29.0847C22.9466 29.9685 21.5568 30.4735 20.0761 30.4735C18.5955 30.4735 17.2056 29.9685 15.9994 29.0847Z" fill="#F2AD80"/>
<path d="M12.1799 19.0781L13.0595 21.0084C13.0595 21.0084 13.0209 12.7173 16.1982 13.4143C19.3755 14.1113 22.7458 13.7576 23.9468 13.3725C25.1478 12.9875 26.6201 14.2668 26.6201 15.8163C26.6201 17.3658 27.4726 20.6589 27.4726 20.6589C27.4726 20.6589 28.9062 16.2806 28.829 14.3054C28.7518 12.3291 27.8221 8.3004 23.2498 7.02114C23.2498 7.02114 21.1399 5.74293 20.18 5.78154L20.5066 6.36273C20.5066 6.36273 19.4537 6.43994 18.7171 5.47163C18.7171 5.47163 18.5616 5.93701 18.7171 6.43995C18.8725 6.94393 17.1676 5.72936 17.0507 5C17.0507 5 16.625 5.62606 16.625 5.85875C16.625 6.09144 16.121 5.47789 16.121 5.23895C16.121 5 14.9972 6.01422 14.8042 6.71124C14.8042 6.71124 14.5715 6.40134 14.6487 6.01422C14.6487 6.01422 13.4091 7.20792 13.3319 8.16058C13.3319 8.16058 12.9448 8.18353 12.7893 7.44686C12.7893 7.44686 11.7824 8.57065 11.6655 9.96572C11.6655 9.96572 11.1615 9.73304 11.1615 9.54C11.1615 9.34696 10.6961 11.6644 11.1615 13.0042C11.1615 13.0042 10.7744 12.9886 10.7358 12.7173C10.6972 12.446 10.9299 14.3836 11.317 14.6935L10.7316 14.345C10.7316 14.345 11.6551 17.9251 12.181 19.0791L12.1799 19.0781Z" fill="#571F00"/>
<path d="M3.82703 35.1739C5.56853 32.2971 11.3502 32.2137 13.8409 32.2314C14.2739 32.2314 14.6318 32.1145 14.924 31.9142L20.0567 41.6484L25.2071 31.9121C25.4992 32.1135 25.8582 32.2314 26.2923 32.2314C28.7829 32.2147 34.5646 32.2971 36.3061 35.1739C38.0476 38.0507 38.9805 41.6474 38.9805 41.6474H1.15269C1.15269 41.6474 2.08553 38.0507 3.82703 35.1739Z" fill="#292929"/>
<path d="M24.1368 29.6064L26.6953 33.1635L25.4161 34.0317L27 35.6365L20.0559 41.5653L24.4404 31.949L24.1368 29.6064Z" fill="black"/>
<path d="M15.9855 29.6064L13.426 33.1635L14.7052 34.0317L13.1223 35.6365L20.0664 41.5653L15.6819 31.949L15.9855 29.6064Z" fill="black"/>
</g>
<defs>
<linearGradient id="paint0_linear_570_51495" x1="6.39102" y1="-14.8088" x2="40" y2="35.9988" gradientUnits="userSpaceOnUse">
<stop stop-color="#C4D0F3"/>
<stop offset="0.543269" stop-color="#C4D0F3" stop-opacity="0"/>
<stop offset="0.932692" stop-color="#C4D0F3" stop-opacity="0"/>
</linearGradient>
</defs>
</svg>
