<svg width="12" height="12" viewBox="0 0 12 12" fill="none" xmlns="http://www.w3.org/2000/svg">
<g clip-path="url(#clip0_626_309043)">
<path d="M11.8341 5.36491C12.0553 5.75791 12.0553 6.24209 11.8341 6.63508L9.45325 10.8649C9.23205 11.2579 8.82325 11.5 8.38084 11.5L3.61916 11.5C3.17675 11.5 2.76795 11.2579 2.54675 10.8649L0.165903 6.63508C-0.0553 6.24209 -0.0553 5.75791 0.165903 5.36491L2.54675 1.13508C2.76795 0.742093 3.17675 0.5 3.61916 0.5L8.38084 0.5C8.82325 0.5 9.23205 0.742093 9.45325 1.13509L11.8341 5.36491Z" fill="#DD1616"/>
<path d="M5.29492 7.27051L4.28418 8.28125C4.20324 8.36212 4.07265 8.36171 3.99219 8.28125C3.91152 8.20032 3.91186 8.06966 3.99219 7.98926L5.00293 6.97852L5.29492 7.27051ZM8.01172 7.98926C8.09266 8.07019 8.0922 8.20077 8.01172 8.28125C7.93078 8.36219 7.80021 8.36173 7.71973 8.28125L6.70898 7.27051L7.00098 6.97852L8.01172 7.98926ZM6.29395 6.27148L6.00195 6.56348L5.70996 6.27148L6.00195 5.97949L6.29395 6.27148ZM3.99219 4.26172C4.07302 4.18088 4.20367 4.18154 4.28418 4.26172L5.29492 5.27246L5.00293 5.56445L3.99219 4.55371C3.90888 4.4701 3.90868 4.34523 3.99219 4.26172ZM7.71973 4.26172C7.80325 4.17825 7.92813 4.17838 8.01172 4.26172C8.09264 4.34264 8.09215 4.47322 8.01172 4.55371L7.00098 5.56445L6.70898 5.27246L7.71973 4.26172Z" fill="white" stroke="white"/>
</g>
<defs>
<clipPath id="clip0_626_309043">
<rect width="12" height="12" fill="white"/>
</clipPath>
</defs>
</svg>
