<svg width="16" height="16" viewBox="0 0 16 16" fill="none" xmlns="http://www.w3.org/2000/svg">
<path d="M8 14.6667C11.6819 14.6667 14.6667 11.6819 14.6667 8C14.6667 4.3181 11.6819 1.33333 8 1.33333C4.3181 1.33333 1.33333 4.3181 1.33333 8C1.33333 11.6819 4.3181 14.6667 8 14.6667Z" stroke="white" stroke-linecap="round" stroke-linejoin="round"/>
<path d="M6.06 5.99999C6.21674 5.55443 6.5261 5.17873 6.93331 4.93941C7.34051 4.70009 7.81927 4.61262 8.28479 4.69247C8.75031 4.77232 9.17255 5.01434 9.47672 5.37568C9.78089 5.73702 9.94737 6.19434 9.94667 6.66666C9.94667 7.99999 7.94667 8.66666 7.94667 8.66666" stroke="white" stroke-linecap="round" stroke-linejoin="round"/>
<path d="M8 11.3333H8.00667" stroke="white" stroke-linecap="round" stroke-linejoin="round"/>
</svg>
