<svg width="48" height="48" viewBox="0 0 48 48" fill="none" xmlns="http://www.w3.org/2000/svg">
<g clip-path="url(#clip0_678_41240)">
<path d="M24.0012 33.5994C34.6049 33.5994 43.2012 36.8228 43.2012 40.7994V26.3992C43.2012 22.4228 34.6049 19.1992 24.0012 19.1992H19.2012V33.5994H24.0012Z" fill="url(#paint0_linear_678_41240)"/>
<path d="M43.2008 26.4004C43.2008 30.3769 34.6048 33.6003 24.0008 33.6003C17.5338 33.6003 11.8136 32.4014 8.33462 30.5638C6.45078 29.7286 4.80078 30.9942 4.80078 32.7097V40.8003C4.80078 44.7769 13.397 48.0003 24.0008 48.0003C34.6048 48.0003 43.2008 44.7769 43.2008 40.8003V26.4004Z" fill="url(#paint1_radial_678_41240)"/>
<path d="M43.2008 26.4004C43.2008 30.3769 34.6048 33.6003 24.0008 33.6003C17.5338 33.6003 11.8136 32.4014 8.33462 30.5638C6.45078 29.7286 4.80078 30.9942 4.80078 32.7097V40.8003C4.80078 44.7769 13.397 48.0003 24.0008 48.0003C34.6048 48.0003 43.2008 44.7769 43.2008 40.8003V26.4004Z" fill="url(#paint2_radial_678_41240)"/>
<path d="M24.0008 0C34.6046 0 43.2009 3.22355 43.2009 7.2V15.3562C43.2009 16.4719 42.0382 18.4313 39.6641 17.4349C36.1846 15.5983 30.4659 14.4 24.0008 14.4C13.397 14.4 4.80078 17.6235 4.80078 21.6V7.2C4.80078 3.22355 13.397 0 24.0008 0Z" fill="url(#paint3_linear_678_41240)"/>
<path d="M24.0008 14.3992C13.397 14.3992 4.80078 11.1757 4.80078 7.19922V21.5992C4.80078 25.5757 13.397 28.7994 24.0008 28.7994H25.2008C27.1891 28.7994 28.8009 27.1874 28.8009 25.1992V17.9992C28.8009 16.011 27.1891 14.3992 25.2008 14.3992H24.0008Z" fill="url(#paint4_radial_678_41240)"/>
<path d="M24.0008 14.3992C13.397 14.3992 4.80078 11.1757 4.80078 7.19922V21.5992C4.80078 25.5757 13.397 28.7994 24.0008 28.7994H25.2008C27.1891 28.7994 28.8009 27.1874 28.8009 25.1992V17.9992C28.8009 16.011 27.1891 14.3992 25.2008 14.3992H24.0008Z" fill="url(#paint5_radial_678_41240)"/>
</g>
<defs>
<linearGradient id="paint0_linear_678_41240" x1="36.0012" y1="19.1992" x2="15.9364" y2="35.8188" gradientUnits="userSpaceOnUse">
<stop stop-color="#0094F0"/>
<stop offset="0.243047" stop-color="#0078D4"/>
<stop offset="0.584404" stop-color="#2052CB"/>
<stop offset="0.830639" stop-color="#312A9A"/>
</linearGradient>
<radialGradient id="paint1_radial_678_41240" cx="0" cy="0" r="1" gradientUnits="userSpaceOnUse" gradientTransform="translate(33.6007 29.5505) rotate(143.591) scale(29.8211 53.0152)">
<stop stop-color="#3BD5FF"/>
<stop offset="1" stop-color="#0078D4"/>
</radialGradient>
<radialGradient id="paint2_radial_678_41240" cx="0" cy="0" r="1" gradientUnits="userSpaceOnUse" gradientTransform="translate(39.6008 27.6003) rotate(146.31) scale(25.96 43.796)">
<stop stop-color="#DECBFF" stop-opacity="0.9"/>
<stop offset="1" stop-color="#DECBFF" stop-opacity="0"/>
</radialGradient>
<linearGradient id="paint3_linear_678_41240" x1="32.4009" y1="1.2" x2="9.6703" y2="25.9489" gradientUnits="userSpaceOnUse">
<stop stop-color="#0FAFFF"/>
<stop offset="0.162714" stop-color="#0094F0"/>
<stop offset="0.563871" stop-color="#2052CB"/>
<stop offset="0.764283" stop-color="#312A9A"/>
</linearGradient>
<radialGradient id="paint4_radial_678_41240" cx="0" cy="0" r="1" gradientUnits="userSpaceOnUse" gradientTransform="translate(23.6698 12.1482) rotate(137.53) scale(24.6606 38.4117)">
<stop stop-color="#3BD5FF"/>
<stop offset="1" stop-color="#0078D4"/>
</radialGradient>
<radialGradient id="paint5_radial_678_41240" cx="0" cy="0" r="1" gradientUnits="userSpaceOnUse" gradientTransform="translate(27.6009 10.7992) rotate(149.036) scale(20.9914 33.6005)">
<stop stop-color="#DECBFF" stop-opacity="0.9"/>
<stop offset="1" stop-color="#D1D1FF" stop-opacity="0"/>
</radialGradient>
<clipPath id="clip0_678_41240">
<rect width="48" height="48" fill="white"/>
</clipPath>
</defs>
</svg>
