<svg width="14" height="14" viewBox="0 0 14 14" fill="none" xmlns="http://www.w3.org/2000/svg">
<path d="M3.25 13.5V1.707L0.853 4.104C0.658 4.299 0.342 4.299 0.146 4.104C-0.049 3.908 -0.049 3.592 0.146 3.397L3.396 0.147L3.475 0.082C3.669 -0.046 3.933 -0.024 4.103 0.147L7.353 3.397C7.549 3.592 7.549 3.908 7.353 4.104C7.158 4.299 6.842 4.299 6.646 4.104L4.25 1.707V13.5C4.25 13.776 4.026 14 3.75 14C3.474 14 3.25 13.776 3.25 13.5ZM9.75 0.5C9.75 0.224 9.974 0 10.25 0C10.526 0 10.75 0.224 10.75 0.5V12.293L13.146 9.897C13.342 9.701 13.658 9.701 13.854 9.897C14.049 10.092 14.049 10.409 13.854 10.604L10.604 13.854C10.408 14.049 10.092 14.049 9.896 13.854L6.646 10.604C6.451 10.409 6.451 10.092 6.646 9.897C6.842 9.701 7.158 9.701 7.353 9.897L9.75 12.293V0.5Z" fill="black"/>
</svg>
