<svg width="14" height="14" viewBox="0 0 15 15" fill="none" xmlns="http://www.w3.org/2000/svg">
<path d="M7.06294 9.53936C8.42895 9.53936 9.53633 8.43161 9.53633 7.06514C9.53633 5.69867 8.42895 4.59092 7.06294 4.59092C5.69692 4.59092 4.58955 5.69867 4.58955 7.06514C4.58955 8.43161 5.69692 9.53936 7.06294 9.53936Z" stroke="black" stroke-linecap="round" stroke-linejoin="round"/>
<path d="M11.498 8.86297C11.4182 9.04386 11.3943 9.24452 11.4296 9.43908C11.4649 9.63364 11.5576 9.81317 11.6958 9.95451L11.7319 9.99057C11.8433 10.102 11.9317 10.2344 11.992 10.38C12.0523 10.5256 12.0833 10.6817 12.0833 10.8394C12.0833 10.997 12.0523 11.1531 11.992 11.2987C11.9317 11.4443 11.8433 11.5767 11.7319 11.6881C11.6204 11.7996 11.4882 11.888 11.3426 11.9483C11.197 12.0087 11.041 12.0397 10.8834 12.0397C10.7258 12.0397 10.5698 12.0087 10.4242 11.9483C10.2786 11.888 10.1463 11.7996 10.0349 11.6881L9.99883 11.6521C9.85893 11.5165 9.6824 11.4249 9.49104 11.3885C9.29967 11.3521 9.10186 11.3727 8.92201 11.4475C8.74217 11.5223 8.58818 11.6482 8.47906 11.8096C8.36994 11.971 8.31046 12.1609 8.30799 12.3557V12.4578C8.29953 12.7702 8.16951 13.067 7.94559 13.285C7.72168 13.503 7.42156 13.625 7.1091 13.625C6.79664 13.625 6.49652 13.503 6.27261 13.285C6.0487 13.067 5.91867 12.7702 5.91022 12.4578V12.4041C5.90568 12.2056 5.84153 12.013 5.72612 11.8514C5.6107 11.6899 5.44936 11.5668 5.26307 11.4981C5.08224 11.4183 4.88165 11.3945 4.68715 11.4298C4.49266 11.465 4.31319 11.5578 4.1719 11.6961L4.13585 11.7321C3.91081 11.9572 3.6056 12.0837 3.28735 12.0837C2.9691 12.0837 2.66389 11.9572 2.43885 11.7321C2.21382 11.507 2.0874 11.2017 2.0874 10.8833C2.0874 10.565 2.21382 10.2597 2.43885 10.0346L2.4749 9.99849C2.61045 9.85855 2.70204 9.68196 2.73839 9.49053C2.77473 9.2991 2.75423 9.10122 2.67941 8.92132C2.60459 8.74141 2.47874 8.58737 2.31739 8.47821C2.15604 8.36906 1.96626 8.30956 1.77149 8.30709H1.66685C1.35451 8.29862 1.0578 8.16856 0.839871 7.94457C0.621941 7.72058 0.5 7.42036 0.5 7.1078C0.5 6.79524 0.621941 6.49501 0.839871 6.27102C1.0578 6.04704 1.35451 5.91697 1.66685 5.90851H1.72049C1.91895 5.90397 2.11146 5.8398 2.27298 5.72435C2.43449 5.6089 2.55755 5.4475 2.62614 5.26115C2.705 5.08081 2.7283 4.88104 2.69305 4.68738C2.65781 4.49372 2.56563 4.31498 2.4283 4.17401L2.39225 4.13794C2.16722 3.91283 2.04079 3.60752 2.04079 3.28916C2.04079 2.97081 2.16722 2.66549 2.39225 2.44038C2.61729 2.21527 2.9225 2.08881 3.24075 2.08881C3.559 2.08881 3.86421 2.21527 4.08925 2.44038L4.1253 2.47645C4.26652 2.61454 4.44583 2.70718 4.64014 2.74245C4.83445 2.77772 5.03487 2.754 5.21559 2.67435H5.26395C5.44136 2.59833 5.59266 2.47205 5.69921 2.31107C5.80576 2.1501 5.86291 1.96146 5.86361 1.7684V1.66725C5.87207 1.3548 6.0021 1.05799 6.22601 0.839985C6.44992 0.621982 6.75004 0.5 7.0625 0.5C7.37496 0.5 7.67508 0.621982 7.89899 0.839985C8.1229 1.05799 8.25293 1.3548 8.26139 1.66725V1.7209C8.26386 1.91573 8.32334 2.10558 8.43246 2.26698C8.54158 2.42838 8.69557 2.55428 8.87541 2.62912C9.05525 2.70397 9.25307 2.72448 9.44444 2.68812C9.6358 2.65177 9.81233 2.56014 9.95222 2.42455L9.98827 2.38849C10.2133 2.16338 10.5185 2.03691 10.8368 2.03691C11.155 2.03691 11.4602 2.16338 11.6853 2.38849C11.9103 2.6136 12.0367 2.91892 12.0367 3.23727C12.0367 3.55562 11.9103 3.86094 11.6853 4.08605L11.6492 4.12211C11.5101 4.26365 11.4168 4.44376 11.3814 4.63905C11.3459 4.83433 11.37 5.03576 11.4505 5.21717V5.26555C11.5265 5.44301 11.6527 5.59436 11.8137 5.70095C11.9746 5.80754 12.1632 5.86471 12.3561 5.86541H12.4581C12.7705 5.87387 13.0672 6.00394 13.2851 6.22793C13.5031 6.45191 13.625 6.75214 13.625 7.0647C13.625 7.37726 13.5031 7.67748 13.2851 7.90147C13.0672 8.12546 12.7705 8.25552 12.4581 8.26399H12.4045C12.2115 8.26445 12.0228 8.3214 11.8617 8.42784C11.7006 8.53427 11.5742 8.68553 11.498 8.86297Z" stroke="black" stroke-linecap="round" stroke-linejoin="round"/>
</svg>
