<svg width="14" height="14" viewBox="0 0 14 14" fill="none" xmlns="http://www.w3.org/2000/svg">
<path d="M0.5 3.20833H13.5M5.375 6.19173V10.9996M8.625 6.19173V10.9996M2.39583 3.20833H11.6042V12.6875C11.6042 12.903 11.5186 13.1097 11.3662 13.262C11.2138 13.4144 11.0072 13.5 10.7917 13.5H3.20833C2.99285 13.5 2.78618 13.4144 2.63381 13.262C2.48144 13.1097 2.39583 12.903 2.39583 12.6875V3.20833ZM5.10417 0.5H8.89583C9.11132 0.5 9.31799 0.585602 9.47036 0.737976C9.62273 0.890349 9.70833 1.09701 9.70833 1.3125V3.20833H4.29167V1.3125C4.29167 1.09701 4.37727 0.890349 4.52964 0.737976C4.68202 0.585602 4.88868 0.5 5.10417 0.5Z" stroke="black" stroke-linecap="round" stroke-linejoin="round"/>
</svg>
