<svg width="14" height="14" viewBox="0 0 14 14" fill="none" xmlns="http://www.w3.org/2000/svg">
<path d="M7 1.16667C3.78349 1.16667 1.16667 3.78349 1.16667 7C1.16667 10.2165 3.78349 12.8333 7 12.8333C10.2165 12.8333 12.8333 10.2165 12.8333 7C12.8333 3.78349 10.2165 1.16667 7 1.16667ZM7 0C10.866 0 14 3.134 14 7C14 10.866 10.866 14 7 14C3.134 14 0 10.866 0 7C0 3.134 3.134 0 7 0Z" fill="#DD1616"/>
<path fill-rule="evenodd" clip-rule="evenodd" d="M11.4958 2.50419C11.7236 2.73199 11.7236 3.10134 11.4958 3.32915L3.32915 11.4958C3.10134 11.7236 2.73199 11.7236 2.50419 11.4958C2.27638 11.268 2.27638 10.8987 2.50419 10.6709L10.6709 2.50419C10.8987 2.27638 11.268 2.27638 11.4958 2.50419Z" fill="#DD1616"/>
</svg>
