<svg width="15" height="15" viewBox="0 0 15 15" fill="none" xmlns="http://www.w3.org/2000/svg">
<path d="M7.50047 10.1303C8.9511 10.1303 10.1271 8.95392 10.1271 7.5028C10.1271 6.05168 8.9511 4.87531 7.50047 4.87531C6.04983 4.87531 4.87386 6.05168 4.87386 7.5028C4.87386 8.95392 6.04983 10.1303 7.50047 10.1303Z" stroke="black" stroke-linecap="round" stroke-linejoin="round"/>
<path d="M12.2102 9.412C12.1255 9.6041 12.1002 9.81719 12.1376 10.0238C12.1751 10.2304 12.2736 10.4211 12.4203 10.5712L12.4586 10.6095C12.5769 10.7278 12.6708 10.8684 12.7349 11.023C12.7989 11.1777 12.8319 11.3434 12.8319 11.5108C12.8319 11.6782 12.7989 11.844 12.7349 11.9986C12.6708 12.1533 12.5769 12.2938 12.4586 12.4122C12.3403 12.5305 12.1998 12.6244 12.0452 12.6885C11.8906 12.7526 11.7249 12.7855 11.5576 12.7855C11.3902 12.7855 11.2245 12.7526 11.0699 12.6885C10.9153 12.6244 10.7748 12.5305 10.6565 12.4122L10.6182 12.3739C10.4697 12.2299 10.2822 12.1326 10.079 12.094C9.87576 12.0554 9.66569 12.0772 9.4747 12.1566C9.28372 12.2361 9.12019 12.3698 9.00431 12.5412C8.88843 12.7126 8.82527 12.9142 8.82264 13.1211V13.2295C8.81366 13.5613 8.67558 13.8765 8.4378 14.108C8.20002 14.3395 7.8813 14.469 7.54949 14.469C7.21767 14.469 6.89896 14.3395 6.66118 14.108C6.42339 13.8765 6.28532 13.5613 6.27634 13.2295V13.1725C6.27152 12.9617 6.2034 12.7572 6.08083 12.5856C5.95827 12.414 5.78693 12.2833 5.5891 12.2104C5.39707 12.1256 5.18405 12.1003 4.97751 12.1378C4.77097 12.1753 4.58038 12.2737 4.43033 12.4206L4.39205 12.4589C4.15307 12.6979 3.82895 12.8322 3.49099 12.8322C3.15303 12.8322 2.82891 12.6979 2.58993 12.4589C2.35096 12.2198 2.2167 11.8956 2.2167 11.5575C2.2167 11.2194 2.35096 10.8952 2.58993 10.6562L2.62822 10.6179C2.77215 10.4693 2.86943 10.2817 2.90802 10.0784C2.94662 9.87515 2.92484 9.66501 2.84539 9.47396C2.76594 9.28292 2.63229 9.11933 2.46094 9.00341C2.2896 8.88749 2.08806 8.82432 1.88123 8.82168H1.77011C1.43842 8.8127 1.12333 8.67457 0.891898 8.43671C0.660468 8.19885 0.530973 7.88003 0.530973 7.5481C0.530973 7.21618 0.660468 6.89736 0.891898 6.6595C1.12333 6.42163 1.43842 6.28351 1.77011 6.27452H1.82707C2.03783 6.2697 2.24226 6.20156 2.41378 6.07896C2.5853 5.95635 2.71598 5.78496 2.78882 5.58706C2.87256 5.39555 2.8973 5.1834 2.85988 4.97775C2.82246 4.7721 2.72457 4.58228 2.57873 4.43257L2.54045 4.39428C2.30147 4.15522 2.16722 3.83099 2.16722 3.49292C2.16722 3.15484 2.30147 2.83061 2.54045 2.59156C2.77942 2.3525 3.10354 2.2182 3.4415 2.2182C3.77947 2.2182 4.10359 2.3525 4.34256 2.59156L4.38084 2.62985C4.53082 2.7765 4.72123 2.87488 4.92758 2.91234C5.13393 2.94979 5.34677 2.9246 5.53868 2.84002H5.59004C5.77843 2.75928 5.93911 2.62518 6.05226 2.45424C6.16541 2.28329 6.2261 2.08296 6.22685 1.87794V1.77053C6.23583 1.43872 6.37391 1.12353 6.61169 0.892019C6.84947 0.660512 7.16819 0.530973 7.5 0.530973C7.83181 0.530973 8.15053 0.660512 8.38831 0.892019C8.62609 1.12353 8.76417 1.43872 8.77315 1.77053V1.8275C8.77578 2.03441 8.83894 2.23601 8.95482 2.40741C9.0707 2.57882 9.23423 2.71251 9.42521 2.79199C9.6162 2.87147 9.82627 2.89325 10.0295 2.85464C10.2327 2.81604 10.4202 2.71873 10.5687 2.57474L10.607 2.53645C10.846 2.29739 11.1701 2.16309 11.5081 2.16309C11.846 2.16309 12.1702 2.29739 12.4091 2.53645C12.6481 2.7755 12.7824 3.09973 12.7824 3.43781C12.7824 3.77588 12.6481 4.10011 12.4091 4.33917L12.3708 4.37747C12.2231 4.52777 12.124 4.71904 12.0864 4.92642C12.0488 5.1338 12.0744 5.34771 12.1598 5.54036V5.59173C12.2405 5.78019 12.3746 5.94092 12.5455 6.05411C12.7164 6.1673 12.9166 6.22801 13.1216 6.22876H13.2299C13.5616 6.23774 13.8767 6.37586 14.1081 6.61373C14.3395 6.85159 14.469 7.17041 14.469 7.50233C14.469 7.83426 14.3395 8.15308 14.1081 8.39094C13.8767 8.62881 13.5616 8.76693 13.2299 8.77591H13.1729C12.9679 8.7764 12.7675 8.83689 12.5965 8.94992C12.4254 9.06294 12.2912 9.22357 12.2102 9.412Z" stroke="black" stroke-linecap="round" stroke-linejoin="round"/>
</svg>
