<svg width="24" height="24" viewBox="0 0 24 24" fill="none" xmlns="http://www.w3.org/2000/svg">
<g clip-path="url(#clip0_sev_yellow)">
<path d="M14.325 2.67L23.655 19.14C24.66 20.925 23.37 23.115 21.33 23.115H2.67C0.63 23.115 -0.66 20.91 0.345 19.14L9.69 2.67C10.71 0.87 13.305 0.87 14.325 2.67Z" fill="#FABB34"/>
<path d="M12.001 19.035C12.871 19.035 13.576 18.33 13.576 17.46C13.576 16.59 12.871 15.885 12.001 15.885C11.131 15.885 10.426 16.59 10.426 17.46C10.426 18.33 11.131 19.035 12.001 19.035Z" fill="white"/>
<path d="M12.001 14.189C12.706 14.189 13.291 13.619 13.291 12.899V6.704C13.291 5.999 12.721 5.414 12.001 5.414C11.281 5.414 10.711 5.984 10.711 6.704V12.899C10.711 13.604 11.281 14.189 12.001 14.189Z" fill="white"/>
</g>
<defs>
<clipPath id="clip0_sev_yellow">
<rect width="24" height="24" fill="white"/>
</clipPath>
</defs>
</svg>
