<svg width="14" height="14" viewBox="0 0 14 14" fill="none" xmlns="http://www.w3.org/2000/svg">
<g clip-path="url(#clip0)">
<rect x="7" y="-0.849609" width="11.1" height="11.1" rx="2" transform="rotate(45 7 -0.849609)" fill="#FF5900"/>
<path d="M6.91875 10.945C7.42616 10.945 7.8375 10.5337 7.8375 10.0263C7.8375 9.51884 7.42616 9.1075 6.91875 9.1075C6.41134 9.1075 6 9.51884 6 10.0263C6 10.5337 6.41134 10.945 6.91875 10.945Z" fill="white"/>
<path d="M6.91875 8.11875C7.33 8.11875 7.67125 7.78625 7.67125 7.36625V3.7525C7.67125 3.34125 7.33875 3 6.91875 3C6.49875 3 6.16625 3.3325 6.16625 3.7525V7.36625C6.16625 7.7775 6.49875 8.11875 6.91875 8.11875Z" fill="white"/>
</g>
<defs><clipPath id="clip0"><rect width="14" height="14" fill="white"/></clipPath></defs>
</svg>
