<svg width="14" height="14" viewBox="0 0 14 14" fill="none" xmlns="http://www.w3.org/2000/svg">
<path d="M9.35714 0.5V3.1M4.21429 0.5V3.1M1 5.7H12.5714M2.71429 1.8H11.2857C12.2325 1.8 13 2.57604 13 3.53333V11.7667C13 12.724 12.2325 13.5 11.2857 13.5H2.71429C1.76751 13.5 1 12.724 1 11.7667V3.53333C1 2.57604 1.76751 1.8 2.71429 1.8Z" stroke="black" stroke-linecap="round" stroke-linejoin="round"/>
<path d="M7.00086 9.02431C7.4443 9.02431 7.80378 8.67027 7.80378 8.23355C7.80378 7.79683 7.4443 7.4428 7.00086 7.4428C6.55742 7.4428 6.19794 7.79683 6.19794 8.23355C6.19794 8.67027 6.55742 9.02431 7.00086 9.02431Z" fill="black"/>
<path d="M9.94491 9.02431C10.3883 9.02431 10.7478 8.67027 10.7478 8.23355C10.7478 7.79683 10.3883 7.4428 9.94491 7.4428C9.50147 7.4428 9.14199 7.79683 9.14199 8.23355C9.14199 8.67027 9.50147 9.02431 9.94491 9.02431Z" fill="black"/>
<path d="M4.05683 11.6602C4.50027 11.6602 4.85975 11.3061 4.85975 10.8694C4.85975 10.4327 4.50027 10.0786 4.05683 10.0786C3.61339 10.0786 3.25391 10.4327 3.25391 10.8694C3.25391 11.3061 3.61339 11.6602 4.05683 11.6602Z" fill="black"/>
<path d="M7.00086 11.6602C7.4443 11.6602 7.80378 11.3061 7.80378 10.8694C7.80378 10.4327 7.4443 10.0786 7.00086 10.0786C6.55742 10.0786 6.19794 10.4327 6.19794 10.8694C6.19794 11.3061 6.55742 11.6602 7.00086 11.6602Z" fill="black"/>
<path d="M9.94491 11.6602C10.3883 11.6602 10.7478 11.3061 10.7478 10.8694C10.7478 10.4327 10.3883 10.0786 9.94491 10.0786C9.50147 10.0786 9.14199 10.4327 9.14199 10.8694C9.14199 11.3061 9.50147 11.6602 9.94491 11.6602Z" fill="black"/>
</svg>
