<svg width="24" height="24" viewBox="0 0 24 24" fill="none" xmlns="http://www.w3.org/2000/svg">
<path d="M22.8509 16.0847C22.5583 17.2239 21.505 18.0031 20.3283 18.0031H20.3174C18.5674 21.2266 15.8506 23.2325 12.2113 23.9792C12.143 23.9933 12.0713 24 12.0005 24C11.9296 24 11.8588 23.9933 11.7888 23.9792C8.66786 23.3383 6.20111 21.7474 4.45688 19.2515L6.17444 18.0515C7.54032 20.0057 9.45789 21.2832 11.8796 21.8541C11.9588 21.8724 12.043 21.8724 12.1221 21.8541C14.9264 21.1974 16.9982 19.6482 18.3974 17.1481C17.9749 16.6847 17.7182 16.0697 17.7182 15.3922C17.7182 13.9497 18.8865 12.7813 20.3283 12.7813C21.995 12.7813 23.2975 14.3422 22.8509 16.0839V16.0847Z" fill="#FAA61A"/>
<path d="M6.28361 15.3939C6.28361 16.8931 5.02023 18.0965 3.50018 17.9981C2.1768 17.9123 1.1126 16.8156 1.06426 15.4905C1.03343 14.6388 1.40928 13.8755 2.0143 13.3771C1.97263 13.1863 1.93179 12.9946 1.89429 12.7996L1.89096 12.7821C1.88846 12.7713 1.88596 12.7596 1.88429 12.7496C1.2751 9.55367 1.37344 6.45106 1.48594 4.88517C1.51178 4.52599 1.72095 4.20431 2.04013 4.03597C3.96103 3.01677 6.02777 2.30091 8.18201 1.91007L8.55702 3.9693C6.91113 4.26931 5.32274 4.7785 3.82103 5.48602C3.64602 5.56853 3.53268 5.74187 3.52435 5.93521C3.45851 7.51693 3.47768 9.90451 3.93853 12.3371C3.94436 12.3613 3.94936 12.3863 3.95353 12.4113C3.97936 12.5454 4.00687 12.6763 4.0352 12.8079C5.30608 12.9821 6.28444 14.073 6.28444 15.3939H6.28361Z" fill="#CE1432"/>
<path d="M1.89763 12.8088C1.89763 12.8088 1.89763 12.8096 1.89763 12.8104C1.89763 12.8104 1.89763 12.8096 1.89763 12.8088Z" fill="#007AC1"/>
<path d="M22.2475 12.0171L20.1799 11.6846C20.5358 9.47533 20.5458 7.35776 20.4874 5.93604C20.4799 5.7427 20.3658 5.56853 20.1908 5.48602C18.3465 4.61766 16.3606 4.04764 14.3289 3.80097C13.8855 4.66683 12.9722 5.25185 11.9255 5.22018C10.5913 5.18018 9.48372 4.11098 9.40039 2.77926C9.30538 1.26088 10.5079 0 12.0055 0C13.1297 0 14.0872 0.710025 14.4547 1.70589C17.0823 2.00924 19.6432 2.8001 21.9725 4.03514C22.2917 4.20348 22.4992 4.52516 22.5267 4.886C22.6492 6.5919 22.6992 9.21365 22.2475 12.0171Z" fill="#007AC1"/>
<path d="M16.454 10.2387L11.8046 14.888L9.17371 12.2571L10.6546 10.7762L11.8046 11.9271L14.9722 8.7578L16.454 10.2387Z" fill="#009D54"/>
</svg>
